<?xml version="1.0" encoding="utf-8"?>
<!-- Generator: Adobe Illustrator 17.0.0, SVG Export Plug-In . SVG Version: 6.00 Build 0)  -->
<!DOCTYPE svg PUBLIC "-//W3C//DTD SVG 1.1//EN" "http://www.w3.org/Graphics/SVG/1.1/DTD/svg11.dtd">
<svg version="1.1" id="Layer_1" xmlns="http://www.w3.org/2000/svg" xmlns:xlink="http://www.w3.org/1999/xlink" x="0px" y="0px"
	 width="53px" height="27px" viewBox="0 0 53 27" enable-background="new 0 0 53 27" xml:space="preserve">
<g>
	<g>
		<g>
			<g>
				<g>
					<path fill="#FFFFFF" d="M13.124,5.5c4.825,0,8.75,3.925,8.75,8.75S17.949,23,13.124,23s-8.75-3.925-8.75-8.75
						S8.299,5.5,13.124,5.5 M13.124,3.5c-5.937,0-10.75,4.813-10.75,10.75S7.187,25,13.124,25s10.75-4.813,10.75-10.75
						S19.061,3.5,13.124,3.5L13.124,3.5z"/>
				</g>
			</g>
			<g>
				<path fill="#FFFFFF" d="M13,18c-0.552,0-1-0.447-1-1v-6c0-0.552,0.448-1,1-1s1,0.448,1,1v6C14,17.553,13.552,18,13,18z"/>
			</g>
			<g>
				<path fill="#FFFFFF" d="M16,15h-6c-0.552,0-1-0.447-1-1c0-0.552,0.448-1,1-1h6c0.552,0,1,0.448,1,1C17,14.553,16.552,15,16,15z"
					/>
			</g>
		</g>
	</g>
	<g>
		<g>
			<path fill="#FFFFFF" d="M49,8v4H31V8H49 M51,6H29v8h22V6L51,6z"/>
		</g>
		<g>
			<path fill="#FFFFFF" d="M48.723,25c-0.04,0-0.077,0-0.11,0h-16.58c-0.525,0-1.583,0.018-2.333-0.726
				c-0.465-0.459-0.7-1.086-0.7-1.862V17c0-0.553,0.447-1,1-1s1,0.447,1,1v5.412c0,0.213,0.038,0.374,0.105,0.44
				C31.264,23.007,31.738,23,31.936,23H48.54c0.187,0,0.352,0.004,0.404-0.017C48.933,22.977,49,22.8,49,22.412V17
				c0-0.553,0.447-1,1-1s1,0.447,1,1v5.412c0,0.902-0.224,1.561-0.683,2.015C49.779,24.958,49.111,25,48.723,25z"/>
		</g>
		<g>
			<path fill="#FFFFFF" d="M29.985,7.37c-0.182,0-0.365-0.049-0.53-0.153c-0.468-0.293-0.609-0.911-0.315-1.378l2.506-3.37
				C31.828,2.177,32.148,2,32.492,2H41c0.553,0,1,0.448,1,1s-0.447,1-1,1h-7.954l-2.213,2.901C30.643,7.204,30.318,7.37,29.985,7.37
				z"/>
		</g>
		<g>
			<path fill="#FFFFFF" d="M50.057,7.481c-0.287,0-0.572-0.123-0.77-0.361L46.157,4H39c-0.553,0-1-0.448-1-1s0.447-1,1-1h7.626
				c0.297,0,0.579,0.132,0.769,0.361l3.43,3.481c0.354,0.425,0.295,1.055-0.129,1.408C50.508,7.405,50.282,7.481,50.057,7.481z"/>
		</g>
	</g>
</g>
</svg>
