<?xml version="1.0" encoding="utf-8"?>
<!-- Generator: Adobe Illustrator 17.0.0, SVG Export Plug-In . SVG Version: 6.00 Build 0)  -->
<!DOCTYPE svg PUBLIC "-//W3C//DTD SVG 1.1//EN" "http://www.w3.org/Graphics/SVG/1.1/DTD/svg11.dtd">
<svg version="1.1" id="Layer_1" xmlns="http://www.w3.org/2000/svg" xmlns:xlink="http://www.w3.org/1999/xlink" x="0px" y="0px"
	 width="623.221px" height="418.061px" viewBox="0 0 623.221 418.061" enable-background="new 0 0 623.221 418.061"
	 xml:space="preserve">
<g>
	<g>
		<path fill="#CCCCCC" d="M181.864,22.306h-8.317v22.479h-1.992V22.306h-8.317v-1.693h18.627V22.306z"/>
		<path fill="#CCCCCC" d="M182.495,35.537c0-2.645,0.725-4.814,2.175-6.508s3.37-2.54,5.761-2.54c2.401,0,4.327,0.847,5.777,2.54
			s2.175,3.863,2.175,6.508v0.548c0,2.656-0.723,4.829-2.166,6.516c-1.445,1.688-3.362,2.532-5.753,2.532
			c-2.413,0-4.344-0.844-5.794-2.532c-1.45-1.688-2.175-3.86-2.175-6.516V35.537z M184.487,36.076c0,2.079,0.525,3.826,1.577,5.241
			s2.518,2.123,4.399,2.123c1.849,0,3.301-0.708,4.358-2.123c1.057-1.415,1.585-3.162,1.585-5.241v-0.547
			c0-2.045-0.531-3.781-1.594-5.208s-2.523-2.139-4.383-2.139s-3.314,0.713-4.366,2.139s-1.577,3.162-1.577,5.208V36.076z"/>
		<path fill="#CCCCCC" d="M225.277,36.301c0,2.689-0.608,4.834-1.826,6.433c-1.218,1.6-2.895,2.399-5.03,2.399
			c-1.317,0-2.451-0.263-3.403-0.789s-1.721-1.281-2.308-2.266l-0.216,2.706h-1.71V18.886h1.992v10.758
			c0.598-1.007,1.361-1.785,2.291-2.333s2.036-0.822,3.32-0.822c2.158,0,3.846,0.861,5.063,2.582
			c1.218,1.721,1.826,4.015,1.826,6.881V36.301z M223.269,35.953c0-2.301-0.442-4.171-1.328-5.611
			c-0.886-1.439-2.197-2.159-3.935-2.159c-1.384,0-2.498,0.345-3.346,1.034c-0.846,0.689-1.475,1.573-1.884,2.651v8.154
			c0.442,1.045,1.104,1.876,1.983,2.493c0.881,0.617,1.974,0.925,3.279,0.925c1.737,0,3.044-0.645,3.918-1.934
			s1.312-3.023,1.312-5.203V35.953z"/>
		<path fill="#CCCCCC" d="M236.467,45.133c-2.247,0-4.114-0.83-5.604-2.49c-1.488-1.66-2.232-3.763-2.232-6.309v-0.913
			c0-2.567,0.738-4.698,2.217-6.392c1.477-1.693,3.268-2.54,5.37-2.54c2.202,0,3.935,0.697,5.196,2.092s1.893,3.254,1.893,5.578
			v1.693h-12.684v0.48c0,2.021,0.537,3.71,1.61,5.069s2.484,2.038,4.233,2.038c1.239,0,2.297-0.171,3.171-0.515
			c0.874-0.343,1.621-0.835,2.241-1.478l0.847,1.361c-0.675,0.711-1.53,1.276-2.565,1.695
			C239.126,44.923,237.895,45.133,236.467,45.133z M236.218,28.183c-1.472,0-2.706,0.561-3.702,1.68
			c-0.996,1.121-1.577,2.525-1.743,4.214l0.033,0.083h10.525v-0.497c0-1.556-0.459-2.859-1.378-3.907S237.789,28.183,236.218,28.183
			z"/>
		<path fill="#CCCCCC" d="M246.461,35.952c0-2.866,0.611-5.16,1.835-6.881c1.223-1.721,2.924-2.582,5.104-2.582
			c1.272,0,2.374,0.28,3.304,0.838c0.93,0.559,1.699,1.348,2.308,2.366l0.232-2.872h1.677v17.73c0,2.313-0.639,4.139-1.918,5.479
			c-1.277,1.339-3.057,2.009-5.337,2.009c-0.863,0-1.782-0.105-2.756-0.315c-0.974-0.21-1.826-0.498-2.557-0.863l0.515-1.677
			c0.708,0.354,1.455,0.623,2.241,0.805s1.627,0.274,2.523,0.274c1.749,0,3.068-0.504,3.96-1.511c0.891-1.007,1.336-2.407,1.336-4.2
			v-2.258c-0.608,0.908-1.378,1.608-2.308,2.1c-0.93,0.492-2.015,0.739-3.254,0.739c-2.158,0-3.849-0.802-5.071-2.407
			c-1.224-1.604-1.835-3.746-1.835-6.425V35.952z M248.453,36.303c0,2.168,0.442,3.899,1.328,5.194s2.202,1.942,3.951,1.942
			c1.284,0,2.355-0.296,3.212-0.889c0.858-0.592,1.52-1.409,1.984-2.448v-8.334c-0.432-1.05-1.065-1.91-1.9-2.581
			c-0.836-0.67-1.924-1.005-3.263-1.005c-1.749,0-3.071,0.723-3.968,2.168c-0.896,1.445-1.345,3.312-1.345,5.602V36.303z"/>
		<path fill="#CCCCCC" d="M268.408,21.675h-1.976v-2.789h1.976V21.675z M268.408,44.784h-1.976V26.821h1.976V44.784z"/>
		<path fill="#CCCCCC" d="M275.663,26.821l0.183,3.138c0.575-1.106,1.353-1.961,2.333-2.565c0.979-0.603,2.139-0.905,3.478-0.905
			c1.948,0,3.431,0.595,4.449,1.785c1.019,1.19,1.527,3.046,1.527,5.57v10.94h-1.992V33.839c0-2.062-0.385-3.521-1.153-4.375
			c-0.77-0.854-1.862-1.281-3.279-1.281c-1.395,0-2.531,0.369-3.412,1.106c-0.879,0.737-1.513,1.716-1.9,2.936v12.56h-1.992V26.821
			H275.663z"/>
		<path fill="#CCCCCC" d="M294.705,44.486l-1.76,4.582h-1.361l1.146-4.632v-2.772h1.976V44.486z"/>
		<path fill="#CCCCCC" d="M312.701,39.92l0.631,2.142h0.1l5.429-15.24h2.225l-7.803,20.835c-0.465,1.217-1.068,2.252-1.81,3.104
			c-0.741,0.852-1.826,1.278-3.254,1.278c-0.232,0-0.515-0.025-0.847-0.075s-0.575-0.103-0.73-0.158l0.232-1.66
			c0.133,0.022,0.346,0.047,0.639,0.075c0.294,0.027,0.507,0.042,0.64,0.042c0.863,0,1.555-0.307,2.075-0.921
			s0.963-1.403,1.328-2.366l0.946-2.424l-6.939-17.73h2.208L312.701,39.92z"/>
		<path fill="#CCCCCC" d="M322.878,35.537c0-2.645,0.725-4.814,2.175-6.508s3.37-2.54,5.761-2.54c2.401,0,4.327,0.847,5.777,2.54
			s2.175,3.863,2.175,6.508v0.548c0,2.656-0.723,4.829-2.166,6.516c-1.445,1.688-3.362,2.532-5.753,2.532
			c-2.413,0-4.344-0.844-5.794-2.532c-1.45-1.688-2.175-3.86-2.175-6.516V35.537z M324.87,36.076c0,2.079,0.525,3.826,1.577,5.241
			s2.518,2.123,4.399,2.123c1.849,0,3.301-0.708,4.358-2.123c1.057-1.415,1.585-3.162,1.585-5.241v-0.547
			c0-2.045-0.531-3.781-1.594-5.208s-2.523-2.139-4.383-2.139s-3.314,0.713-4.366,2.139s-1.577,3.162-1.577,5.208V36.076z"/>
		<path fill="#CCCCCC" d="M354.687,41.846c-0.575,1.052-1.351,1.862-2.324,2.432s-2.125,0.855-3.453,0.855
			c-1.893,0-3.376-0.642-4.449-1.926c-1.073-1.284-1.61-3.276-1.61-5.977V26.821h1.992v10.463c0,2.196,0.373,3.771,1.121,4.724
			c0.746,0.954,1.807,1.431,3.179,1.431c1.505,0,2.706-0.338,3.603-1.015c0.896-0.677,1.521-1.608,1.876-2.794V26.821h1.992v17.963
			h-1.76L354.687,41.846z"/>
		<path fill="#CCCCCC" d="M376.767,43.44c1.317,0,2.479-0.375,3.486-1.125s1.511-1.792,1.511-3.125h1.76l0.033,0.1
			c0.056,1.66-0.608,3.049-1.992,4.167c-1.384,1.118-2.982,1.677-4.798,1.677c-2.446,0-4.336-0.838-5.669-2.515
			c-1.334-1.677-2.001-3.832-2.001-6.466v-0.697c0-2.612,0.67-4.759,2.009-6.441c1.339-1.682,3.221-2.523,5.645-2.523
			c1.97,0,3.611,0.581,4.922,1.743c1.312,1.162,1.945,2.689,1.901,4.582l-0.033,0.1h-1.776c0-1.438-0.484-2.587-1.453-3.445
			c-0.968-0.857-2.155-1.287-3.561-1.287c-1.926,0-3.351,0.688-4.275,2.065c-0.924,1.376-1.386,3.109-1.386,5.199v0.696
			c0,2.123,0.459,3.87,1.378,5.241C373.386,42.754,374.818,43.44,376.767,43.44z"/>
		<path fill="#CCCCCC" d="M399.096,44.784c-0.133-0.608-0.227-1.134-0.282-1.577c-0.056-0.442-0.083-0.891-0.083-1.345
			c-0.664,0.941-1.55,1.721-2.656,2.341s-2.352,0.93-3.735,0.93c-1.749,0-3.107-0.465-4.076-1.395
			c-0.968-0.93-1.452-2.175-1.452-3.735c0-1.66,0.717-2.988,2.149-3.984c1.434-0.996,3.368-1.494,5.803-1.494h3.968V32.3
			c0-1.284-0.412-2.291-1.237-3.021c-0.824-0.73-1.978-1.096-3.461-1.096c-1.384,0-2.531,0.349-3.445,1.046
			c-0.912,0.697-1.369,1.55-1.369,2.557l-1.826-0.017l-0.033-0.1c-0.066-1.339,0.545-2.537,1.834-3.594
			c1.29-1.057,2.931-1.585,4.923-1.585c1.981,0,3.575,0.504,4.781,1.511c1.206,1.007,1.81,2.452,1.81,4.333v8.832
			c0,0.631,0.036,1.245,0.107,1.843c0.072,0.598,0.191,1.19,0.357,1.776H399.096z M392.571,43.373c1.428,0,2.689-0.334,3.785-1.004
			c1.096-0.669,1.887-1.524,2.374-2.565v-3.752h-4.001c-1.804,0-3.246,0.385-4.324,1.154c-1.08,0.77-1.619,1.724-1.619,2.864
			c0,0.974,0.335,1.768,1.004,2.382C390.46,43.066,391.387,43.373,392.571,43.373z"/>
		<path fill="#CCCCCC" d="M407.762,26.821l0.183,3.138c0.575-1.106,1.353-1.961,2.333-2.565c0.979-0.603,2.139-0.905,3.478-0.905
			c1.948,0,3.431,0.595,4.449,1.785c1.019,1.19,1.527,3.046,1.527,5.57v10.94h-1.992V33.839c0-2.062-0.385-3.521-1.153-4.375
			c-0.77-0.854-1.862-1.281-3.279-1.281c-1.395,0-2.531,0.369-3.412,1.106c-0.879,0.737-1.513,1.716-1.9,2.936v12.56h-1.992V26.821
			H407.762z"/>
		<path fill="#CCCCCC" d="M427.136,29.577h-2.274v-2.723h2.274V29.577z M427.136,44.784h-2.274v-2.723h2.274V44.784z"/>
	</g>
	<g>
		<g>
			<path fill="#CCCCCC" d="M234.707,259.533h-7.165v5.586h8.261v1.665h-10.377v-15.641h10.259v1.665h-8.143v5.06h7.165V259.533z"/>
			<path fill="#CCCCCC" d="M239.777,255.161l0.15,1.729c0.387-0.616,0.872-1.094,1.456-1.435c0.583-0.34,1.247-0.51,1.992-0.51
				c1.253,0,2.224,0.367,2.911,1.102s1.031,1.867,1.031,3.399v7.337h-2.116v-7.294c0-1.024-0.202-1.751-0.606-2.181
				c-0.405-0.43-1.022-0.645-1.854-0.645c-0.608,0-1.147,0.146-1.616,0.44c-0.47,0.294-0.844,0.694-1.123,1.203v8.476h-2.116
				v-11.623H239.777z"/>
			<path fill="#CCCCCC" d="M253.184,252.358v2.804h2.202v1.568h-2.202v7.058c0,0.544,0.113,0.928,0.339,1.149
				c0.226,0.223,0.524,0.333,0.896,0.333c0.122,0,0.256-0.015,0.403-0.043c0.146-0.028,0.277-0.064,0.392-0.107l0.279,1.45
				c-0.157,0.129-0.389,0.234-0.692,0.316c-0.305,0.082-0.611,0.124-0.919,0.124c-0.859,0-1.543-0.259-2.052-0.778
				s-0.763-1.334-0.763-2.444v-7.058h-1.848v-1.568h1.848v-2.804H253.184z"/>
			<path fill="#CCCCCC" d="M262.819,267.01c-1.618,0-2.905-0.538-3.861-1.616s-1.435-2.477-1.435-4.195v-0.473
				c0-1.654,0.492-3.031,1.478-4.131c0.984-1.099,2.149-1.648,3.496-1.648c1.568,0,2.754,0.473,3.556,1.418s1.203,2.206,1.203,3.781
				v1.321h-7.541l-0.032,0.054c0.021,1.113,0.305,2.029,0.849,2.748c0.544,0.717,1.307,1.076,2.288,1.076
				c0.716,0,1.345-0.102,1.886-0.307c0.54-0.203,1.008-0.484,1.401-0.843l0.827,1.376c-0.415,0.412-0.963,0.754-1.644,1.027
				C264.609,266.873,263.786,267.01,262.819,267.01z M262.497,256.611c-0.709,0-1.314,0.298-1.815,0.894s-0.81,1.344-0.924,2.243
				l0.021,0.054h5.36v-0.278c0-0.828-0.222-1.521-0.666-2.077S263.371,256.611,262.497,256.611z"/>
			<path fill="#CCCCCC" d="M275.13,257.03l-1.085-0.064c-0.559,0-1.029,0.133-1.412,0.397c-0.384,0.265-0.679,0.638-0.887,1.117
				v8.304h-2.116v-11.623h1.891l0.204,1.697c0.329-0.602,0.736-1.07,1.22-1.407s1.04-0.505,1.67-0.505
				c0.157,0,0.308,0.013,0.451,0.037c0.144,0.025,0.262,0.053,0.354,0.081L275.13,257.03z"/>
			<path fill="#CCCCCC" d="M285.432,252.358v2.804h2.202v1.568h-2.202v7.058c0,0.544,0.113,0.928,0.339,1.149
				c0.226,0.223,0.524,0.333,0.896,0.333c0.122,0,0.256-0.015,0.403-0.043c0.146-0.028,0.277-0.064,0.392-0.107l0.279,1.45
				c-0.157,0.129-0.389,0.234-0.692,0.316c-0.305,0.082-0.611,0.124-0.919,0.124c-0.859,0-1.543-0.259-2.052-0.778
				s-0.763-1.334-0.763-2.444v-7.058h-1.848v-1.568h1.848v-2.804H285.432z"/>
			<path fill="#CCCCCC" d="M292.36,256.719c0.401-0.559,0.894-0.993,1.478-1.306c0.583-0.311,1.229-0.467,1.938-0.467
				c1.239,0,2.204,0.373,2.896,1.117c0.69,0.745,1.036,1.891,1.036,3.438v7.283h-2.116v-7.305c0-0.959-0.206-1.668-0.617-2.127
				c-0.412-0.458-1.026-0.688-1.843-0.688c-0.587,0-1.119,0.139-1.595,0.414c-0.477,0.275-0.869,0.649-1.177,1.122v8.583h-2.116
				v-16.758h2.116V256.719z"/>
			<path fill="#CCCCCC" d="M307.571,267.01c-1.618,0-2.905-0.538-3.861-1.616s-1.435-2.477-1.435-4.195v-0.473
				c0-1.654,0.492-3.031,1.478-4.131c0.984-1.099,2.149-1.648,3.496-1.648c1.568,0,2.754,0.473,3.556,1.418s1.203,2.206,1.203,3.781
				v1.321h-7.541l-0.032,0.054c0.021,1.113,0.305,2.029,0.849,2.748c0.544,0.717,1.307,1.076,2.288,1.076
				c0.716,0,1.345-0.102,1.886-0.307c0.54-0.203,1.008-0.484,1.401-0.843l0.827,1.376c-0.415,0.412-0.963,0.754-1.644,1.027
				C309.361,266.873,308.538,267.01,307.571,267.01z M307.249,256.611c-0.709,0-1.314,0.298-1.815,0.894s-0.81,1.344-0.924,2.243
				l0.021,0.054h5.36v-0.278c0-0.828-0.222-1.521-0.666-2.077S308.123,256.611,307.249,256.611z"/>
			<path fill="#CCCCCC" d="M322.138,252.186h-2.116v-2.159h2.116V252.186z M322.138,266.784h-2.116v-11.623h2.116V266.784z"/>
			<path fill="#CCCCCC" d="M328.186,252.358v2.804h2.202v1.568h-2.202v7.058c0,0.544,0.113,0.928,0.339,1.149
				c0.226,0.223,0.524,0.333,0.896,0.333c0.122,0,0.256-0.015,0.403-0.043c0.146-0.028,0.277-0.064,0.392-0.107l0.279,1.45
				c-0.157,0.129-0.389,0.234-0.692,0.316c-0.305,0.082-0.611,0.124-0.919,0.124c-0.859,0-1.543-0.259-2.052-0.778
				s-0.763-1.334-0.763-2.444v-7.058h-1.848v-1.568h1.848v-2.804H328.186z"/>
			<path fill="#CCCCCC" d="M337.821,267.01c-1.618,0-2.905-0.538-3.861-1.616s-1.435-2.477-1.435-4.195v-0.473
				c0-1.654,0.492-3.031,1.478-4.131c0.984-1.099,2.149-1.648,3.496-1.648c1.568,0,2.754,0.473,3.556,1.418s1.203,2.206,1.203,3.781
				v1.321h-7.541l-0.032,0.054c0.021,1.113,0.305,2.029,0.849,2.748c0.544,0.717,1.307,1.076,2.288,1.076
				c0.716,0,1.345-0.102,1.886-0.307c0.54-0.203,1.008-0.484,1.401-0.843l0.827,1.376c-0.415,0.412-0.963,0.754-1.644,1.027
				C339.611,266.873,338.788,267.01,337.821,267.01z M337.499,256.611c-0.709,0-1.314,0.298-1.815,0.894s-0.81,1.344-0.924,2.243
				l0.021,0.054h5.36v-0.278c0-0.828-0.222-1.521-0.666-2.077S338.373,256.611,337.499,256.611z"/>
			<path fill="#CCCCCC" d="M346.522,255.161l0.15,1.525c0.38-0.551,0.861-0.979,1.445-1.283c0.583-0.305,1.262-0.457,2.035-0.457
				s1.438,0.18,1.993,0.537c0.555,0.358,0.972,0.896,1.251,1.611c0.365-0.658,0.849-1.182,1.45-1.568s1.304-0.58,2.105-0.58
				c1.182,0,2.116,0.406,2.804,1.219c0.688,0.813,1.031,2.036,1.031,3.669v6.95h-2.116v-6.972c0-1.146-0.197-1.956-0.591-2.433
				s-0.981-0.715-1.762-0.715c-0.724,0-1.309,0.251-1.756,0.752c-0.448,0.502-0.711,1.135-0.79,1.901v0.086v7.38h-2.127v-6.972
				c0-1.089-0.202-1.886-0.606-2.39c-0.405-0.506-0.987-0.758-1.746-0.758c-0.645,0-1.175,0.133-1.59,0.397
				s-0.734,0.638-0.956,1.117v8.604h-2.116v-11.623H346.522z"/>
			<path fill="#CCCCCC" d="M221.629,277.161l0.15,1.525c0.379-0.551,0.86-0.979,1.444-1.283s1.263-0.457,2.036-0.457
				s1.438,0.18,1.992,0.537c0.555,0.358,0.973,0.896,1.252,1.611c0.365-0.658,0.849-1.182,1.45-1.568s1.303-0.58,2.105-0.58
				c1.182,0,2.116,0.406,2.804,1.219c0.688,0.813,1.031,2.036,1.031,3.669v6.95h-2.116v-6.972c0-1.146-0.197-1.956-0.591-2.433
				c-0.395-0.477-0.981-0.715-1.762-0.715c-0.724,0-1.31,0.251-1.757,0.752c-0.447,0.502-0.711,1.135-0.789,1.901v0.086v7.38h-2.127
				v-6.972c0-1.089-0.203-1.886-0.607-2.39c-0.404-0.506-0.986-0.758-1.745-0.758c-0.645,0-1.175,0.133-1.59,0.397
				c-0.416,0.265-0.734,0.638-0.956,1.117v8.604h-2.116v-11.623H221.629z"/>
			<path fill="#CCCCCC" d="M246.11,288.784c-0.072-0.351-0.128-0.66-0.167-0.93c-0.039-0.268-0.062-0.538-0.069-0.811
				c-0.395,0.559-0.908,1.025-1.542,1.402c-0.634,0.375-1.315,0.563-2.046,0.563c-1.211,0-2.133-0.31-2.767-0.929
				s-0.95-1.474-0.95-2.562c0-1.109,0.449-1.979,1.348-2.605c0.898-0.626,2.118-0.939,3.658-0.939h2.299v-1.149
				c0-0.681-0.208-1.22-0.623-1.616c-0.416-0.398-1.003-0.597-1.762-0.597c-0.681,0-1.234,0.174-1.66,0.521
				c-0.426,0.348-0.639,0.766-0.639,1.252h-2.02l-0.021-0.064c-0.043-0.845,0.355-1.618,1.197-2.32
				c0.842-0.701,1.929-1.053,3.261-1.053c1.317,0,2.377,0.335,3.18,1.004c0.802,0.67,1.203,1.635,1.203,2.896v5.597
				c0,0.416,0.021,0.816,0.064,1.203s0.121,0.767,0.236,1.139H246.11z M242.598,287.227c0.766,0,1.457-0.196,2.073-0.589
				c0.615-0.393,1.017-0.843,1.203-1.35v-1.886H243.5c-0.853,0-1.535,0.214-2.047,0.643s-0.768,0.933-0.768,1.511
				c0,0.514,0.161,0.921,0.483,1.221C241.491,287.077,241.967,287.227,242.598,287.227z"/>
			<path fill="#CCCCCC" d="M252.953,277.161l0.15,1.729c0.387-0.616,0.871-1.094,1.455-1.435c0.584-0.34,1.248-0.51,1.993-0.51
				c1.253,0,2.224,0.367,2.911,1.102s1.031,1.867,1.031,3.399v7.337h-2.116v-7.294c0-1.024-0.203-1.751-0.607-2.181
				s-1.022-0.645-1.853-0.645c-0.609,0-1.148,0.146-1.617,0.44s-0.843,0.694-1.122,1.203v8.476h-2.116v-11.623H252.953z"/>
			<path fill="#CCCCCC" d="M270.946,287.066c-0.365,0.623-0.835,1.104-1.407,1.439c-0.573,0.336-1.235,0.505-1.987,0.505
				c-1.268,0-2.256-0.404-2.965-1.214c-0.709-0.809-1.063-2.069-1.063-3.781v-6.854h2.116v6.875c0,1.239,0.183,2.092,0.548,2.557
				c0.365,0.466,0.935,0.698,1.708,0.698c0.752,0,1.373-0.151,1.863-0.456s0.861-0.736,1.112-1.295v-8.379h2.116v11.623h-1.901
				L270.946,287.066z"/>
			<path fill="#CCCCCC" d="M283.214,288.784c-0.072-0.351-0.128-0.66-0.167-0.93c-0.039-0.268-0.062-0.538-0.069-0.811
				c-0.395,0.559-0.908,1.025-1.542,1.402c-0.634,0.375-1.315,0.563-2.046,0.563c-1.211,0-2.133-0.31-2.767-0.929
				s-0.95-1.474-0.95-2.562c0-1.109,0.449-1.979,1.348-2.605c0.898-0.626,2.118-0.939,3.658-0.939h2.299v-1.149
				c0-0.681-0.208-1.22-0.623-1.616c-0.416-0.398-1.003-0.597-1.762-0.597c-0.681,0-1.234,0.174-1.66,0.521
				c-0.426,0.348-0.639,0.766-0.639,1.252h-2.02l-0.021-0.064c-0.043-0.845,0.355-1.618,1.197-2.32
				c0.842-0.701,1.929-1.053,3.261-1.053c1.317,0,2.377,0.335,3.18,1.004c0.802,0.67,1.203,1.635,1.203,2.896v5.597
				c0,0.416,0.021,0.816,0.064,1.203s0.121,0.767,0.236,1.139H283.214z M279.701,287.227c0.766,0,1.457-0.196,2.073-0.589
				c0.615-0.393,1.017-0.843,1.203-1.35v-1.886h-2.374c-0.853,0-1.535,0.214-2.047,0.643s-0.768,0.933-0.768,1.511
				c0,0.514,0.161,0.921,0.483,1.221C278.595,287.077,279.07,287.227,279.701,287.227z"/>
			<path fill="#CCCCCC" d="M290.454,288.784h-2.116v-16.758h2.116V288.784z"/>
			<path fill="#CCCCCC" d="M295.997,288.784h-2.116v-16.758h2.116V288.784z"/>
			<path fill="#CCCCCC" d="M302.808,284.477l0.376,1.461h0.064l2.857-8.776h2.353l-4.888,13.406
				c-0.294,0.78-0.715,1.461-1.263,2.041s-1.287,0.87-2.218,0.87c-0.172,0-0.391-0.021-0.655-0.06
				c-0.266-0.039-0.47-0.076-0.612-0.112l0.215-1.665c-0.043-0.008,0.084,0,0.381,0.021s0.485,0.032,0.564,0.032
				c0.451,0,0.819-0.2,1.106-0.602c0.286-0.401,0.526-0.845,0.72-1.332l0.505-1.214l-4.318-11.387h2.363L302.808,284.477z"/>
			<path fill="#CCCCCC" d="M325.71,283.413c0,1.676-0.403,3.027-1.209,4.055c-0.806,1.028-1.914,1.542-3.324,1.542
				c-0.767,0-1.433-0.149-1.998-0.446c-0.566-0.297-1.035-0.735-1.407-1.315l-0.258,1.536h-1.729v-16.758h2.116v6.51
				c0.365-0.516,0.817-0.909,1.358-1.182c0.541-0.271,1.173-0.408,1.896-0.408c1.432,0,2.549,0.573,3.352,1.719
				c0.802,1.146,1.203,2.653,1.203,4.522V283.413z M323.594,283.188c0-1.332-0.246-2.419-0.736-3.261
				c-0.49-0.841-1.237-1.262-2.239-1.262c-0.652,0-1.202,0.16-1.649,0.479s-0.804,0.746-1.068,1.283v5.038
				c0.271,0.573,0.628,1.021,1.068,1.343s0.997,0.483,1.671,0.483c0.995,0,1.736-0.354,2.224-1.063
				c0.486-0.709,0.73-1.646,0.73-2.814V283.188z"/>
			<path fill="#CCCCCC" d="M333.111,289.01c-1.619,0-2.906-0.538-3.862-1.616s-1.434-2.477-1.434-4.195v-0.473
				c0-1.654,0.492-3.031,1.477-4.131c0.984-1.099,2.15-1.648,3.497-1.648c1.568,0,2.753,0.473,3.556,1.418
				c0.802,0.945,1.203,2.206,1.203,3.781v1.321h-7.541l-0.032,0.054c0.021,1.113,0.304,2.029,0.849,2.748
				c0.544,0.717,1.307,1.076,2.288,1.076c0.716,0,1.344-0.102,1.885-0.307c0.541-0.203,1.008-0.484,1.402-0.843l0.827,1.376
				c-0.416,0.412-0.964,0.754-1.644,1.027C334.901,288.873,334.078,289.01,333.111,289.01z M332.789,278.611
				c-0.709,0-1.314,0.298-1.815,0.894c-0.502,0.596-0.81,1.344-0.924,2.243l0.021,0.054h5.36v-0.278
				c0-0.828-0.223-1.521-0.666-2.077C334.321,278.89,333.662,278.611,332.789,278.611z"/>
			<path fill="#CCCCCC" d="M342.21,288.784h-2.116v-16.758h2.116V288.784z"/>
			<path fill="#CCCCCC" d="M344.971,282.865c0-1.719,0.465-3.135,1.396-4.249c0.931-1.113,2.194-1.67,3.792-1.67
				c1.611,0,2.884,0.555,3.818,1.665s1.402,2.528,1.402,4.254v0.236c0,1.733-0.466,3.151-1.396,4.254
				c-0.932,1.103-2.199,1.654-3.803,1.654c-1.604,0-2.874-0.554-3.809-1.659c-0.935-1.107-1.401-2.523-1.401-4.249V282.865z
				 M347.087,283.097c0,1.229,0.259,2.246,0.778,3.047s1.291,1.201,2.315,1.201c1.01,0,1.775-0.4,2.299-1.201
				c0.522-0.801,0.784-1.817,0.784-3.047v-0.236c0-1.217-0.264-2.229-0.79-3.037c-0.526-0.808-1.298-1.212-2.314-1.212
				c-1.01,0-1.774,0.404-2.294,1.212c-0.52,0.809-0.778,1.82-0.778,3.037V283.097z"/>
			<path fill="#CCCCCC" d="M360.944,284.552l0.247,1.407h0.064l0.301-1.407l2.32-7.391h1.697l2.331,7.391l0.333,1.568h0.064
				l0.312-1.568l1.826-7.391h2.105l-3.373,11.623h-1.708l-2.245-7.079l-0.483-1.977l-0.064,0.011l-0.462,1.966l-2.213,7.079h-1.708
				l-3.373-11.623h2.105L360.944,284.552z"/>
		</g>
		<g>
			<g>
				<path fill="#CCCCCC" d="M349.902,128.598c7.802,0,14.149,6.347,14.149,14.149v43.321c0,7.802-6.347,14.149-14.149,14.149
					h-108.52c-7.802,0-14.149-6.347-14.149-14.149v-43.321c0-7.802,6.347-14.149,14.149-14.149H349.902 M349.902,126.598h-108.52
					c-8.919,0-16.149,7.23-16.149,16.149v43.321c0,8.919,7.23,16.149,16.149,16.149h108.52c8.919,0,16.149-7.23,16.149-16.149
					v-43.321C366.051,133.828,358.821,126.598,349.902,126.598L349.902,126.598z"/>
			</g>
			<g>
				<path fill="#CCCCCC" d="M248.568,144.747c1.123,0,2.037,0.914,2.037,2.037v3.096c0,1.123-0.914,2.037-2.037,2.037h-3.095
					c-1.123,0-2.037-0.914-2.037-2.037v-3.096c0-1.123,0.914-2.037,2.037-2.037H248.568 M248.568,142.747h-3.095
					c-2.229,0-4.037,1.808-4.037,4.037v3.096c0,2.23,1.808,4.037,4.037,4.037h3.095c2.23,0,4.037-1.808,4.037-4.037v-3.096
					C252.605,144.555,250.798,142.747,248.568,142.747L248.568,142.747z"/>
			</g>
			<g>
				<path fill="#CCCCCC" d="M264.736,144.747c1.124,0,2.038,0.914,2.038,2.037v3.096c0,1.123-0.914,2.037-2.038,2.037h-3.095
					c-1.123,0-2.037-0.914-2.037-2.037v-3.096c0-1.123,0.914-2.037,2.037-2.037H264.736 M264.736,142.747h-3.095
					c-2.23,0-4.037,1.808-4.037,4.037v3.096c0,2.23,1.807,4.037,4.037,4.037h3.095c2.23,0,4.038-1.808,4.038-4.037v-3.096
					C268.774,144.555,266.966,142.747,264.736,142.747L264.736,142.747z"/>
			</g>
			<g>
				<path fill="#CCCCCC" d="M280.905,144.747c1.123,0,2.037,0.914,2.037,2.037v3.096c0,1.123-0.914,2.037-2.037,2.037h-3.095
					c-1.123,0-2.037-0.914-2.037-2.037v-3.096c0-1.123,0.914-2.037,2.037-2.037H280.905 M280.905,142.747h-3.095
					c-2.23,0-4.037,1.808-4.037,4.037v3.096c0,2.23,1.807,4.037,4.037,4.037h3.095c2.23,0,4.037-1.808,4.037-4.037v-3.096
					C284.942,144.555,283.135,142.747,280.905,142.747L280.905,142.747z"/>
			</g>
			<g>
				<path fill="#CCCCCC" d="M297.074,144.747c1.123,0,2.037,0.914,2.037,2.037v3.096c0,1.123-0.914,2.037-2.037,2.037h-3.095
					c-1.124,0-2.038-0.914-2.038-2.037v-3.096c0-1.123,0.914-2.037,2.038-2.037H297.074 M297.074,142.747h-3.095
					c-2.23,0-4.038,1.808-4.038,4.037v3.096c0,2.23,1.808,4.037,4.038,4.037h3.095c2.23,0,4.037-1.808,4.037-4.037v-3.096
					C301.111,144.555,299.304,142.747,297.074,142.747L297.074,142.747z"/>
			</g>
			<g>
				<path fill="#CCCCCC" d="M313.242,144.747c1.124,0,2.038,0.914,2.038,2.037v3.096c0,1.123-0.914,2.037-2.038,2.037h-3.095
					c-1.123,0-2.037-0.914-2.037-2.037v-3.096c0-1.123,0.914-2.037,2.037-2.037H313.242 M313.242,142.747h-3.095
					c-2.23,0-4.037,1.808-4.037,4.037v3.096c0,2.23,1.807,4.037,4.037,4.037h3.095c2.23,0,4.038-1.808,4.038-4.037v-3.096
					C317.28,144.555,315.472,142.747,313.242,142.747L313.242,142.747z"/>
			</g>
			<g>
				<path fill="#CCCCCC" d="M329.411,144.747c1.123,0,2.037,0.914,2.037,2.037v3.096c0,1.123-0.914,2.037-2.037,2.037h-3.095
					c-1.123,0-2.037-0.914-2.037-2.037v-3.096c0-1.123,0.914-2.037,2.037-2.037H329.411 M329.411,142.747h-3.095
					c-2.23,0-4.037,1.808-4.037,4.037v3.096c0,2.23,1.807,4.037,4.037,4.037h3.095c2.23,0,4.037-1.808,4.037-4.037v-3.096
					C333.448,144.555,331.641,142.747,329.411,142.747L329.411,142.747z"/>
			</g>
			<g>
				<path fill="#CCCCCC" d="M345.58,144.747c1.123,0,2.037,0.914,2.037,2.037v3.096c0,1.123-0.914,2.037-2.037,2.037h-3.095
					c-1.124,0-2.038-0.914-2.038-2.037v-3.096c0-1.123,0.914-2.037,2.038-2.037H345.58 M345.58,142.747h-3.095
					c-2.23,0-4.038,1.808-4.038,4.037v3.096c0,2.23,1.808,4.037,4.038,4.037h3.095c2.23,0,4.037-1.808,4.037-4.037v-3.096
					C349.617,144.555,347.809,142.747,345.58,142.747L345.58,142.747z"/>
			</g>
			<g>
				<path fill="#CCCCCC" d="M256.409,160.823c1.124,0,2.038,0.914,2.038,2.038v3.095c0,1.123-0.914,2.037-2.038,2.037h-10.936
					c-1.123,0-2.037-0.914-2.037-2.037v-3.095c0-1.124,0.914-2.038,2.037-2.038H256.409 M256.409,158.823h-10.936
					c-2.229,0-4.037,1.808-4.037,4.038v3.095c0,2.229,1.808,4.037,4.037,4.037h10.936c2.23,0,4.038-1.808,4.038-4.037v-3.095
					C260.446,160.631,258.639,158.823,256.409,158.823L256.409,158.823z"/>
			</g>
			<g>
				<path fill="#CCCCCC" d="M272.578,160.823c1.123,0,2.037,0.914,2.037,2.038v3.095c0,1.123-0.914,2.037-2.037,2.037h-3.095
					c-1.123,0-2.037-0.914-2.037-2.037v-3.095c0-1.124,0.914-2.038,2.037-2.038H272.578 M272.578,158.823h-3.095
					c-2.23,0-4.037,1.808-4.037,4.038v3.095c0,2.229,1.807,4.037,4.037,4.037h3.095c2.23,0,4.037-1.808,4.037-4.037v-3.095
					C276.615,160.631,274.808,158.823,272.578,158.823L272.578,158.823z"/>
			</g>
			<g>
				<path fill="#CCCCCC" d="M288.746,160.823c1.123,0,2.037,0.914,2.037,2.038v3.095c0,1.123-0.914,2.037-2.037,2.037h-3.095
					c-1.124,0-2.038-0.914-2.038-2.037v-3.095c0-1.124,0.914-2.038,2.038-2.038H288.746 M288.746,158.823h-3.095
					c-2.23,0-4.038,1.808-4.038,4.038v3.095c0,2.229,1.808,4.037,4.038,4.037h3.095c2.23,0,4.037-1.808,4.037-4.037v-3.095
					C292.783,160.631,290.976,158.823,288.746,158.823L288.746,158.823z"/>
			</g>
			<g>
				<path fill="#CCCCCC" d="M304.915,160.823c1.123,0,2.037,0.914,2.037,2.038v3.095c0,1.123-0.914,2.037-2.037,2.037h-3.095
					c-1.123,0-2.037-0.914-2.037-2.037v-3.095c0-1.124,0.914-2.038,2.037-2.038H304.915 M304.915,158.823h-3.095
					c-2.23,0-4.037,1.808-4.037,4.038v3.095c0,2.229,1.807,4.037,4.037,4.037h3.095c2.229,0,4.037-1.808,4.037-4.037v-3.095
					C308.952,160.631,307.144,158.823,304.915,158.823L304.915,158.823z"/>
			</g>
			<g>
				<path fill="#CCCCCC" d="M321.083,160.823c1.123,0,2.037,0.914,2.037,2.038v3.095c0,1.123-0.914,2.037-2.037,2.037h-3.095
					c-1.123,0-2.037-0.914-2.037-2.037v-3.095c0-1.124,0.914-2.038,2.037-2.038H321.083 M321.083,158.823h-3.095
					c-2.229,0-4.037,1.808-4.037,4.038v3.095c0,2.229,1.808,4.037,4.037,4.037h3.095c2.23,0,4.037-1.808,4.037-4.037v-3.095
					C325.121,160.631,323.313,158.823,321.083,158.823L321.083,158.823z"/>
			</g>
			<g>
				<path fill="#CCCCCC" d="M345.58,160.823c1.123,0,2.037,0.914,2.037,2.038v3.095c0,1.123-0.914,2.037-2.037,2.037h-11.422
					c-1.123,0-2.037-0.914-2.037-2.037v-3.095c0-1.124,0.914-2.038,2.037-2.038H345.58 M345.58,158.823h-11.422
					c-2.23,0-4.037,1.808-4.037,4.038v3.095c0,2.229,1.807,4.037,4.037,4.037h11.422c2.23,0,4.037-1.808,4.037-4.037v-3.095
					C349.617,160.631,347.809,158.823,345.58,158.823L345.58,158.823z"/>
			</g>
			<g>
				<path fill="#CCCCCC" d="M248.568,176.901c1.123,0,2.037,0.914,2.037,2.037v3.095c0,1.123-0.914,2.037-2.037,2.037h-3.095
					c-1.123,0-2.037-0.914-2.037-2.037v-3.095c0-1.123,0.914-2.037,2.037-2.037H248.568 M248.568,174.901h-3.095
					c-2.229,0-4.037,1.807-4.037,4.037v3.095c0,2.23,1.808,4.037,4.037,4.037h3.095c2.23,0,4.037-1.808,4.037-4.037v-3.095
					C252.605,176.707,250.798,174.901,248.568,174.901L248.568,174.901z"/>
			</g>
			<g>
				<path fill="#CCCCCC" d="M329.411,176.901c1.123,0,2.037,0.914,2.037,2.037v3.095c0,1.123-0.914,2.037-2.037,2.037h-2.117h-0.978
					h-64.674c-1.123,0-2.037-0.914-2.037-2.037v-3.095c0-1.123,0.914-2.037,2.037-2.037h64.674h0.978H329.411 M329.411,174.901
					h-2.117h-0.978h-64.674c-2.23,0-4.037,1.807-4.037,4.037v3.095c0,2.23,1.807,4.037,4.037,4.037h64.674h0.978h2.117
					c2.23,0,4.037-1.808,4.037-4.037v-3.095C333.448,176.707,331.641,174.901,329.411,174.901L329.411,174.901z"/>
			</g>
			<g>
				<path fill="#CCCCCC" d="M345.58,176.901c1.123,0,2.037,0.914,2.037,2.037v3.095c0,1.123-0.914,2.037-2.037,2.037h-3.095
					c-1.124,0-2.038-0.914-2.038-2.037v-3.095c0-1.123,0.914-2.037,2.038-2.037H345.58 M345.58,174.901h-3.095
					c-2.23,0-4.038,1.807-4.038,4.037v3.095c0,2.23,1.808,4.037,4.038,4.037h3.095c2.23,0,4.037-1.808,4.037-4.037v-3.095
					C349.617,176.707,347.809,174.901,345.58,174.901L345.58,174.901z"/>
			</g>
		</g>
		<g>
			<path fill="#CCCCCC" d="M65.939,262.846c0-0.712-0.269-1.308-0.806-1.788c-0.537-0.481-1.49-0.885-2.857-1.213
				c-1.654-0.395-2.945-0.977-3.873-1.744c-0.928-0.769-1.391-1.734-1.391-2.896c0-1.221,0.5-2.24,1.499-3.059
				s2.293-1.228,3.883-1.228c1.711,0,3.074,0.47,4.087,1.407c1.013,0.938,1.502,2.027,1.466,3.266l-0.021,0.064h-2.02
				c0-0.916-0.303-1.658-0.908-2.224c-0.605-0.565-1.474-0.849-2.605-0.849c-1.053,0-1.86,0.238-2.422,0.715
				c-0.562,0.477-0.843,1.098-0.843,1.863c0,0.681,0.304,1.248,0.913,1.703c0.608,0.455,1.597,0.854,2.965,1.197
				c1.647,0.408,2.9,1.01,3.76,1.805s1.289,1.779,1.289,2.954c0,1.261-0.516,2.274-1.547,3.04c-1.031,0.767-2.378,1.149-4.039,1.149
				c-1.562,0-2.942-0.425-4.141-1.272c-1.2-0.85-1.782-1.982-1.746-3.4l0.021-0.064h2.02c0,1.003,0.369,1.766,1.106,2.288
				c0.737,0.522,1.65,0.784,2.739,0.784c1.067,0,1.912-0.225,2.535-0.673S65.939,263.614,65.939,262.846z"/>
			<path fill="#CCCCCC" d="M75.468,265.345c0.702,0,1.319-0.217,1.853-0.65c0.533-0.433,0.8-0.965,0.8-1.595h1.901l0.021,0.064
				c0.036,1.003-0.41,1.895-1.337,2.675c-0.928,0.781-2.007,1.171-3.239,1.171c-1.69,0-2.983-0.552-3.878-1.654
				c-0.896-1.103-1.343-2.488-1.343-4.157v-0.451c0-1.654,0.449-3.035,1.348-4.141c0.898-1.107,2.189-1.66,3.873-1.66
				c1.36,0,2.472,0.401,3.335,1.203c0.863,0.803,1.28,1.787,1.251,2.954l-0.021,0.064h-1.912c0-0.709-0.251-1.312-0.752-1.81
				c-0.501-0.498-1.135-0.747-1.901-0.747c-1.11,0-1.903,0.399-2.379,1.196c-0.477,0.797-0.714,1.775-0.714,2.935v0.45
				c0,1.188,0.236,2.176,0.709,2.967S74.351,265.345,75.468,265.345z"/>
			<path fill="#CCCCCC" d="M89.562,266.784c-0.072-0.351-0.127-0.66-0.167-0.93c-0.04-0.268-0.063-0.538-0.07-0.811
				c-0.394,0.559-0.908,1.025-1.542,1.402c-0.634,0.375-1.316,0.563-2.046,0.563c-1.21,0-2.132-0.31-2.766-0.929
				s-0.951-1.474-0.951-2.562c0-1.109,0.449-1.979,1.348-2.605c0.898-0.626,2.118-0.939,3.658-0.939h2.299v-1.149
				c0-0.681-0.208-1.22-0.623-1.616c-0.416-0.398-1.003-0.597-1.762-0.597c-0.681,0-1.234,0.174-1.66,0.521
				c-0.426,0.348-0.639,0.766-0.639,1.252h-2.02l-0.021-0.064c-0.043-0.845,0.356-1.618,1.198-2.32
				c0.841-0.701,1.928-1.053,3.26-1.053c1.317,0,2.377,0.335,3.18,1.004c0.802,0.67,1.203,1.635,1.203,2.896v5.597
				c0,0.416,0.021,0.816,0.064,1.203s0.122,0.767,0.236,1.139H89.562z M86.049,265.227c0.766,0,1.457-0.196,2.073-0.589
				c0.616-0.393,1.017-0.843,1.203-1.35v-1.886h-2.374c-0.853,0-1.535,0.214-2.046,0.643c-0.512,0.429-0.768,0.933-0.768,1.511
				c0,0.514,0.161,0.921,0.483,1.221C84.942,265.077,85.418,265.227,86.049,265.227z"/>
			<path fill="#CCCCCC" d="M96.404,255.161l0.15,1.729c0.387-0.616,0.872-1.094,1.456-1.435c0.583-0.34,1.248-0.51,1.993-0.51
				c1.253,0,2.224,0.367,2.911,1.102s1.031,1.867,1.031,3.399v7.337h-2.116v-7.294c0-1.024-0.203-1.751-0.607-2.181
				c-0.405-0.43-1.022-0.645-1.853-0.645c-0.609,0-1.148,0.146-1.617,0.44c-0.469,0.294-0.843,0.694-1.123,1.203v8.476h-2.116
				v-11.623H96.404z"/>
			<path fill="#CCCCCC" d="M119.629,266.784c-0.072-0.351-0.127-0.66-0.167-0.93c-0.04-0.268-0.063-0.538-0.07-0.811
				c-0.394,0.559-0.908,1.025-1.542,1.402c-0.634,0.375-1.316,0.563-2.046,0.563c-1.21,0-2.132-0.31-2.766-0.929
				s-0.951-1.474-0.951-2.562c0-1.109,0.449-1.979,1.348-2.605c0.898-0.626,2.118-0.939,3.658-0.939h2.299v-1.149
				c0-0.681-0.208-1.22-0.623-1.616c-0.416-0.398-1.003-0.597-1.762-0.597c-0.681,0-1.234,0.174-1.66,0.521
				c-0.426,0.348-0.639,0.766-0.639,1.252h-2.02l-0.021-0.064c-0.043-0.845,0.356-1.618,1.198-2.32
				c0.841-0.701,1.928-1.053,3.26-1.053c1.317,0,2.377,0.335,3.18,1.004c0.802,0.67,1.203,1.635,1.203,2.896v5.597
				c0,0.416,0.021,0.816,0.064,1.203s0.122,0.767,0.236,1.139H119.629z M116.116,265.227c0.766,0,1.457-0.196,2.073-0.589
				c0.616-0.393,1.017-0.843,1.203-1.35v-1.886h-2.374c-0.853,0-1.535,0.214-2.046,0.643c-0.512,0.429-0.768,0.933-0.768,1.511
				c0,0.514,0.161,0.921,0.483,1.221C115.01,265.077,115.486,265.227,116.116,265.227z"/>
			<path fill="#CCCCCC" d="M26.226,274.358v2.804h2.202v1.568h-2.202v7.058c0,0.544,0.113,0.928,0.338,1.149
				c0.226,0.223,0.524,0.333,0.897,0.333c0.122,0,0.256-0.015,0.403-0.043c0.146-0.028,0.277-0.064,0.392-0.107l0.279,1.45
				c-0.158,0.129-0.389,0.234-0.693,0.316c-0.305,0.082-0.611,0.124-0.918,0.124c-0.859,0-1.543-0.259-2.052-0.778
				c-0.509-0.52-0.763-1.334-0.763-2.444v-7.058h-1.848v-1.568h1.848v-2.804H26.226z"/>
			<path fill="#CCCCCC" d="M38.182,288.784c-0.072-0.351-0.127-0.66-0.167-0.93c-0.04-0.268-0.063-0.538-0.07-0.811
				c-0.394,0.559-0.908,1.025-1.542,1.402c-0.634,0.375-1.316,0.563-2.046,0.563c-1.21,0-2.132-0.31-2.766-0.929
				s-0.951-1.474-0.951-2.562c0-1.109,0.449-1.979,1.348-2.605c0.898-0.626,2.118-0.939,3.658-0.939h2.299v-1.149
				c0-0.681-0.208-1.22-0.623-1.616c-0.416-0.398-1.003-0.597-1.762-0.597c-0.681,0-1.234,0.174-1.66,0.521
				c-0.426,0.348-0.639,0.766-0.639,1.252h-2.02l-0.021-0.064c-0.043-0.845,0.356-1.618,1.198-2.32
				c0.841-0.701,1.928-1.053,3.26-1.053c1.317,0,2.377,0.335,3.18,1.004c0.802,0.67,1.203,1.635,1.203,2.896v5.597
				c0,0.416,0.021,0.816,0.064,1.203s0.122,0.767,0.236,1.139H38.182z M34.669,287.227c0.766,0,1.457-0.196,2.073-0.589
				c0.616-0.393,1.017-0.843,1.203-1.35v-1.886h-2.374c-0.853,0-1.535,0.214-2.046,0.643c-0.512,0.429-0.768,0.933-0.768,1.511
				c0,0.514,0.161,0.921,0.483,1.221C33.563,287.077,34.039,287.227,34.669,287.227z"/>
			<path fill="#CCCCCC" d="M46.636,283.402h-1.375v5.382h-2.116v-16.758h2.116v9.711h1.354l3.18-4.576h2.535l-3.975,5.275
				l4.544,6.348h-2.492L46.636,283.402z"/>
			<path fill="#CCCCCC" d="M59.022,289.01c-1.619,0-2.906-0.538-3.862-1.616s-1.434-2.477-1.434-4.195v-0.473
				c0-1.654,0.492-3.031,1.477-4.131c0.984-1.099,2.15-1.648,3.497-1.648c1.568,0,2.753,0.473,3.556,1.418
				c0.802,0.945,1.203,2.206,1.203,3.781v1.321h-7.541l-0.032,0.054c0.021,1.113,0.304,2.029,0.849,2.748
				c0.544,0.717,1.307,1.076,2.288,1.076c0.716,0,1.344-0.102,1.885-0.307c0.541-0.203,1.008-0.484,1.402-0.843l0.827,1.376
				c-0.416,0.412-0.963,0.754-1.644,1.027C60.812,288.873,59.988,289.01,59.022,289.01z M58.699,278.611
				c-0.709,0-1.314,0.298-1.815,0.894c-0.501,0.596-0.81,1.344-0.924,2.243l0.021,0.054h5.36v-0.278
				c0-0.828-0.222-1.521-0.666-2.077C60.231,278.89,59.573,278.611,58.699,278.611z"/>
			<path fill="#CCCCCC" d="M69.936,283.005h-5.264v-1.654h5.264V283.005z"/>
			<path fill="#CCCCCC" d="M74.834,284.552l0.247,1.407h0.064l0.301-1.407l2.32-7.391h1.697l2.331,7.391l0.333,1.568h0.064
				l0.312-1.568l1.826-7.391h2.105l-3.373,11.623h-1.708l-2.245-7.079l-0.483-1.977l-0.064,0.011l-0.462,1.966l-2.213,7.079h-1.708
				l-3.373-11.623h2.105L74.834,284.552z"/>
			<path fill="#CCCCCC" d="M90.797,274.186h-2.116v-2.159h2.116V274.186z M90.797,288.784h-2.116v-11.623h2.116V288.784z"/>
			<path fill="#CCCCCC" d="M96.845,274.358v2.804h2.202v1.568h-2.202v7.058c0,0.544,0.113,0.928,0.338,1.149
				c0.226,0.223,0.524,0.333,0.897,0.333c0.122,0,0.256-0.015,0.403-0.043c0.146-0.028,0.277-0.064,0.392-0.107l0.279,1.45
				c-0.158,0.129-0.389,0.234-0.693,0.316c-0.305,0.082-0.611,0.124-0.918,0.124c-0.859,0-1.543-0.259-2.052-0.778
				c-0.509-0.52-0.763-1.334-0.763-2.444v-7.058h-1.848v-1.568h1.848v-2.804H96.845z"/>
			<path fill="#CCCCCC" d="M103.773,278.719c0.401-0.559,0.893-0.993,1.477-1.306c0.583-0.311,1.23-0.467,1.939-0.467
				c1.239,0,2.204,0.373,2.895,1.117c0.691,0.745,1.037,1.891,1.037,3.438v7.283h-2.116v-7.305c0-0.959-0.206-1.668-0.618-2.127
				c-0.412-0.458-1.026-0.688-1.842-0.688c-0.587,0-1.119,0.139-1.595,0.414c-0.477,0.275-0.869,0.649-1.176,1.122v8.583h-2.116
				v-16.758h2.116V278.719z"/>
			<path fill="#CCCCCC" d="M121.917,274.186h-2.116v-2.159h2.116V274.186z M121.917,288.784h-2.116v-11.623h2.116V288.784z"/>
			<path fill="#CCCCCC" d="M127.965,274.358v2.804h2.202v1.568h-2.202v7.058c0,0.544,0.113,0.928,0.338,1.149
				c0.226,0.223,0.524,0.333,0.897,0.333c0.122,0,0.256-0.015,0.403-0.043c0.146-0.028,0.277-0.064,0.392-0.107l0.279,1.45
				c-0.158,0.129-0.389,0.234-0.693,0.316c-0.305,0.082-0.611,0.124-0.918,0.124c-0.859,0-1.543-0.259-2.052-0.778
				c-0.509-0.52-0.763-1.334-0.763-2.444v-7.058h-1.848v-1.568h1.848v-2.804H127.965z"/>
			<path fill="#CCCCCC" d="M137.601,289.01c-1.619,0-2.906-0.538-3.862-1.616s-1.434-2.477-1.434-4.195v-0.473
				c0-1.654,0.492-3.031,1.477-4.131c0.984-1.099,2.15-1.648,3.497-1.648c1.568,0,2.753,0.473,3.556,1.418
				c0.802,0.945,1.203,2.206,1.203,3.781v1.321h-7.541l-0.032,0.054c0.021,1.113,0.304,2.029,0.849,2.748
				c0.544,0.717,1.307,1.076,2.288,1.076c0.716,0,1.344-0.102,1.885-0.307c0.541-0.203,1.008-0.484,1.402-0.843l0.827,1.376
				c-0.416,0.412-0.963,0.754-1.644,1.027C139.391,288.873,138.567,289.01,137.601,289.01z M137.278,278.611
				c-0.709,0-1.314,0.298-1.815,0.894c-0.501,0.596-0.81,1.344-0.924,2.243l0.021,0.054h5.36v-0.278
				c0-0.828-0.222-1.521-0.666-2.077C138.811,278.89,138.152,278.611,137.278,278.611z"/>
			<path fill="#CCCCCC" d="M146.302,277.161l0.15,1.525c0.379-0.551,0.861-0.979,1.445-1.283c0.583-0.305,1.262-0.457,2.036-0.457
				s1.438,0.18,1.993,0.537c0.555,0.358,0.972,0.896,1.251,1.611c0.365-0.658,0.849-1.182,1.45-1.568s1.303-0.58,2.105-0.58
				c1.182,0,2.116,0.406,2.804,1.219c0.688,0.813,1.031,2.036,1.031,3.669v6.95h-2.116v-6.972c0-1.146-0.197-1.956-0.591-2.433
				c-0.394-0.477-0.981-0.715-1.762-0.715c-0.724,0-1.309,0.251-1.756,0.752c-0.448,0.502-0.711,1.135-0.79,1.901v0.086v7.38h-2.127
				v-6.972c0-1.089-0.203-1.886-0.607-2.39c-0.405-0.506-0.987-0.758-1.746-0.758c-0.645,0-1.175,0.133-1.59,0.397
				c-0.416,0.265-0.734,0.638-0.956,1.117v8.604h-2.116v-11.623H146.302z"/>
		</g>
		<g>
			<path fill="#CCCCCC" d="M450.369,265.119h7.401v1.665h-9.518v-15.641h2.116V265.119z"/>
			<path fill="#CCCCCC" d="M459.242,260.865c0-1.719,0.466-3.135,1.396-4.249c0.931-1.113,2.195-1.67,3.792-1.67
				c1.611,0,2.885,0.555,3.819,1.665s1.401,2.528,1.401,4.254v0.236c0,1.733-0.466,3.151-1.396,4.254s-2.198,1.654-3.803,1.654
				s-2.873-0.554-3.808-1.659c-0.935-1.107-1.402-2.523-1.402-4.249V260.865z M461.358,261.097c0,1.229,0.26,2.246,0.779,3.047
				c0.519,0.801,1.29,1.201,2.314,1.201c1.01,0,1.776-0.4,2.299-1.201s0.784-1.817,0.784-3.047v-0.236
				c0-1.217-0.263-2.229-0.789-3.037c-0.526-0.808-1.299-1.212-2.315-1.212c-1.01,0-1.774,0.404-2.293,1.212
				c-0.52,0.809-0.779,1.82-0.779,3.037V261.097z"/>
			<path fill="#CCCCCC" d="M471.746,260.865c0-1.719,0.466-3.135,1.396-4.249c0.931-1.113,2.195-1.67,3.792-1.67
				c1.611,0,2.885,0.555,3.819,1.665s1.401,2.528,1.401,4.254v0.236c0,1.733-0.466,3.151-1.396,4.254s-2.198,1.654-3.803,1.654
				s-2.873-0.554-3.808-1.659c-0.935-1.107-1.402-2.523-1.402-4.249V260.865z M473.862,261.097c0,1.229,0.26,2.246,0.779,3.047
				c0.519,0.801,1.29,1.201,2.314,1.201c1.01,0,1.776-0.4,2.299-1.201s0.784-1.817,0.784-3.047v-0.236
				c0-1.217-0.263-2.229-0.789-3.037c-0.526-0.808-1.299-1.212-2.315-1.212c-1.01,0-1.774,0.404-2.293,1.212
				c-0.52,0.809-0.779,1.82-0.779,3.037V261.097z"/>
			<path fill="#CCCCCC" d="M488.246,261.402h-1.375v5.382h-2.116v-16.758h2.116v9.711h1.354l3.18-4.576h2.535l-3.975,5.275
				l4.544,6.348h-2.492L488.246,261.402z"/>
			<path fill="#CCCCCC" d="M508.871,265.066c-0.365,0.623-0.834,1.104-1.407,1.439s-1.235,0.505-1.987,0.505
				c-1.268,0-2.256-0.404-2.965-1.214c-0.709-0.809-1.063-2.069-1.063-3.781v-6.854h2.116v6.875c0,1.239,0.183,2.092,0.548,2.557
				c0.365,0.466,0.935,0.698,1.708,0.698c0.752,0,1.373-0.151,1.864-0.456c0.49-0.305,0.86-0.736,1.111-1.295v-8.379h2.116v11.623
				h-1.901L508.871,265.066z"/>
			<path fill="#CCCCCC" d="M523.899,261.413c0,1.676-0.401,3.027-1.203,4.055c-0.802,1.028-1.908,1.542-3.319,1.542
				c-0.716,0-1.345-0.12-1.885-0.36c-0.541-0.239-1.001-0.6-1.381-1.079v5.683h-2.116v-16.092h1.622l0.333,1.504
				c0.38-0.559,0.853-0.984,1.418-1.278s1.225-0.44,1.977-0.44c1.439,0,2.559,0.571,3.357,1.713
				c0.798,1.143,1.197,2.652,1.197,4.528V261.413z M521.783,261.183c0-1.316-0.26-2.398-0.778-3.246
				c-0.52-0.848-1.284-1.271-2.294-1.271c-0.608,0-1.128,0.138-1.558,0.413s-0.777,0.653-1.042,1.132v5.611
				c0.265,0.479,0.612,0.854,1.042,1.121s0.956,0.402,1.579,0.402c1.003,0,1.762-0.367,2.277-1.1
				c0.516-0.733,0.773-1.68,0.773-2.838V261.183z"/>
			<path fill="#CCCCCC" d="M539.11,266.784c-0.071-0.351-0.127-0.66-0.166-0.93c-0.04-0.268-0.063-0.538-0.07-0.811
				c-0.394,0.559-0.907,1.025-1.541,1.402c-0.634,0.375-1.316,0.563-2.047,0.563c-1.21,0-2.132-0.31-2.766-0.929
				s-0.951-1.474-0.951-2.562c0-1.109,0.449-1.979,1.349-2.605c0.898-0.626,2.117-0.939,3.657-0.939h2.299v-1.149
				c0-0.681-0.208-1.22-0.623-1.616c-0.415-0.398-1.003-0.597-1.762-0.597c-0.681,0-1.233,0.174-1.659,0.521
				c-0.427,0.348-0.64,0.766-0.64,1.252h-2.02l-0.021-0.064c-0.043-0.845,0.356-1.618,1.198-2.32
				c0.841-0.701,1.928-1.053,3.26-1.053c1.317,0,2.378,0.335,3.18,1.004c0.802,0.67,1.203,1.635,1.203,2.896v5.597
				c0,0.416,0.021,0.816,0.064,1.203s0.122,0.767,0.236,1.139H539.11z M535.598,265.227c0.767,0,1.457-0.196,2.073-0.589
				s1.017-0.843,1.203-1.35v-1.886H536.5c-0.853,0-1.534,0.214-2.046,0.643c-0.513,0.429-0.769,0.933-0.769,1.511
				c0,0.514,0.161,0.921,0.483,1.221C534.491,265.077,534.968,265.227,535.598,265.227z"/>
			<path fill="#CCCCCC" d="M459.699,277.161l0.15,1.525c0.379-0.551,0.86-0.979,1.444-1.283s1.263-0.457,2.036-0.457
				s1.438,0.18,1.992,0.537c0.555,0.358,0.973,0.896,1.252,1.611c0.365-0.658,0.849-1.182,1.45-1.568s1.303-0.58,2.105-0.58
				c1.182,0,2.116,0.406,2.804,1.219c0.688,0.813,1.031,2.036,1.031,3.669v6.95h-2.116v-6.972c0-1.146-0.197-1.956-0.591-2.433
				c-0.395-0.477-0.981-0.715-1.762-0.715c-0.724,0-1.31,0.251-1.757,0.752c-0.447,0.502-0.711,1.135-0.789,1.901v0.086v7.38h-2.127
				v-6.972c0-1.089-0.203-1.886-0.607-2.39c-0.404-0.506-0.986-0.758-1.745-0.758c-0.645,0-1.175,0.133-1.59,0.397
				c-0.416,0.265-0.734,0.638-0.956,1.117v8.604h-2.116v-11.623H459.699z"/>
			<path fill="#CCCCCC" d="M481.86,289.01c-1.619,0-2.906-0.538-3.862-1.616s-1.434-2.477-1.434-4.195v-0.473
				c0-1.654,0.492-3.031,1.477-4.131c0.984-1.099,2.15-1.648,3.497-1.648c1.568,0,2.753,0.473,3.556,1.418
				c0.802,0.945,1.203,2.206,1.203,3.781v1.321h-7.541l-0.032,0.054c0.021,1.113,0.304,2.029,0.849,2.748
				c0.544,0.717,1.307,1.076,2.288,1.076c0.716,0,1.344-0.102,1.885-0.307c0.541-0.203,1.008-0.484,1.402-0.843l0.827,1.376
				c-0.416,0.412-0.964,0.754-1.644,1.027C483.65,288.873,482.827,289.01,481.86,289.01z M481.538,278.611
				c-0.709,0-1.314,0.298-1.815,0.894c-0.502,0.596-0.81,1.344-0.924,2.243l0.021,0.054h5.36v-0.278
				c0-0.828-0.223-1.521-0.666-2.077C483.07,278.89,482.411,278.611,481.538,278.611z"/>
			<path fill="#CCCCCC" d="M490.562,277.161l0.15,1.525c0.379-0.551,0.86-0.979,1.444-1.283s1.263-0.457,2.036-0.457
				s1.438,0.18,1.992,0.537c0.555,0.358,0.973,0.896,1.252,1.611c0.365-0.658,0.849-1.182,1.45-1.568s1.303-0.58,2.105-0.58
				c1.182,0,2.116,0.406,2.804,1.219c0.688,0.813,1.031,2.036,1.031,3.669v6.95h-2.116v-6.972c0-1.146-0.197-1.956-0.591-2.433
				c-0.395-0.477-0.981-0.715-1.762-0.715c-0.724,0-1.31,0.251-1.757,0.752c-0.447,0.502-0.711,1.135-0.789,1.901v0.086v7.38h-2.127
				v-6.972c0-1.089-0.203-1.886-0.607-2.39c-0.404-0.506-0.986-0.758-1.745-0.758c-0.645,0-1.175,0.133-1.59,0.397
				c-0.416,0.265-0.734,0.638-0.956,1.117v8.604h-2.116v-11.623H490.562z"/>
			<path fill="#CCCCCC" d="M517.825,283.413c0,1.676-0.403,3.027-1.209,4.055c-0.806,1.028-1.914,1.542-3.324,1.542
				c-0.767,0-1.433-0.149-1.998-0.446c-0.566-0.297-1.035-0.735-1.407-1.315l-0.258,1.536h-1.729v-16.758h2.116v6.51
				c0.365-0.516,0.817-0.909,1.358-1.182c0.541-0.271,1.173-0.408,1.896-0.408c1.432,0,2.549,0.573,3.352,1.719
				c0.802,1.146,1.203,2.653,1.203,4.522V283.413z M515.709,283.188c0-1.332-0.246-2.419-0.736-3.261
				c-0.49-0.841-1.237-1.262-2.239-1.262c-0.652,0-1.202,0.16-1.649,0.479s-0.804,0.746-1.068,1.283v5.038
				c0.271,0.573,0.628,1.021,1.068,1.343s0.997,0.483,1.671,0.483c0.995,0,1.736-0.354,2.224-1.063
				c0.486-0.709,0.73-1.646,0.73-2.814V283.188z"/>
			<path fill="#CCCCCC" d="M525.227,289.01c-1.619,0-2.906-0.538-3.862-1.616s-1.434-2.477-1.434-4.195v-0.473
				c0-1.654,0.492-3.031,1.477-4.131c0.984-1.099,2.15-1.648,3.497-1.648c1.568,0,2.753,0.473,3.556,1.418
				c0.802,0.945,1.203,2.206,1.203,3.781v1.321h-7.541l-0.032,0.054c0.021,1.113,0.304,2.029,0.849,2.748
				c0.544,0.717,1.307,1.076,2.288,1.076c0.716,0,1.344-0.102,1.885-0.307c0.541-0.203,1.008-0.484,1.402-0.843l0.827,1.376
				c-0.416,0.412-0.964,0.754-1.644,1.027C527.017,288.873,526.193,289.01,525.227,289.01z M524.904,278.611
				c-0.709,0-1.314,0.298-1.815,0.894c-0.502,0.596-0.81,1.344-0.924,2.243l0.021,0.054h5.36v-0.278
				c0-0.828-0.223-1.521-0.666-2.077C526.437,278.89,525.777,278.611,524.904,278.611z"/>
			<path fill="#CCCCCC" d="M537.537,279.03l-1.085-0.064c-0.559,0-1.03,0.133-1.413,0.397s-0.679,0.638-0.886,1.117v8.304h-2.116
				v-11.623h1.891l0.204,1.697c0.329-0.602,0.735-1.07,1.219-1.407s1.04-0.505,1.671-0.505c0.157,0,0.308,0.013,0.451,0.037
				c0.143,0.025,0.261,0.053,0.354,0.081L537.537,279.03z"/>
		</g>
		<g>
			<g>
				<g>
					<g>
						<g>
							<g>
								<path fill="#CCCCCC" d="M95.82,202.973L95.82,202.973c-2.105,0-4.041-0.775-5.311-2.124l-51.796-55.082
									c-1.117-1.188-1.635-2.713-1.458-4.295c0.201-1.806,1.299-3.507,3.013-4.665l0.114-0.067l29.376-14.646
									c1.391-0.924,3.089-1.433,4.788-1.433c2.105,0,4.041,0.775,5.312,2.127l53.411,48.673c1.607,1.704,1.978,3.945,1.047,6.049
									c-0.084,0.19-0.178,0.376-0.281,0.56c-0.542,0.945-1.301,1.751-2.265,2.403l-31.104,21.028
									C99.266,202.451,97.544,202.973,95.82,202.973z M41.335,138.499c-1.197,0.828-1.958,1.989-2.093,3.194
									c-0.112,1.004,0.209,1.939,0.928,2.704l51.796,55.082c0.894,0.95,2.298,1.495,3.853,1.495c1.329,0,2.652-0.401,3.727-1.128
									l31.104-21.028c0.708-0.479,1.261-1.062,1.645-1.731c0.068-0.122,0.134-0.255,0.194-0.388
									c0.593-1.341,0.361-2.768-0.622-3.813l-53.411-48.673c-0.949-1.005-2.354-1.551-3.91-1.551c-1.327,0-2.65,0.4-3.724,1.127
									l-0.114,0.067L41.335,138.499z"/>
							</g>
						</g>
					</g>
					<g>
						<g>
							<path fill="#CCCCCC" d="M89.361,194.101l-45.972-48.889l35.119-18.239l47.631,42.261L89.361,194.101z M46.658,145.769
								l42.993,45.722l33.234-22.47l-44.675-39.638L46.658,145.769z"/>
						</g>
					</g>
					<g>
						<g>
							<path fill="#CCCCCC" d="M97.509,208.738c-3.56,0-6.824-1.299-8.954-3.565l-53.907-57.326
								c-1.841-1.958-2.696-4.471-2.407-7.074c0.335-3.011,2.18-5.855,5.063-7.805l0.117-0.068l28.584-14.111
								c2.376-1.589,5.284-2.464,8.197-2.464c3.56,0,6.824,1.299,8.954,3.565l55.524,50.92c1.894,2.01,2.749,4.523,2.459,7.127
								c-0.335,3.01-2.18,5.855-5.062,7.804l-30.313,20.495C103.376,207.85,100.445,208.738,97.509,208.738z M38.369,134.663
								c-2.365,1.619-3.872,3.923-4.14,6.332c-0.224,2.011,0.442,3.958,1.876,5.483l53.907,57.326
								c1.754,1.865,4.487,2.935,7.497,2.935c2.541,0,5.074-0.767,7.133-2.159l30.313-20.495c2.396-1.62,3.925-3.941,4.195-6.368
								c0.224-2.012-0.442-3.959-1.875-5.484l-55.523-50.92c-1.807-1.917-4.539-2.987-7.55-2.987c-2.541,0-5.075,0.767-7.134,2.159
								l-0.117,0.068L38.369,134.663z"/>
						</g>
					</g>
					<g>
						<g>
							<path fill="#CCCCCC" d="M97.524,215.352c-3.446,0-6.763-1.203-8.969-3.549l-53.907-57.327
								c-1.628-1.732-2.479-3.859-2.461-6.152l0-6.617l2,0l0,6.625c-0.014,1.776,0.65,3.425,1.918,4.775l53.907,57.326
								c3.382,3.595,9.945,3.944,14.631,0.776l30.313-20.495c2.728-1.844,4.311-4.583,4.235-7.327v-6.617l2,0l0,6.589
								c0.094,3.403-1.818,6.781-5.115,9.011l-30.313,20.495C103.294,214.534,100.365,215.352,97.524,215.352z"/>
						</g>
					</g>
				</g>
				<g>
					<g>
						<path fill="#FFFFFF" d="M33.465,160.364c0.473,3.647,3.815,6.222,7.463,5.749l4.854-0.631
							c3.649-0.472,6.223-3.813,5.749-7.463l0,0c-0.474-3.648-3.814-6.221-7.462-5.749l-4.854,0.63
							C35.567,153.374,32.993,156.716,33.465,160.364L33.465,160.364z"/>
					</g>
					<g>
						<path fill="#CCCCCC" d="M40.063,167.169L40.063,167.169c-3.833,0-7.096-2.87-7.59-6.676c-0.542-4.189,2.423-8.04,6.612-8.585
							l4.854-0.63c4.246-0.548,8.046,2.481,8.583,6.612c0.264,2.03-0.278,4.041-1.527,5.662c-1.249,1.622-3.055,2.659-5.084,2.921
							l-4.853,0.631C40.723,167.148,40.392,167.169,40.063,167.169z M44.93,153.214c-0.242,0-0.487,0.016-0.734,0.047l-4.853,0.63
							c-3.095,0.402-5.287,3.248-4.886,6.344c0.365,2.812,2.775,4.933,5.606,4.933l0,0c0.243,0,0.489-0.016,0.736-0.048l4.853-0.631
							c1.5-0.194,2.834-0.96,3.757-2.158c0.923-1.198,1.324-2.684,1.128-4.184C50.173,155.335,47.762,153.214,44.93,153.214z"/>
					</g>
				</g>
				<g>
					<g>
						<path fill="#FFFFFF" d="M41.541,171.4c0.473,3.648,3.815,6.222,7.463,5.748l4.853-0.63c3.649-0.474,6.222-3.815,5.749-7.463
							l0,0c-0.474-3.648-3.815-6.223-7.462-5.749l-4.854,0.63C43.641,164.407,41.067,167.75,41.541,171.4L41.541,171.4z"/>
					</g>
					<g>
						<path fill="#CCCCCC" d="M48.138,178.204L48.138,178.204c-3.833,0-7.095-2.87-7.588-6.676c-0.264-2.03,0.279-4.041,1.528-5.663
							c1.249-1.622,3.055-2.659,5.084-2.922l4.853-0.63c4.239-0.551,8.046,2.48,8.583,6.612c0.543,4.189-2.423,8.039-6.612,8.584
							l-4.853,0.63C48.798,178.183,48.466,178.204,48.138,178.204z M53.009,164.249c-0.243,0-0.489,0.016-0.736,0.048l-4.854,0.63
							c-1.5,0.194-2.834,0.961-3.757,2.159c-0.923,1.198-1.324,2.684-1.129,4.185c0.365,2.812,2.774,4.933,5.604,4.933c0,0,0,0,0,0
							c0.244,0,0.489-0.016,0.737-0.048l4.853-0.63c3.096-0.402,5.288-3.248,4.886-6.343
							C58.249,166.37,55.839,164.249,53.009,164.249z"/>
					</g>
				</g>
				<g>
					<g>
						<path fill="#FFFFFF" d="M49.616,182.434c0.473,3.647,3.816,6.222,7.464,5.748l4.854-0.628
							c3.648-0.475,6.222-3.816,5.748-7.463l0,0c-0.473-3.648-3.815-6.223-7.463-5.751l-4.853,0.63
							C51.717,175.444,49.143,178.785,49.616,182.434L49.616,182.434z"/>
					</g>
					<g>
						<path fill="#CCCCCC" d="M56.214,189.239L56.214,189.239c-3.833,0-7.096-2.87-7.59-6.676c-0.543-4.19,2.423-8.041,6.613-8.585
							l4.852-0.63c4.243-0.549,8.049,2.482,8.584,6.614c0.544,4.188-2.422,8.038-6.611,8.583l-4.854,0.629
							C56.874,189.217,56.542,189.239,56.214,189.239z M61.081,175.284c-0.243,0-0.488,0.016-0.734,0.048l-4.852,0.63
							c-3.096,0.402-5.289,3.248-4.887,6.344c0.365,2.812,2.775,4.933,5.606,4.933h0c0.243,0,0.489-0.016,0.736-0.048l4.854-0.628
							c3.095-0.403,5.287-3.248,4.885-6.343C66.325,177.406,63.914,175.284,61.081,175.284z"/>
					</g>
				</g>
				<g>
					<g>
						<path fill="#FFFFFF" d="M57.691,193.47c0.473,3.648,3.815,6.222,7.463,5.748l4.854-0.631c3.649-0.472,6.221-3.814,5.748-7.463
							l0,0c-0.473-3.648-3.815-6.222-7.463-5.748l-4.853,0.63C59.791,186.478,57.217,189.82,57.691,193.47L57.691,193.47z"/>
					</g>
					<g>
						<path fill="#CCCCCC" d="M64.288,200.275L64.288,200.275c-3.833,0-7.095-2.87-7.588-6.676c-0.264-2.03,0.279-4.041,1.528-5.663
							s3.055-2.659,5.084-2.921l4.852-0.63c4.237-0.55,8.048,2.479,8.584,6.611c0.263,2.03-0.279,4.041-1.528,5.662
							c-1.248,1.622-3.054,2.659-5.083,2.922l-4.853,0.631C64.949,200.254,64.617,200.275,64.288,200.275z M69.159,186.32
							c-0.244,0-0.489,0.016-0.737,0.048l-4.853,0.63c-1.5,0.194-2.835,0.961-3.757,2.159c-0.923,1.198-1.324,2.684-1.129,4.185
							c0.364,2.812,2.774,4.933,5.604,4.933l0,0c0.244,0,0.49-0.016,0.738-0.048l4.854-0.631c1.5-0.194,2.834-0.96,3.756-2.158
							c0.922-1.198,1.323-2.684,1.129-4.184C74.399,188.441,71.99,186.32,69.159,186.32z"/>
					</g>
				</g>
				<g>
					<g>
						<g>
							<path fill="#FFFFFF" d="M187.335,177.623l-31.038-13.75c-1.648-4.965-13.218-27.345-27.855-35.836l-34.525-14.09
								c-4.216-1.72-9.028,0.304-10.749,4.52c-1.72,4.216,0.302,9.027,4.518,10.747l24.266,9.902
								c-0.536,2.515-0.592,5.35-0.184,8.371l26.234,24.06c0,0,2.188,1.954,2.188,5.357"/>
						</g>
						<g>
							<path fill="#CCCCCC" d="M187.335,178.623c-0.135,0-0.273-0.028-0.405-0.086l-31.442-13.929l-0.14-0.42
								c-1.62-4.88-13.011-26.891-27.348-35.252L93.54,114.872c-3.697-1.509-7.935,0.273-9.445,3.972
								c-0.731,1.792-0.721,3.761,0.029,5.544c0.749,1.784,2.149,3.169,3.941,3.899l25.04,10.219l-0.174,0.818
								c-0.489,2.296-0.562,4.875-0.217,7.672l25.965,23.813c0.093,0.083,2.512,2.287,2.512,6.094c0,0.552-0.448,1-1,1
								c-0.552,0-1-0.448-1-1c0-2.884-1.782-4.546-1.858-4.615l-26.506-24.309l-0.049-0.359c-0.383-2.835-0.37-5.484,0.039-7.889
								l-23.508-9.593c-2.286-0.933-4.072-2.7-5.029-4.976c-0.957-2.276-0.97-4.789-0.037-7.075
								c1.926-4.721,7.332-6.993,12.052-5.068l34.649,14.151c14.466,8.393,26.021,30.189,28.153,35.962l30.643,13.575
								c0.505,0.224,0.733,0.814,0.509,1.319C188.084,178.401,187.718,178.623,187.335,178.623z"/>
						</g>
					</g>
					<g>
						<g>
							<path fill="#FFFFFF" d="M170.687,214.367l-28.731-12.532c0,0-10.998,1.735-20.846-0.552"/>
						</g>
						<g>
							<path fill="#CCCCCC" d="M170.686,215.367c-0.133,0-0.269-0.027-0.399-0.084l-28.468-12.417
								c-1.856,0.265-11.79,1.515-20.936-0.609c-0.538-0.125-0.873-0.662-0.748-1.2c0.125-0.538,0.663-0.873,1.2-0.748
								c9.537,2.215,20.356,0.555,20.464,0.538l0.288-0.045l28.999,12.649c0.506,0.221,0.737,0.81,0.517,1.316
								C171.439,215.143,171.072,215.367,170.686,215.367z"/>
						</g>
					</g>
				</g>
			</g>
			<g>
				<g>
					<g>
						<path fill="#CCCCCC" d="M15.341,123.629c-0.552,0-1-0.448-1-1v-21.206c0-0.552,0.448-1,1-1c0.552,0,1,0.448,1,1v21.206
							C16.341,123.181,15.893,123.629,15.341,123.629z"/>
					</g>
				</g>
				<g>
					<g>
						<path fill="#CCCCCC" d="M17.693,122.663c-0.552,0-1-0.448-1-1v-21.205c0-0.552,0.448-1,1-1c0.552,0,1,0.448,1,1v21.205
							C18.693,122.215,18.246,122.663,17.693,122.663z"/>
					</g>
				</g>
				<g>
					<g>
						<path fill="#CCCCCC" d="M20.047,121.697c-0.552,0-1-0.448-1-1V99.492c0-0.552,0.448-1,1-1c0.552,0,1,0.448,1,1v21.205
							C21.047,121.249,20.599,121.697,20.047,121.697z"/>
					</g>
				</g>
				<g>
					<g>
						<path fill="#CCCCCC" d="M24.751,119.766c-0.552,0-1-0.448-1-1V97.561c0-0.552,0.448-1,1-1c0.552,0,1,0.448,1,1v21.205
							C25.751,119.319,25.304,119.766,24.751,119.766z"/>
					</g>
				</g>
				<g>
					<g>
						<path fill="#CCCCCC" d="M29.457,117.835c-0.552,0-1-0.448-1-1V95.63c0-0.552,0.448-1,1-1c0.552,0,1,0.448,1,1v21.205
							C30.457,117.387,30.01,117.835,29.457,117.835z"/>
					</g>
				</g>
				<g>
					<g>
						<path fill="#CCCCCC" d="M31.811,116.869c-0.552,0-1-0.448-1-1V94.664c0-0.552,0.448-1,1-1c0.552,0,1,0.448,1,1v21.205
							C32.811,116.421,32.364,116.869,31.811,116.869z"/>
					</g>
				</g>
				<g>
					<g>
						<path fill="#CCCCCC" d="M34.163,115.904c-0.552,0-1-0.448-1-1V93.698c0-0.552,0.448-1,1-1c0.552,0,1,0.448,1,1v21.206
							C35.163,115.456,34.715,115.904,34.163,115.904z"/>
					</g>
				</g>
				<g>
					<g>
						<path fill="#CCCCCC" d="M38.87,113.972c-0.552,0-1-0.448-1-1V91.767c0-0.552,0.448-1,1-1c0.552,0,1,0.448,1,1v21.205
							C39.87,113.525,39.422,113.972,38.87,113.972z"/>
					</g>
				</g>
				<g>
					<g>
						<path fill="#CCCCCC" d="M41.224,113.006c-0.552,0-1-0.448-1-1V90.801c0-0.552,0.448-1,1-1c0.552,0,1,0.448,1,1v21.205
							C42.224,112.558,41.776,113.006,41.224,113.006z"/>
					</g>
				</g>
				<g>
					<g>
						<path fill="#CCCCCC" d="M45.929,111.075c-0.552,0-1-0.448-1-1V88.87c0-0.552,0.448-1,1-1c0.552,0,1,0.448,1,1v21.205
							C46.929,110.628,46.481,111.075,45.929,111.075z"/>
					</g>
				</g>
				<g>
					<g>
						<path fill="#CCCCCC" d="M50.635,109.144c-0.552,0-1-0.448-1-1V86.939c0-0.552,0.448-1,1-1c0.552,0,1,0.448,1,1v21.206
							C51.635,108.697,51.187,109.144,50.635,109.144z"/>
					</g>
				</g>
			</g>
			<g>
				<g>
					<path fill="#CCCCCC" d="M1.001,119.767c-0.388,0-0.757-0.227-0.92-0.607c-0.217-0.508,0.018-1.095,0.526-1.313l63.059-27
						c0.508-0.217,1.095,0.018,1.313,0.526c0.217,0.508-0.018,1.095-0.526,1.313L1.394,119.686
						C1.266,119.741,1.132,119.767,1.001,119.767z"/>
				</g>
			</g>
		</g>
		<g>
			<g>
				<g>
					<g>
						<g>
							<path fill="#CCCCCC" d="M521.847,117.706l-2.271-0.253c0.018-0.204,2.052-21.043-10.223-22.601
								c-3.726-0.475-6.723,0.304-8.902,2.288c-4.296,3.924-4.956,11.892-4.759,17.921l-2.299,0.061
								c-0.204-6.487,0.575-15.152,5.516-19.67c2.693-2.466,6.309-3.438,10.723-2.873
								C524.142,94.39,521.945,116.726,521.847,117.706"/>
						</g>
					</g>
				</g>
				<g>
					<g>
						<g>
							<path fill="#CCCCCC" d="M491.643,125.219l-2.293-0.082c0.007-0.257,0.756-26.1-10.693-27.68
								c-4.423-0.579-7.778,0.239-10.217,2.563c-3.966,3.721-5.54,11.416-4.675,22.862l-2.295,0.143
								c-0.923-12.336,0.836-20.399,5.392-24.656c2.94-2.792,7.011-3.85,12.103-3.156
								C492.451,97.038,491.684,124.068,491.643,125.219"/>
						</g>
					</g>
				</g>
				<g>
					<g>
						<g>
							<g>
								<path fill="#CCCCCC" d="M543.157,116.294l-29.501-4.829c0,0-3.746,3.128-7.068,2.416c-3.326-0.708-3.782-3.814-3.782-3.814
									l-22.885-4.836l-11.86,3.896h-25.383l31.714,35.977l68.766-10.584V116.294z"/>
							</g>
						</g>
					</g>
					<g>
						<g>
							<g>
								<path fill="#CCCCCC" d="M506.088,230.284V120.916l37.573-5.861v107.224L506.088,230.284z M507.088,121.772v107.276
									l35.573-7.579V116.223L507.088,121.772z"/>
							</g>
						</g>
					</g>
					<g>
						<g>
							<g>
								<path fill="#FFFFFF" d="M506.588,121.995l-24.654-3.85c0,0-2.197,2.795-6.095,1.941c-3.877-0.826-4.974-3.178-4.974-3.178
									l-28.187-7.781l-0.463,95.969l64.373,25.842V121.995z"/>
							</g>
							<g>
								<path fill="#CCCCCC" d="M507.588,232.418l-66.376-26.647l0.473-97.956l29.892,8.252l0.195,0.418
									c0.034,0.067,0.993,1.923,4.276,2.623c0.427,0.093,0.846,0.14,1.25,0.14c2.432,0,3.796-1.656,3.854-1.726l0.362-0.449
									l0.574,0.084l25.5,3.982V232.418z M443.218,204.421l62.37,25.038V122.851l-23.287-3.636
									c-0.744,0.718-2.454,2.034-5.002,2.034c-0.548,0-1.111-0.062-1.673-0.186c-3.319-0.707-4.855-2.471-5.411-3.297
									l-26.543-7.327L443.218,204.421z"/>
							</g>
						</g>
					</g>
					<g>
						<g>
							<g>
								<polygon fill="#FFFFFF" points="543.157,223.143 506.588,230.939 506.588,121.995 520.71,118.159 543.157,116.908 								
									"/>
							</g>
							<g>
								<path fill="#CCCCCC" d="M505.588,232.174V121.23l15.067-4.069l23.503-1.31v108.101L505.588,232.174z M507.588,122.76
									v106.943l34.569-7.369V117.966l-21.286,1.186L507.588,122.76z"/>
							</g>
						</g>
					</g>
				</g>
			</g>
			<g>
				<g enable-background="new    ">
					<g>
						<g>
							<g>
								<path fill="#CCCCCC" d="M456.305,165.246l0.268,0.116c0.314,0.153,0.607,0.382,0.866,0.664
									c0.259,0.282,0.486,0.619,0.67,0.99c0.183,0.37,0.323,0.773,0.409,1.188c0.086,0.415,0.117,0.842,0.085,1.261
									c-0.017,0.186-0.046,0.362-0.086,0.528c-0.04,0.166-0.092,0.32-0.154,0.464s-0.133,0.275-0.213,0.393
									c-0.08,0.119-0.169,0.225-0.265,0.317c-0.104,0.1-0.217,0.184-0.337,0.251c-0.12,0.066-0.247,0.115-0.381,0.146
									c-0.133,0.031-0.272,0.042-0.415,0.034c-0.143-0.008-0.29-0.037-0.44-0.086l-0.196-0.029
									c-0.036-0.005-0.077-0.008-0.119-0.008c-0.043,0-0.089,0.002-0.137,0.008c-0.048,0.005-0.098,0.013-0.148,0.024
									c-0.051,0.011-0.102,0.026-0.154,0.044c-0.108,0.034-0.221,0.078-0.336,0.143c-0.115,0.065-0.231,0.152-0.349,0.273
									c-0.118,0.121-0.236,0.275-0.354,0.477c-0.118,0.201-0.235,0.448-0.349,0.755c-0.073,0.207-0.144,0.446-0.208,0.719
									c-0.065,0.274-0.124,0.583-0.174,0.934c-0.051,0.35-0.092,0.741-0.121,1.177c-0.029,0.436-0.047,0.918-0.049,1.451
									l-0.063,16.837c-0.002,0.434-0.068,0.826-0.185,1.161c-0.117,0.336-0.287,0.617-0.496,0.83
									c-0.209,0.213-0.458,0.359-0.734,0.424c-0.276,0.066-0.579,0.051-0.898-0.056c-0.313-0.106-0.612-0.294-0.884-0.544
									c-0.272-0.25-0.517-0.562-0.723-0.914c-0.206-0.353-0.372-0.747-0.486-1.16c-0.115-0.414-0.177-0.848-0.176-1.282
									l0.059-16.822c0.003-0.701,0.025-1.361,0.068-1.984c0.042-0.622,0.104-1.207,0.184-1.755c0.08-0.549,0.179-1.062,0.296-1.54
									c0.116-0.479,0.251-0.924,0.401-1.338c0.146-0.415,0.308-0.796,0.483-1.145c0.176-0.349,0.365-0.665,0.564-0.951
									c0.199-0.285,0.409-0.539,0.626-0.762c0.216-0.224,0.44-0.417,0.667-0.58c0.238-0.168,0.475-0.305,0.708-0.416
									c0.233-0.111,0.462-0.196,0.685-0.26c0.222-0.064,0.437-0.107,0.643-0.134c0.206-0.027,0.402-0.038,0.585-0.038
									c0.167,0,0.323,0.009,0.466,0.023c0.144,0.015,0.275,0.034,0.391,0.055c0.116,0.022,0.218,0.045,0.303,0.065
									C456.188,165.214,456.256,165.233,456.305,165.246z"/>
							</g>
						</g>
					</g>
					<g>
						<g>
							<g>
								<path fill="#CCCCCC" d="M489.258,176.125c0.047,0.02,0.11,0.045,0.187,0.076c0.076,0.031,0.166,0.07,0.268,0.117
									c0.102,0.047,0.215,0.103,0.34,0.169c0.124,0.066,0.259,0.142,0.403,0.231c0.108,0.066,0.221,0.139,0.338,0.22
									c0.117,0.081,0.238,0.169,0.364,0.266c0.125,0.097,0.255,0.202,0.387,0.317c0.132,0.114,0.268,0.238,0.407,0.372
									c0.329,0.307,0.67,0.676,1.01,1.107c0.341,0.43,0.681,0.922,1.007,1.473c0.326,0.55,0.638,1.161,0.922,1.827
									c0.284,0.667,0.541,1.392,0.756,2.172c0.144,0.515,0.272,1.052,0.383,1.611c0.111,0.559,0.204,1.141,0.279,1.747
									c0.075,0.606,0.131,1.236,0.168,1.891c0.037,0.655,0.053,1.335,0.049,2.042l-0.104,16.973
									c-0.003,0.437-0.071,0.832-0.191,1.17c-0.121,0.338-0.293,0.621-0.506,0.836c-0.212,0.215-0.464,0.361-0.743,0.427
									c-0.278,0.066-0.583,0.051-0.902-0.056c-0.319-0.107-0.623-0.298-0.899-0.551c-0.276-0.253-0.525-0.568-0.734-0.924
									c-0.208-0.356-0.377-0.754-0.492-1.171c-0.116-0.418-0.179-0.855-0.176-1.292l0.099-16.958
									c0.003-0.502-0.009-0.969-0.032-1.404c-0.023-0.435-0.058-0.838-0.102-1.209c-0.044-0.372-0.096-0.713-0.154-1.025
									c-0.058-0.312-0.122-0.595-0.189-0.851c-0.067-0.256-0.136-0.486-0.207-0.694c-0.071-0.208-0.144-0.394-0.218-0.562
									c-0.074-0.167-0.148-0.317-0.223-0.452c-0.074-0.135-0.148-0.254-0.22-0.364c-0.14-0.223-0.287-0.41-0.43-0.565
									c-0.143-0.155-0.281-0.278-0.405-0.374c-0.124-0.096-0.233-0.165-0.316-0.211c-0.083-0.047-0.14-0.071-0.161-0.078
									c-0.17-0.059-0.337-0.139-0.497-0.24c-0.16-0.101-0.313-0.221-0.458-0.358c-0.145-0.137-0.283-0.291-0.411-0.459
									c-0.128-0.168-0.245-0.351-0.352-0.544c-0.079-0.145-0.152-0.296-0.218-0.452c-0.066-0.156-0.124-0.317-0.174-0.482
									c-0.05-0.165-0.092-0.335-0.124-0.506c-0.033-0.172-0.056-0.347-0.07-0.523c-0.034-0.443-0.002-0.853,0.086-1.216
									c0.088-0.363,0.231-0.678,0.418-0.931c0.187-0.253,0.418-0.444,0.683-0.557c0.264-0.114,0.561-0.15,0.88-0.094
									L489.258,176.125z"/>
							</g>
						</g>
					</g>
				</g>
				<g>
					<g>
						<g>
							<path fill="#CCCCCC" d="M472.816,127.832c2.88,0.925,5.622,2.603,8.116,4.845c2.496,2.245,4.742,5.054,6.626,8.239
								c1.884,3.186,3.405,6.747,4.448,10.492c1.044,3.745,1.61,7.673,1.587,11.591c-0.008,1.35-0.086,2.654-0.228,3.908
								c-0.143,1.254-0.35,2.458-0.618,3.608c-0.267,1.149-0.596,2.244-0.979,3.279c-0.383,1.035-0.822,2.011-1.312,2.923
								c-0.144-0.089-0.278-0.165-0.403-0.231c-0.124-0.066-0.238-0.122-0.34-0.169c-0.102-0.047-0.192-0.085-0.268-0.117
								c-0.077-0.031-0.139-0.056-0.187-0.076l-0.272-0.061c-0.319-0.056-0.616-0.019-0.88,0.094
								c-0.265,0.114-0.496,0.304-0.683,0.557c-0.187,0.253-0.33,0.569-0.418,0.932c-0.088,0.363-0.12,0.773-0.086,1.216
								c0.014,0.176,0.037,0.351,0.07,0.523c0.033,0.172,0.075,0.341,0.124,0.506c0.05,0.165,0.108,0.327,0.174,0.482
								c0.066,0.156,0.138,0.307,0.218,0.452c-0.957,0.998-2.007,1.84-3.135,2.512c-1.127,0.671-2.331,1.171-3.598,1.486
								c-1.266,0.315-2.595,0.444-3.971,0.374c-1.376-0.071-2.799-0.341-4.255-0.826c-1.439-0.479-2.842-1.146-4.196-1.976
								c-1.353-0.83-2.657-1.823-3.897-2.955c-1.24-1.132-2.416-2.404-3.516-3.791c-1.099-1.387-2.121-2.889-3.052-4.483
								c0.096-0.092,0.185-0.198,0.265-0.317c0.08-0.119,0.151-0.25,0.213-0.393s0.113-0.298,0.153-0.464
								c0.04-0.165,0.07-0.342,0.087-0.528c0.032-0.418,0.001-0.845-0.085-1.261c-0.086-0.415-0.226-0.818-0.409-1.189
								c-0.183-0.37-0.41-0.707-0.669-0.989c-0.259-0.283-0.551-0.511-0.866-0.664l-0.268-0.116
								c-0.049-0.013-0.117-0.032-0.202-0.053c-0.085-0.021-0.187-0.044-0.303-0.065c-0.116-0.021-0.248-0.041-0.391-0.055
								c-0.144-0.014-0.3-0.023-0.466-0.023c-0.476-1.225-0.901-2.481-1.27-3.759c-0.369-1.278-0.683-2.579-0.937-3.895
								c-0.254-1.315-0.448-2.646-0.577-3.984c-0.129-1.337-0.194-2.683-0.189-4.027c0.014-3.888,0.606-7.406,1.665-10.44
								c1.059-3.036,2.586-5.589,4.469-7.541c1.885-1.954,4.127-3.307,6.615-3.942C467.208,126.826,469.946,126.91,472.816,127.832z
								 M472.575,178.122c2.232,0.741,4.364,0.83,6.308,0.359c1.946-0.472,3.703-1.506,5.184-3.012
								c1.482-1.508,2.687-3.488,3.526-5.85c0.839-2.364,1.312-5.11,1.329-8.146c0.017-3.044-0.423-6.095-1.233-9.004
								c-0.81-2.909-1.99-5.674-3.453-8.15c-1.462-2.475-3.206-4.658-5.145-6.403c-1.938-1.744-4.069-3.05-6.306-3.772
								c-2.23-0.719-4.358-0.788-6.294-0.297c-1.935,0.49-3.679,1.54-5.146,3.057c-1.466,1.516-2.655,3.5-3.48,5.861
								c-0.825,2.359-1.287,5.097-1.298,8.123c-0.012,3.017,0.427,6.043,1.23,8.93c0.803,2.887,1.972,5.637,3.419,8.101
								c1.448,2.466,3.175,4.647,5.095,6.396C468.234,176.066,470.351,177.385,472.575,178.122"/>
						</g>
					</g>
				</g>
			</g>
		</g>
	</g>
	<g>
		<g>
			<g>
				<g>
					
						<rect x="205.285" y="299.606" transform="matrix(0.7235 0.6903 -0.6903 0.7235 310.4914 -40.8858)" fill="#CCCCCC" width="2" height="135.109"/>
				</g>
				<g>
					<g>
						<path fill="#CCCCCC" d="M162.147,399.528c0.541,0.106,0.894,0.633,0.788,1.175l-2.96,15.011l14.854-3.665
							c0.536-0.132,1.079,0.195,1.211,0.731c0.131,0.536-0.201,1.079-0.731,1.211l-16.379,4.042
							c-0.331,0.082-0.683-0.012-0.93-0.248s-0.357-0.582-0.291-0.918l3.263-16.551c0.038-0.193,0.13-0.363,0.257-0.496
							C161.457,399.581,161.799,399.46,162.147,399.528z"/>
					</g>
				</g>
			</g>
		</g>
	</g>
	<g>
		<g>
			<g>
				<g>
					
						<rect x="573.626" y="-16.654" transform="matrix(0.7235 0.6903 -0.6903 0.7235 194.0151 -382.5985)" fill="#CCCCCC" width="2" height="135.109"/>
				</g>
				<g>
					<g>
						<path fill="#CCCCCC" d="M618.764,18.533c-0.541-0.106-0.894-0.633-0.788-1.175l2.96-15.011l-14.854,3.666
							c-0.536,0.132-1.08-0.195-1.211-0.731c-0.131-0.536,0.201-1.079,0.731-1.211l16.379-4.042c0.332-0.082,0.683,0.012,0.93,0.248
							c0.247,0.236,0.357,0.582,0.291,0.917l-3.263,16.552c-0.038,0.193-0.13,0.363-0.257,0.496
							C619.455,18.48,619.113,18.601,618.764,18.533z"/>
					</g>
				</g>
			</g>
		</g>
	</g>
</g>
</svg>
