<?xml version="1.0" encoding="utf-8"?>
<!-- Generator: Adobe Illustrator 15.1.0, SVG Export Plug-In . SVG Version: 6.00 Build 0)  -->
<!DOCTYPE svg PUBLIC "-//W3C//DTD SVG 1.1//EN" "http://www.w3.org/Graphics/SVG/1.1/DTD/svg11.dtd">
<svg version="1.1" id="Layer_1" xmlns="http://www.w3.org/2000/svg" xmlns:xlink="http://www.w3.org/1999/xlink" x="0px" y="0px"
	 width="30px" height="30px" viewBox="0 0 30 30" enable-background="new 0 0 30 30" xml:space="preserve">
<path fill="#333333" d="M17.627,20.454h-1.749v-7.57c0-0.459-0.371-0.829-0.827-0.829h-2.034c-0.459,0-0.832,0.37-0.832,0.829
	c0,0.457,0.373,0.83,0.832,0.83h1.205v6.74h-1.746c-0.461,0-0.832,0.371-0.832,0.83s0.371,0.83,0.832,0.83h5.151
	c0.459,0,0.83-0.371,0.83-0.83S18.086,20.454,17.627,20.454"/>
<path fill="#333333" d="M15.051,10.286c0.819,0,1.488-0.668,1.488-1.49c0-0.823-0.669-1.491-1.488-1.491
	c-0.823,0-1.489,0.668-1.489,1.491C13.562,9.618,14.228,10.286,15.051,10.286"/>
<path fill="#333333" d="M15,2c7.168,0,13,5.832,13,13c0,7.168-5.832,13-13,13C7.832,28,2,22.168,2,15C2,7.832,7.832,2,15,2 M15,0
	C6.716,0,0,6.716,0,15s6.716,15,15,15c8.285,0,15-6.716,15-15S23.285,0,15,0L15,0z"/>
</svg>
