<?xml version="1.0" encoding="utf-8"?>
<!-- Generator: Adobe Illustrator 17.0.2, SVG Export Plug-In . SVG Version: 6.00 Build 0)  -->
<!DOCTYPE svg PUBLIC "-//W3C//DTD SVG 1.1//EN" "http://www.w3.org/Graphics/SVG/1.1/DTD/svg11.dtd">
<svg version="1.1" id="Layer_1" xmlns="http://www.w3.org/2000/svg" xmlns:xlink="http://www.w3.org/1999/xlink" x="0px" y="0px"
	 width="37px" height="37px" viewBox="0 0 37 37" enable-background="new 0 0 37 37" xml:space="preserve">
<g>
	<circle fill="#FFFFFF" cx="18.5" cy="18.5" r="18.5"/>
	<g>
		<g>
			<polygon fill="#254897" points="18.5,29.676 7.625,25.066 7.625,9.87 18.5,14.479 			"/>
			<polygon fill="#56A3ED" points="18.5,29.676 29.375,25.066 29.375,9.87 18.5,14.479 			"/>
			<polygon fill="#91B2D3" points="7.625,9.87 18.428,5.692 29.375,9.87 18.5,14.479 			"/>
		</g>
		<g>
			<g>
				<path fill="#FFFFFF" d="M24.184,23.24c0.046-0.019,0.09-0.023,0.13-0.012c0.04,0.01,0.076,0.035,0.106,0.071
					c0.03,0.036,0.055,0.083,0.072,0.14c0.017,0.057,0.026,0.123,0.026,0.197c0,0.074-0.01,0.148-0.027,0.219
					c-0.017,0.071-0.042,0.139-0.072,0.2c-0.03,0.061-0.067,0.116-0.107,0.16c-0.04,0.044-0.084,0.078-0.131,0.097
					c-0.046,0.019-0.09,0.023-0.131,0.013c-0.04-0.01-0.076-0.034-0.107-0.07c-0.03-0.036-0.055-0.083-0.072-0.14
					c-0.017-0.057-0.026-0.124-0.026-0.198c0-0.074,0.01-0.148,0.027-0.22c0.017-0.071,0.042-0.139,0.072-0.201
					c0.031-0.061,0.067-0.116,0.107-0.16C24.094,23.293,24.138,23.26,24.184,23.24z M24.183,23.955
					c0.015-0.006,0.03-0.018,0.044-0.032c0.013-0.015,0.025-0.033,0.036-0.053c0.01-0.02,0.018-0.043,0.024-0.067
					c0.006-0.024,0.009-0.049,0.009-0.073c0-0.025-0.003-0.047-0.009-0.066c-0.006-0.019-0.014-0.035-0.024-0.047
					c-0.01-0.012-0.022-0.02-0.035-0.024c-0.013-0.004-0.028-0.002-0.043,0.004c-0.015,0.006-0.03,0.018-0.043,0.032
					c-0.013,0.015-0.025,0.033-0.036,0.053c-0.01,0.02-0.018,0.043-0.024,0.067c-0.006,0.024-0.009,0.049-0.009,0.073
					c0,0.025,0.003,0.047,0.009,0.066c0.006,0.019,0.014,0.035,0.024,0.047c0.01,0.012,0.022,0.02,0.035,0.023
					C24.153,23.962,24.168,23.961,24.183,23.955"/>
			</g>
			<g>
				<path fill="#FFFFFF" d="M26.492,20.059c0,0.012,0,0.023,0,0.035c-0.001,0.012-0.001,0.023-0.002,0.035
					c-0.001,0.012-0.003,0.023-0.005,0.035c-0.002,0.012-0.004,0.023-0.007,0.035c-0.003,0.015-0.007,0.03-0.011,0.045
					c-0.004,0.015-0.009,0.03-0.014,0.045c-0.005,0.015-0.011,0.03-0.017,0.044c-0.006,0.014-0.013,0.028-0.02,0.042
					c-0.007,0.013-0.014,0.027-0.022,0.041c-0.008,0.014-0.016,0.027-0.025,0.04c-0.009,0.013-0.018,0.026-0.027,0.037
					c-0.009,0.012-0.019,0.023-0.029,0.033c-0.01,0.01-0.02,0.021-0.031,0.031c-0.011,0.01-0.022,0.021-0.033,0.031
					c-0.011,0.01-0.023,0.019-0.034,0.027c-0.012,0.008-0.023,0.015-0.035,0.019l-3.795,1.548c-0.012,0.005-0.025,0.008-0.037,0.01
					c-0.012,0.002-0.024,0.002-0.035,0.001c-0.011-0.001-0.023-0.002-0.034-0.004c-0.011-0.002-0.022-0.004-0.032-0.006
					c-0.01-0.002-0.02-0.005-0.03-0.01c-0.01-0.005-0.019-0.011-0.028-0.018c-0.009-0.007-0.017-0.015-0.026-0.023
					c-0.008-0.008-0.016-0.016-0.023-0.024c-0.007-0.008-0.014-0.016-0.02-0.026c-0.006-0.009-0.012-0.019-0.017-0.03
					c-0.005-0.01-0.01-0.022-0.014-0.033c-0.004-0.012-0.008-0.024-0.011-0.037c-0.002-0.01-0.005-0.019-0.006-0.03
					c-0.002-0.01-0.003-0.021-0.004-0.031c-0.001-0.011-0.002-0.022-0.003-0.033c-0.001-0.011-0.001-0.023-0.001-0.035
					c0-0.004,0-0.008,0-0.012c0-0.004,0-0.008,0-0.012c0-0.004,0.001-0.008,0.001-0.012c0-0.004,0.001-0.008,0.001-0.013l0.16-1.794
					c0.001-0.014,0.003-0.029,0.005-0.043c0.002-0.014,0.005-0.029,0.009-0.043c0.003-0.014,0.007-0.029,0.012-0.043
					c0.004-0.014,0.009-0.028,0.014-0.042c0.005-0.014,0.011-0.028,0.017-0.041c0.006-0.014,0.013-0.027,0.019-0.04
					c0.007-0.013,0.014-0.026,0.022-0.039c0.008-0.013,0.015-0.025,0.024-0.037c0.008-0.012,0.017-0.024,0.025-0.035
					c0.009-0.011,0.018-0.022,0.027-0.033c0.009-0.011,0.019-0.021,0.029-0.031c0.01-0.01,0.02-0.019,0.03-0.028
					c0.01-0.009,0.021-0.018,0.031-0.026s0.021-0.015,0.032-0.022c0.011-0.007,0.022-0.013,0.033-0.019
					c0.011-0.006,0.022-0.011,0.033-0.015l3.406-1.349c0.011-0.004,0.022-0.008,0.032-0.011c0.011-0.003,0.021-0.005,0.032-0.007
					c0.01-0.002,0.021-0.002,0.031-0.003c0.01,0,0.02,0,0.03,0.001c0.01,0.001,0.019,0.003,0.029,0.005
					c0.009,0.002,0.019,0.005,0.028,0.008c0.009,0.003,0.018,0.007,0.026,0.012c0.008,0.004,0.017,0.009,0.025,0.015
					c0.008,0.006,0.015,0.012,0.022,0.019c0.007,0.007,0.014,0.014,0.021,0.022c0.006,0.008,0.013,0.016,0.018,0.025
					s0.011,0.018,0.016,0.028c0.005,0.01,0.01,0.02,0.014,0.03c0.004,0.011,0.008,0.022,0.011,0.033
					c0.003,0.011,0.006,0.023,0.008,0.036c0.002,0.012,0.004,0.025,0.005,0.038l0.148,1.639c0,0.004,0.001,0.007,0.001,0.011
					c0,0.004,0.001,0.008,0.001,0.011c0,0.004,0,0.008,0.001,0.011C26.492,20.052,26.492,20.056,26.492,20.059z M24.416,20.525
					l0-0.023l0-0.135l0.456-0.184l-0.006-0.269l-0.005-0.187l0.005,0.19l-0.45,0.181l0.001,0.294l0,0.049L24.416,20.525
					 M22.806,21.045l0.019-0.306l-0.459,0.184l-0.024,0.281l0.464-0.187l-0.006,0.115l-0.003,0.049L22.806,21.045 M24.183,21.091
					l0.005,0.158l-0.002-0.15l-0.003-0.075l0.001-0.203l-0.464,0.188l-0.007,0.273L24.183,21.091 M25.779,19.892l0.005,0.081
					l-0.001-0.022l-0.006-0.132l0.45-0.182l-0.023-0.258l-0.444,0.179l0.017,0.286L25.779,19.892 M23.499,20.766l0.011-0.302
					l-0.455,0.183l-0.016,0.277l0.461-0.186l-0.003,0.113L23.494,20.9L23.499,20.766 M23.736,20.372l-0.007,0.273l0.458-0.185
					l0,0.028l0.002-0.298L23.736,20.372 M25.098,20.094l0-0.002l0.453-0.183l-0.015-0.262l-0.448,0.18l0.005,0.274L25.098,20.094
					 M25.117,20.711l0.464-0.189l-0.016-0.261l-0.458,0.186L25.117,20.711 M23.478,21.377l0.009-0.274l-0.466,0.189l-0.017,0.277
					L23.478,21.377 M22.768,21.666l0.017-0.278l-0.468,0.189l-0.013,0.145c0,0.003,0,0.005-0.001,0.008c0,0.002,0,0.005,0,0.006
					c0,0.002,0,0.004,0,0.006c0,0.002,0,0.003,0.001,0.005c0,0.002,0,0.003,0.001,0.005c0,0.001,0.001,0.003,0.001,0.005
					c0,0.002,0.001,0.003,0.001,0.005c0,0.002,0.001,0.004,0.001,0.006c0.001,0.004,0.002,0.008,0.004,0.012
					c0.002,0.004,0.003,0.007,0.005,0.01c0.002,0.003,0.004,0.006,0.006,0.009c0.002,0.003,0.004,0.006,0.007,0.008
					c0.002,0.002,0.005,0.005,0.008,0.006c0.003,0.002,0.006,0.003,0.008,0.005c0.003,0.001,0.006,0.002,0.009,0.003
					c0.003,0.001,0.007,0.002,0.01,0.002c0.003,0,0.006,0,0.008,0c0.003,0,0.006-0.001,0.009-0.002
					c0.003-0.001,0.006-0.002,0.009-0.003c0.003-0.001,0.006-0.002,0.01-0.004c0,0,0.001-0.001,0.002-0.001l0.002-0.001
					c0,0,0.002-0.001,0.002-0.001l0.002-0.001L22.768,21.666 M26.257,20.165c0.001-0.004,0.002-0.007,0.002-0.01
					c0.001-0.003,0.001-0.006,0.002-0.008c0-0.003,0.001-0.005,0.001-0.008c0-0.003,0-0.005,0-0.008l-0.001-0.012l-0.012-0.133
					l-0.453,0.184l0.017,0.26l0.346-0.141c0.001,0,0.001-0.001,0.002-0.001l0.002-0.001l0.002-0.001l0.001-0.001
					c0.004-0.002,0.007-0.003,0.01-0.004c0.003-0.001,0.006-0.003,0.009-0.004c0.003-0.002,0.006-0.003,0.009-0.006
					c0.003-0.002,0.006-0.004,0.008-0.007c0.003-0.003,0.007-0.007,0.01-0.01c0.003-0.003,0.006-0.006,0.009-0.009
					c0.003-0.003,0.006-0.007,0.008-0.01c0.003-0.004,0.005-0.008,0.007-0.012c0.002-0.004,0.004-0.009,0.006-0.013
					c0.002-0.005,0.004-0.009,0.006-0.014c0.002-0.005,0.003-0.01,0.005-0.015C26.254,20.175,26.255,20.17,26.257,20.165
					 M24.417,20.996l0.467-0.19l-0.007-0.265l-0.461,0.187L24.417,20.996 M25.726,19.035l0.017,0.261l0.439-0.176l-0.021-0.259
					L25.726,19.035 M22.843,20.459l0.018-0.279l-0.447,0.179l-0.023,0.281L22.843,20.459 M25.071,19.297l0.009,0.265l0.442-0.177
					l-0.014-0.262L25.071,19.297 M23.519,20.188l0.01-0.275l-0.445,0.178l-0.015,0.277L23.519,20.188 M25.694,18.511l0.016,0.263
					l0.43-0.171l-0.01-0.136l-0.002-0.013c-0.001-0.004-0.001-0.007-0.002-0.011c-0.001-0.004-0.001-0.007-0.002-0.011
					c-0.001-0.003-0.002-0.007-0.003-0.01c-0.001-0.003-0.002-0.006-0.003-0.009c-0.001-0.002-0.003-0.005-0.004-0.007
					c-0.001-0.002-0.003-0.004-0.004-0.006c-0.002-0.002-0.003-0.004-0.005-0.006c-0.002-0.002-0.003-0.003-0.005-0.005
					l-0.007-0.007c-0.001-0.001-0.003-0.002-0.004-0.002c-0.001-0.001-0.003-0.001-0.004-0.002
					c-0.001-0.001-0.003-0.001-0.004-0.001c-0.001-0.001-0.003-0.001-0.004-0.001c-0.002-0.001-0.003-0.001-0.003-0.001
					c-0.003-0.001-0.005-0.001-0.006-0.001c-0.002,0-0.003-0.001-0.005-0.001c-0.002,0-0.003-0.001-0.003-0.001
					c-0.004,0-0.006,0-0.008,0c0,0-0.005,0.001-0.007,0.001c-0.002,0.001-0.005,0.001-0.007,0.002
					c-0.002,0.001-0.005,0.002-0.007,0.003c-0.001,0-0.002,0.001-0.004,0.001c-0.001,0-0.002,0.001-0.004,0.001
					c-0.001,0.001-0.002,0.001-0.004,0.001c-0.001,0.001-0.002,0.001-0.004,0.002L25.694,18.511 M22.879,19.902l0.017-0.279
					l-0.328,0.13c-0.001,0-0.001,0.001-0.001,0.001c-0.001,0-0.002,0.001-0.002,0.001l-0.003,0.001l-0.002,0.001
					c-0.003,0.001-0.006,0.002-0.009,0.004c-0.003,0.001-0.006,0.003-0.009,0.004c-0.003,0.002-0.006,0.003-0.009,0.005
					c-0.003,0.002-0.006,0.004-0.009,0.007c-0.002,0.002-0.004,0.003-0.005,0.005c-0.002,0.001-0.003,0.003-0.005,0.005
					c-0.002,0.002-0.003,0.003-0.005,0.005c-0.002,0.002-0.003,0.003-0.005,0.005c-0.001,0.001-0.003,0.003-0.004,0.004
					c-0.001,0.001-0.003,0.003-0.004,0.005c-0.001,0.002-0.003,0.003-0.004,0.005c-0.001,0.002-0.003,0.004-0.004,0.005
					l-0.008,0.014c-0.002,0.003-0.004,0.007-0.006,0.01c-0.002,0.003-0.004,0.007-0.005,0.01c-0.002,0.003-0.003,0.007-0.005,0.01
					c-0.002,0.003-0.003,0.007-0.004,0.01c-0.001,0.004-0.002,0.007-0.004,0.011c-0.001,0.004-0.002,0.008-0.003,0.012
					c-0.001,0.004-0.002,0.008-0.002,0.012c-0.001,0.004-0.001,0.008-0.002,0.012l-0.002,0.014l-0.011,0.147L22.879,19.902
					 M24.191,19.919l0.002-0.271l-0.442,0.177l-0.007,0.273L24.191,19.919 M24.413,19.56l0,0.269l0.445-0.178l-0.006-0.266
					L24.413,19.56 M25.055,18.765l0.008,0.266l0.432-0.172l-0.013-0.264L25.055,18.765 M23.538,19.639l0.009-0.275l-0.434,0.173
					l-0.014,0.278L23.538,19.639 M24.411,19.021l0.001,0.27l0.435-0.173l-0.006-0.268L24.411,19.021 M24.194,19.378l0.002-0.272
					l-0.432,0.172l-0.007,0.274L24.194,19.378"/>
			</g>
			<g>
				<path fill="#FFFFFF" d="M24.705,15.022c0.031-0.012,0.06-0.013,0.087-0.005c0.027,0.008,0.051,0.026,0.071,0.051
					c0.02,0.025,0.037,0.058,0.048,0.097c0.011,0.039,0.017,0.084,0.017,0.134l-0.002,0.814c0,0.05-0.006,0.1-0.018,0.148
					c-0.011,0.048-0.028,0.093-0.048,0.134c-0.02,0.041-0.045,0.076-0.071,0.105c-0.027,0.029-0.056,0.05-0.087,0.062l-2.151,0.832
					c-0.032,0.012-0.062,0.014-0.089,0.006c-0.027-0.008-0.052-0.025-0.073-0.05c-0.021-0.025-0.037-0.058-0.049-0.097
					c-0.012-0.039-0.018-0.085-0.018-0.136l0-0.823c0-0.05,0.006-0.101,0.018-0.149c0.012-0.048,0.028-0.094,0.049-0.135
					c0.021-0.041,0.045-0.077,0.073-0.106c0.027-0.029,0.058-0.051,0.089-0.063L24.705,15.022z"/>
			</g>
			<g>
				<path fill="#FFFFFF" d="M26.804,17.606l0.474,3.802l-0.008,1.606c0,0.002-0.001,0.053-0.011,0.132
					c-0.01,0.079-0.03,0.186-0.068,0.3c-0.038,0.115-0.095,0.237-0.179,0.346c-0.084,0.109-0.196,0.206-0.344,0.269l-4.8,2.037
					c-0.155,0.066-0.272,0.065-0.36,0.027c-0.088-0.038-0.148-0.114-0.188-0.198s-0.061-0.177-0.071-0.249
					c-0.011-0.072-0.011-0.124-0.011-0.126l0-1.665l0.511-4.283c0.002-0.074,0.012-0.148,0.03-0.218
					c0.018-0.07,0.043-0.137,0.074-0.197c0.031-0.06,0.068-0.113,0.108-0.155c0.041-0.042,0.085-0.075,0.131-0.093l1.197-0.47
					l0-0.453l-1.198,0.468c-0.047,0.019-0.093,0.021-0.134,0.009c-0.041-0.012-0.079-0.037-0.11-0.075
					c-0.031-0.037-0.057-0.087-0.074-0.146c-0.017-0.059-0.027-0.127-0.027-0.203l-0.002-2.292c0-0.076,0.01-0.152,0.027-0.224
					c0.017-0.073,0.043-0.141,0.074-0.203c0.031-0.062,0.068-0.116,0.11-0.16c0.041-0.043,0.087-0.076,0.134-0.094l3.065-1.152
					c0.046-0.017,0.09-0.019,0.131-0.006c0.04,0.012,0.076,0.039,0.106,0.076c0.03,0.038,0.055,0.087,0.071,0.145
					c0.017,0.058,0.026,0.126,0.026,0.201l-0.007,2.257c0,0.075-0.01,0.149-0.027,0.221c-0.017,0.071-0.042,0.139-0.072,0.2
					c-0.03,0.061-0.067,0.114-0.107,0.157c-0.04,0.043-0.084,0.075-0.13,0.094l-1.178,0.46l-0.001,0.452l2.508-0.985
					c0.045-0.017,0.087-0.02,0.126-0.009c0.039,0.011,0.074,0.035,0.103,0.07c0.029,0.035,0.054,0.081,0.071,0.136
					C26.792,17.47,26.802,17.534,26.804,17.606z M21.975,19.57l-0.485,4.067l5.546-2.289l-0.452-3.618
					c0-0.029-0.003-0.055-0.008-0.076c-0.006-0.022-0.014-0.039-0.023-0.053c-0.01-0.013-0.022-0.022-0.035-0.026
					c-0.013-0.004-0.028-0.003-0.043,0.003l-2.507,0.989l-0.226,0.089l-0.226,0.089l-0.227,0.089l-1.197,0.472
					c-0.016,0.006-0.031,0.017-0.045,0.032c-0.014,0.015-0.026,0.033-0.036,0.053c-0.01,0.021-0.019,0.043-0.024,0.068
					c-0.006,0.024-0.009,0.049-0.009,0.075L21.975,19.57 M27.052,23.105l0.007-1.413l-5.593,2.317l0.001,1.446
					c0,0.011,0.001,0.044,0.009,0.085c0.008,0.041,0.022,0.09,0.048,0.133c0.026,0.043,0.064,0.079,0.12,0.094
					c0.055,0.015,0.128,0.01,0.223-0.03l4.802-2.03c0.094-0.04,0.166-0.096,0.219-0.159c0.054-0.062,0.09-0.131,0.114-0.195
					c0.024-0.064,0.037-0.124,0.043-0.169C27.052,23.14,27.052,23.11,27.052,23.105 M22.092,18.119l3.056-1.189
					c0.015-0.006,0.03-0.017,0.043-0.031c0.013-0.014,0.025-0.032,0.035-0.052c0.01-0.02,0.018-0.043,0.024-0.067
					c0.006-0.024,0.009-0.049,0.009-0.074l0.006-2.259c0-0.025-0.003-0.047-0.009-0.067c-0.006-0.019-0.014-0.036-0.024-0.048
					c-0.01-0.013-0.022-0.021-0.035-0.026c-0.013-0.004-0.028-0.004-0.043,0.002l-3.064,1.156c-0.016,0.006-0.031,0.017-0.045,0.031
					c-0.014,0.014-0.026,0.033-0.037,0.053c-0.01,0.021-0.019,0.043-0.025,0.068c-0.006,0.024-0.009,0.049-0.009,0.075l0.001,2.29
					c0,0.025,0.003,0.048,0.009,0.068c0.006,0.02,0.014,0.036,0.025,0.048c0.01,0.012,0.023,0.021,0.036,0.025
					C22.061,18.126,22.076,18.125,22.092,18.119 M23.743,17.84l-0.226,0.088l-0.001,0.453l0.226-0.089L23.743,17.84"/>
			</g>
		</g>
		<g>
			<g enable-background="new    ">
				<g>
					<path fill="#FFFFFF" d="M14.761,23.626c0.016,0.007,0.032,0.018,0.046,0.034c0.014,0.015,0.027,0.033,0.037,0.054
						c0.011,0.021,0.019,0.043,0.025,0.067c0.006,0.024,0.009,0.048,0.009,0.073c0,0.024-0.004,0.046-0.01,0.065
						c-0.006,0.019-0.015,0.034-0.026,0.045c-0.011,0.011-0.024,0.019-0.038,0.022c-0.014,0.003-0.03,0.001-0.046-0.006
						l-1.103-0.477c-0.016-0.007-0.031-0.018-0.044-0.033c-0.014-0.015-0.026-0.033-0.036-0.053c-0.01-0.02-0.018-0.043-0.024-0.066
						c-0.006-0.023-0.009-0.048-0.009-0.072c0-0.024,0.004-0.045,0.009-0.064c0.006-0.018,0.015-0.033,0.025-0.045
						c0.01-0.011,0.023-0.019,0.037-0.022c0.014-0.003,0.029-0.001,0.045,0.005L14.761,23.626z"/>
				</g>
				<g>
					<path fill="#FFFFFF" d="M14.861,22.777c0.057,0.023,0.109,0.06,0.155,0.107c0.047,0.047,0.087,0.104,0.121,0.169
						c0.034,0.065,0.06,0.137,0.078,0.215c0.018,0.078,0.027,0.16,0.026,0.245l-0.014,1.136c-0.001,0.084-0.012,0.159-0.031,0.223
						c-0.019,0.064-0.047,0.116-0.082,0.155c-0.035,0.039-0.076,0.063-0.123,0.072c-0.047,0.009-0.099,0.002-0.155-0.023
						l-1.308-0.585c-0.054-0.024-0.105-0.063-0.152-0.113c-0.046-0.05-0.088-0.111-0.123-0.179
						c-0.035-0.068-0.063-0.143-0.082-0.222c-0.019-0.079-0.03-0.161-0.029-0.243l0.006-1.106c0-0.083,0.012-0.154,0.032-0.214
						c0.02-0.06,0.049-0.107,0.085-0.142c0.036-0.035,0.078-0.056,0.125-0.064c0.047-0.007,0.099,0,0.153,0.022L14.861,22.777z
						 M14.988,24.543l0.013-1.133c0-0.035-0.002-0.068-0.009-0.098c-0.006-0.03-0.015-0.056-0.027-0.08
						c-0.012-0.023-0.027-0.044-0.045-0.06c-0.018-0.017-0.039-0.03-0.063-0.04l-1.317-0.552c-0.023-0.01-0.045-0.014-0.064-0.013
						c-0.02,0.001-0.038,0.007-0.053,0.018c-0.015,0.012-0.027,0.029-0.036,0.051c-0.009,0.023-0.013,0.051-0.014,0.086
						l-0.007,1.109c0,0.034,0.004,0.069,0.012,0.101c0.008,0.033,0.02,0.064,0.035,0.092c0.015,0.028,0.032,0.053,0.052,0.073
						c0.02,0.021,0.041,0.036,0.064,0.046l1.31,0.579c0.024,0.01,0.044,0.013,0.063,0.009c0.018-0.004,0.034-0.015,0.046-0.031
						c0.013-0.016,0.022-0.038,0.029-0.065C14.984,24.61,14.988,24.579,14.988,24.543"/>
				</g>
				<g>
					<path fill="#FFFFFF" d="M15.175,20.459c0.087,0.033,0.167,0.087,0.238,0.157c0.071,0.071,0.133,0.159,0.185,0.259
						c0.051,0.1,0.091,0.214,0.118,0.335c0.027,0.122,0.04,0.252,0.038,0.386l-0.064,4.484c0,0.024-0.004,0.046-0.01,0.065
						c-0.006,0.018-0.015,0.033-0.027,0.044c-0.011,0.011-0.024,0.018-0.039,0.02c-0.014,0.002-0.03,0-0.047-0.008
						c-0.016-0.008-0.032-0.02-0.046-0.035c-0.014-0.015-0.027-0.034-0.038-0.055c-0.011-0.021-0.019-0.044-0.025-0.068
						c-0.006-0.024-0.009-0.048-0.009-0.073l0.06-4.47c0.001-0.084-0.006-0.163-0.021-0.236c-0.015-0.073-0.037-0.139-0.067-0.198
						c-0.029-0.058-0.066-0.109-0.108-0.15c-0.042-0.041-0.09-0.073-0.144-0.093l-0.969-0.373c-0.003-0.001-0.006-0.002-0.008-0.004
						c-0.003-0.001-0.005-0.003-0.008-0.005c-0.003-0.002-0.005-0.003-0.007-0.005c-0.002-0.002-0.005-0.004-0.007-0.006
						c-0.102,0.107-0.212,0.196-0.328,0.266c-0.116,0.07-0.239,0.12-0.368,0.15c-0.128,0.03-0.261,0.039-0.398,0.027
						c-0.136-0.012-0.277-0.046-0.42-0.103c-0.142-0.056-0.28-0.133-0.413-0.227c-0.132-0.094-0.26-0.205-0.381-0.331
						c-0.121-0.126-0.236-0.266-0.344-0.419c-0.108-0.152-0.208-0.317-0.3-0.492l-0.844-0.325c-0.044-0.017-0.089-0.022-0.132-0.015
						c-0.042,0.007-0.082,0.025-0.117,0.056c-0.034,0.03-0.063,0.073-0.083,0.127c-0.02,0.054-0.031,0.12-0.031,0.198l0.022,4.159
						c0,0.023-0.003,0.043-0.008,0.06c-0.005,0.017-0.012,0.031-0.021,0.042c-0.009,0.011-0.02,0.018-0.032,0.02
						c-0.012,0.003-0.025,0.001-0.04-0.005c-0.014-0.006-0.028-0.017-0.04-0.031c-0.012-0.014-0.023-0.031-0.032-0.05
						c-0.009-0.019-0.017-0.04-0.022-0.062c-0.005-0.022-0.008-0.045-0.008-0.067l-0.025-4.147
						c-0.001-0.118,0.014-0.223,0.042-0.313c0.028-0.09,0.068-0.165,0.119-0.221c0.051-0.057,0.112-0.094,0.181-0.111
						c0.069-0.016,0.145-0.011,0.226,0.02l0.648,0.246c-0.07-0.167-0.132-0.34-0.187-0.518c-0.055-0.178-0.102-0.361-0.14-0.548
						c-0.039-0.187-0.068-0.377-0.089-0.569c-0.02-0.192-0.031-0.387-0.032-0.581c-0.002-0.458,0.054-0.877,0.156-1.243
						c0.103-0.368,0.253-0.683,0.441-0.931c0.189-0.249,0.416-0.43,0.67-0.527c0.257-0.098,0.541-0.11,0.842-0.021
						c0.304,0.09,0.595,0.276,0.861,0.534c0.268,0.26,0.51,0.594,0.714,0.979c0.204,0.386,0.369,0.822,0.481,1.284
						c0.112,0.462,0.172,0.948,0.166,1.434c-0.002,0.206-0.016,0.404-0.041,0.593c-0.025,0.188-0.06,0.366-0.105,0.533
						c-0.045,0.167-0.099,0.322-0.162,0.466c-0.062,0.143-0.133,0.274-0.212,0.392L15.175,20.459z M12.658,20.421
						c0.265,0.104,0.521,0.12,0.755,0.058c0.237-0.062,0.452-0.203,0.635-0.411c0.184-0.209,0.336-0.487,0.442-0.819
						c0.107-0.334,0.169-0.724,0.173-1.156c0.005-0.433-0.049-0.867-0.149-1.279c-0.1-0.412-0.247-0.801-0.429-1.146
						c-0.181-0.344-0.397-0.643-0.636-0.876c-0.238-0.232-0.498-0.399-0.769-0.481c-0.269-0.081-0.523-0.072-0.753,0.015
						c-0.228,0.086-0.432,0.247-0.602,0.469c-0.169,0.221-0.305,0.503-0.398,0.832c-0.093,0.328-0.143,0.703-0.142,1.114
						c0.001,0.41,0.054,0.818,0.147,1.206c0.094,0.388,0.229,0.757,0.396,1.088c0.168,0.332,0.368,0.626,0.592,0.863
						C12.146,20.136,12.395,20.318,12.658,20.421"/>
				</g>
			</g>
		</g>
		<g>
			<path fill="#FFFFFF" d="M17.733,7.383c0.031-0.012,0.068-0.021,0.108-0.027c0.04-0.005,0.084-0.008,0.129-0.006
				c0.045,0.001,0.09,0.006,0.133,0.014c0.043,0.008,0.085,0.019,0.122,0.033l6.482,2.474c0.04,0.015,0.072,0.032,0.095,0.051
				c0.023,0.018,0.039,0.037,0.045,0.056c0.006,0.019,0.004,0.037-0.008,0.055c-0.012,0.017-0.033,0.033-0.063,0.046l-5.328,2.344
				c-0.033,0.014-0.073,0.025-0.116,0.032c-0.043,0.007-0.091,0.009-0.139,0.008c-0.048-0.001-0.097-0.006-0.145-0.015
				c-0.047-0.009-0.093-0.022-0.133-0.038l-6.561-2.67c-0.038-0.015-0.067-0.033-0.087-0.051c-0.02-0.018-0.032-0.037-0.034-0.056
				c-0.003-0.019,0.004-0.037,0.019-0.054c0.015-0.017,0.04-0.033,0.073-0.046L17.733,7.383z M18.025,7.478
				c-0.004-0.001-0.007-0.003-0.01-0.004c-0.003-0.001-0.006-0.002-0.009-0.003C18.002,7.47,17.999,7.47,17.999,7.47
				c-0.006,0-0.009,0.001-0.012,0.002l-5.416,2.159c-0.003,0.001-0.006,0.003-0.007,0.005c-0.002,0.002-0.002,0.004-0.002,0.005
				c0,0.002,0.001,0.004,0.003,0.006c0.002,0.002,0.005,0.003,0.009,0.005l3.094,1.256l1.042-0.435l-0.989-0.649
				c-0.01-0.007-0.017-0.014-0.021-0.02c-0.004-0.007-0.005-0.014-0.003-0.02c0.002-0.007,0.007-0.013,0.014-0.019
				c0.007-0.006,0.017-0.011,0.029-0.016c0.013-0.005,0.027-0.009,0.043-0.012c0.015-0.003,0.032-0.005,0.049-0.005
				c0.017-0.001,0.034,0,0.051,0.002c0.017,0.002,0.034,0.005,0.051,0.009l2.139,0.568l-0.336-0.177
				c-0.013-0.007-0.023-0.015-0.03-0.022c-0.007-0.008-0.01-0.016-0.011-0.023c0-0.008,0.003-0.015,0.009-0.022
				c0.006-0.007,0.016-0.013,0.028-0.019l1.067-0.445c0.012-0.005,0.027-0.009,0.043-0.012c0.016-0.003,0.033-0.004,0.051-0.004
				c0.018,0,0.037,0.001,0.055,0.003c0.018,0.002,0.037,0.006,0.054,0.01l1.523,0.424l-2.734-1.432
				c-0.013-0.007-0.022-0.014-0.027-0.021c-0.006-0.007-0.008-0.014-0.007-0.021c0.001-0.007,0.004-0.014,0.011-0.02
				c0.007-0.006,0.016-0.012,0.029-0.017c0.013-0.005,0.027-0.009,0.042-0.012c0.015-0.003,0.032-0.005,0.049-0.005
				c0.017,0,0.035,0,0.052,0.002c0.018,0.002,0.035,0.005,0.052,0.01l2.628,0.74l0.968-0.407L18.025,7.478 M24.51,9.959l-2.666-1.02
				l-1.052,0.443c-0.012,0.005-0.027,0.009-0.043,0.012c-0.016,0.003-0.033,0.004-0.052,0.004c-0.018,0-0.037-0.001-0.055-0.003
				c-0.019-0.002-0.037-0.006-0.054-0.011l-1.974-0.558l2.741,1.431c0.013,0.007,0.023,0.014,0.03,0.021
				c0.007,0.007,0.01,0.015,0.01,0.022c0,0.007-0.003,0.014-0.009,0.021c-0.006,0.007-0.015,0.013-0.028,0.018
				c-0.013,0.005-0.027,0.01-0.043,0.013c-0.016,0.003-0.033,0.005-0.051,0.005c-0.018,0-0.036,0-0.055-0.003
				c-0.018-0.002-0.037-0.006-0.054-0.01l-2.186-0.609l-0.893,0.374l0.788,0.415c0.013,0.007,0.023,0.014,0.03,0.022
				c0.007,0.007,0.011,0.015,0.011,0.023c0.001,0.008-0.002,0.015-0.008,0.022c-0.006,0.007-0.014,0.013-0.026,0.019
				c-0.014,0.006-0.029,0.01-0.045,0.013c-0.016,0.003-0.034,0.005-0.052,0.005c-0.018,0-0.037,0-0.055-0.003
				c-0.018-0.002-0.036-0.006-0.053-0.01l-2.319-0.617l0.709,0.462c0.01,0.007,0.018,0.014,0.023,0.021
				c0.005,0.007,0.007,0.015,0.006,0.022c-0.001,0.007-0.005,0.014-0.011,0.02c-0.006,0.006-0.016,0.012-0.028,0.017l-1.123,0.47
				l3.21,1.303c0.004,0.002,0.009,0.003,0.014,0.004c0.005,0.001,0.01,0.001,0.014,0.002s0.009,0,0.014-0.001
				c0.004-0.001,0.008-0.002,0.012-0.003l5.331-2.336c0.003-0.001,0.005-0.003,0.006-0.005c0.001-0.002,0.001-0.004,0.001-0.005
				c-0.001-0.002-0.002-0.004-0.005-0.006C24.517,9.962,24.514,9.96,24.51,9.959"/>
		</g>
	</g>
</g>
</svg>
