<?xml version="1.0" encoding="utf-8"?>
<!-- Generator: Adobe Illustrator 17.0.0, SVG Export Plug-In . SVG Version: 6.00 Build 0)  -->
<!DOCTYPE svg PUBLIC "-//W3C//DTD SVG 1.1//EN" "http://www.w3.org/Graphics/SVG/1.1/DTD/svg11.dtd">
<svg version="1.1" id="Layer_1" xmlns="http://www.w3.org/2000/svg" xmlns:xlink="http://www.w3.org/1999/xlink" x="0px" y="0px"
	 width="242px" height="324px" viewBox="0 0 242 324" enable-background="new 0 0 242 324" xml:space="preserve">
<g>
	<circle fill="#FFFFFF" cx="121" cy="120.812" r="120.75"/>
	<g>
		<g>
			<polygon fill="#254897" points="121,194.312 54.342,166.06 54.342,72.916 121,101.168 			"/>
			<polygon fill="#56A3ED" points="121,194.312 187.658,166.06 187.658,72.916 121,101.168 			"/>
			<polygon fill="#91B2D3" points="54.342,72.916 120.559,47.312 187.658,72.916 121,101.168 			"/>
		</g>
		<g>
			<g>
				<path fill="#FFFFFF" d="M155.84,154.87c0.284-0.118,0.554-0.138,0.8-0.074c0.246,0.064,0.466,0.212,0.652,0.432
					c0.186,0.219,0.335,0.51,0.438,0.859c0.103,0.349,0.16,0.756,0.159,1.207c-0.001,0.453-0.06,0.908-0.164,1.344
					c-0.105,0.436-0.256,0.853-0.442,1.228c-0.186,0.375-0.408,0.709-0.654,0.978c-0.246,0.27-0.516,0.475-0.8,0.595
					c-0.284,0.119-0.554,0.141-0.8,0.078c-0.247-0.062-0.468-0.21-0.654-0.429c-0.186-0.219-0.337-0.51-0.441-0.86
					c-0.104-0.35-0.161-0.758-0.16-1.212c0-0.453,0.059-0.909,0.164-1.346c0.105-0.437,0.257-0.855,0.444-1.23
					c0.187-0.375,0.41-0.709,0.657-0.979C155.285,155.192,155.557,154.988,155.84,154.87z M155.833,159.248
					c0.094-0.04,0.185-0.108,0.267-0.197c0.082-0.09,0.156-0.201,0.218-0.325c0.062-0.125,0.112-0.263,0.147-0.409
					c0.035-0.145,0.054-0.297,0.055-0.449c0-0.15-0.019-0.286-0.053-0.402c-0.034-0.116-0.084-0.213-0.146-0.286
					c-0.061-0.073-0.135-0.123-0.217-0.145c-0.082-0.021-0.172-0.015-0.267,0.025c-0.095,0.039-0.185,0.108-0.266,0.197
					c-0.082,0.09-0.156,0.201-0.218,0.326c-0.062,0.125-0.113,0.264-0.148,0.41c-0.035,0.146-0.055,0.297-0.055,0.447
					c0,0.152,0.019,0.288,0.054,0.404c0.035,0.116,0.085,0.213,0.146,0.286c0.062,0.073,0.136,0.122,0.217,0.143
					C155.649,159.294,155.738,159.287,155.833,159.248"/>
			</g>
			<g>
				<path fill="#FFFFFF" d="M169.984,135.372c0.001,0.071,0,0.144-0.003,0.215c-0.003,0.072-0.008,0.144-0.015,0.216
					c-0.007,0.072-0.016,0.144-0.028,0.215c-0.011,0.071-0.024,0.142-0.04,0.212c-0.019,0.092-0.042,0.186-0.067,0.279
					c-0.026,0.094-0.054,0.186-0.086,0.278c-0.031,0.092-0.066,0.183-0.104,0.271c-0.037,0.088-0.077,0.174-0.12,0.257
					c-0.043,0.082-0.088,0.166-0.136,0.249c-0.048,0.083-0.098,0.165-0.15,0.245c-0.053,0.08-0.107,0.157-0.164,0.229
					c-0.057,0.072-0.116,0.139-0.177,0.2c-0.062,0.062-0.125,0.127-0.19,0.191c-0.065,0.064-0.132,0.128-0.2,0.188
					c-0.069,0.059-0.138,0.116-0.21,0.164c-0.071,0.048-0.143,0.089-0.217,0.119l-23.26,9.487c-0.076,0.031-0.151,0.05-0.225,0.061
					c-0.073,0.01-0.146,0.012-0.216,0.008c-0.07-0.003-0.139-0.012-0.206-0.024c-0.067-0.011-0.132-0.024-0.195-0.036
					c-0.063-0.011-0.124-0.033-0.183-0.063c-0.059-0.03-0.116-0.069-0.17-0.112c-0.054-0.043-0.107-0.091-0.157-0.14
					c-0.05-0.049-0.097-0.1-0.142-0.148c-0.044-0.048-0.085-0.101-0.124-0.157c-0.038-0.056-0.074-0.117-0.106-0.181
					c-0.033-0.064-0.062-0.132-0.088-0.204c-0.026-0.072-0.05-0.146-0.07-0.225c-0.015-0.059-0.028-0.119-0.039-0.181
					c-0.011-0.063-0.02-0.127-0.027-0.193c-0.007-0.066-0.012-0.133-0.015-0.203c-0.004-0.069-0.004-0.141-0.004-0.214
					c0-0.024,0-0.048,0.001-0.072c0-0.025,0.002-0.049,0.003-0.075c0.002-0.025,0.003-0.051,0.005-0.076
					c0.002-0.026,0.004-0.052,0.006-0.078l0.981-10.996c0.008-0.088,0.019-0.177,0.033-0.265c0.015-0.088,0.032-0.176,0.053-0.264
					s0.044-0.175,0.071-0.262c0.027-0.087,0.057-0.173,0.089-0.259c0.032-0.085,0.067-0.17,0.104-0.253
					c0.037-0.084,0.077-0.166,0.119-0.247s0.086-0.16,0.133-0.238c0.046-0.078,0.094-0.154,0.145-0.228
					c0.05-0.074,0.101-0.146,0.155-0.215c0.053-0.07,0.108-0.138,0.165-0.203c0.057-0.065,0.115-0.128,0.175-0.189
					c0.059-0.06,0.12-0.118,0.182-0.173c0.062-0.056,0.126-0.109,0.19-0.158c0.064-0.049,0.13-0.095,0.196-0.137
					c0.066-0.042,0.133-0.08,0.201-0.115c0.068-0.035,0.135-0.066,0.204-0.093l20.874-8.269c0.066-0.026,0.132-0.048,0.197-0.066
					c0.066-0.018,0.13-0.031,0.194-0.04c0.064-0.009,0.127-0.015,0.19-0.016c0.062-0.001,0.123,0.001,0.183,0.007
					c0.06,0.006,0.119,0.016,0.177,0.029c0.057,0.013,0.114,0.03,0.169,0.051c0.055,0.02,0.108,0.044,0.16,0.072
					c0.052,0.027,0.102,0.058,0.15,0.092c0.048,0.035,0.094,0.074,0.138,0.115c0.044,0.041,0.086,0.086,0.126,0.134
					c0.04,0.048,0.078,0.098,0.113,0.151c0.036,0.053,0.069,0.11,0.101,0.169c0.031,0.059,0.059,0.121,0.084,0.186
					c0.025,0.065,0.048,0.133,0.068,0.203c0.02,0.07,0.037,0.144,0.05,0.219c0.014,0.076,0.024,0.154,0.032,0.235l0.906,10.046
					c0.002,0.023,0.004,0.045,0.006,0.069c0.002,0.023,0.003,0.046,0.004,0.069c0.001,0.024,0.002,0.047,0.003,0.07
					C169.984,135.324,169.984,135.348,169.984,135.372z M157.26,138.228l0-0.139l-0.002-0.826l2.794-1.127l-0.039-1.646
					l-0.028-1.146l0.028,1.161l-2.76,1.11l0.006,1.801l-0.001,0.303L157.26,138.228 M147.394,141.412l0.117-1.878l-2.811,1.13
					l-0.148,1.725l2.843-1.147l-0.035,0.702l-0.016,0.3L147.394,141.412 M155.833,141.694l0.029,0.968l-0.011-0.917l-0.018-0.458
					l0.008-1.247l-2.843,1.152l-0.046,1.671L155.833,141.694 M165.615,134.345l0.029,0.495l-0.006-0.135l-0.04-0.806l2.759-1.113
					l-0.14-1.58l-2.724,1.096l0.104,1.751L165.615,134.345 M151.637,139.7l0.065-1.852l-2.791,1.123l-0.098,1.699l2.825-1.14
					l-0.019,0.694l-0.007,0.297L151.637,139.7 M153.093,137.288l-0.046,1.674l2.808-1.132l0,0.168l0.012-1.825L153.093,137.288
					 M161.438,135.587l0.003-0.011l2.776-1.12l-0.09-1.605l-2.743,1.103l0.033,1.681L161.438,135.587 M161.557,139.368l2.844-1.155
					l-0.096-1.601l-2.809,1.138L161.557,139.368 M151.509,143.45l0.058-1.678l-2.855,1.156l-0.101,1.699L151.509,143.45
					 M147.158,145.218l0.107-1.704l-2.867,1.161l-0.079,0.886c-0.001,0.017-0.003,0.032-0.003,0.047c0,0.014-0.001,0.027-0.001,0.04
					s0,0.023,0.001,0.034c0.001,0.01,0.002,0.02,0.003,0.03c0.001,0.01,0.003,0.019,0.004,0.028
					c0.001,0.009,0.003,0.018,0.006,0.028c0.002,0.01,0.004,0.02,0.007,0.032c0.003,0.011,0.006,0.023,0.009,0.037
					c0.007,0.026,0.015,0.05,0.024,0.072c0.009,0.022,0.02,0.044,0.031,0.063c0.011,0.02,0.023,0.038,0.036,0.056
					c0.013,0.018,0.026,0.034,0.04,0.05c0.015,0.015,0.031,0.028,0.047,0.039c0.017,0.011,0.034,0.021,0.052,0.028
					c0.018,0.008,0.037,0.015,0.057,0.02c0.019,0.006,0.04,0.01,0.062,0.014c0.016,0.003,0.034,0.003,0.051,0.001
					c0.018-0.002,0.036-0.005,0.055-0.01c0.019-0.005,0.038-0.011,0.057-0.018c0.019-0.007,0.039-0.015,0.059-0.023
					c0.005-0.002,0.009-0.004,0.014-0.006c0.005-0.002,0.009-0.004,0.013-0.006c0.005-0.002,0.01-0.003,0.014-0.006
					c0.004-0.002,0.009-0.003,0.013-0.006L147.158,145.218 M168.542,136.02c0.006-0.023,0.01-0.043,0.014-0.062
					c0.004-0.018,0.007-0.035,0.01-0.052c0.003-0.016,0.004-0.032,0.006-0.048c0.001-0.016,0.002-0.033,0.002-0.052l-0.006-0.076
					l-0.073-0.815l-2.779,1.126l0.101,1.596l2.122-0.862c0.004-0.002,0.009-0.004,0.013-0.006c0.005-0.002,0.009-0.003,0.013-0.005
					c0.004-0.002,0.009-0.003,0.013-0.005c0.004-0.002,0.009-0.003,0.013-0.005c0.019-0.008,0.039-0.016,0.057-0.025
					c0.018-0.008,0.037-0.017,0.055-0.027c0.018-0.01,0.036-0.021,0.053-0.034c0.017-0.012,0.034-0.026,0.05-0.041
					c0.021-0.021,0.04-0.04,0.059-0.059c0.019-0.019,0.038-0.038,0.055-0.058c0.018-0.02,0.035-0.041,0.05-0.064
					c0.016-0.023,0.032-0.048,0.046-0.076c0.014-0.026,0.027-0.054,0.039-0.082c0.012-0.028,0.023-0.057,0.034-0.086
					c0.011-0.03,0.02-0.06,0.029-0.09C168.527,136.082,168.535,136.051,168.542,136.02 M157.269,141.11l2.863-1.163l-0.042-1.627
					l-2.826,1.145L157.269,141.11 M165.288,129.096l0.102,1.601l2.691-1.079l-0.131-1.587L165.288,129.096 M147.621,137.822
					l0.11-1.707l-2.743,1.097l-0.141,1.723L147.621,137.822 M161.276,130.699l0.054,1.625l2.711-1.087l-0.087-1.609L161.276,130.699
					 M151.762,136.161l0.061-1.683l-2.726,1.09l-0.092,1.698L151.762,136.161 M165.094,125.881l0.095,1.611l2.633-1.05l-0.064-0.832
					l-0.012-0.079c-0.003-0.022-0.006-0.045-0.011-0.067c-0.004-0.022-0.009-0.045-0.014-0.066
					c-0.005-0.021-0.011-0.042-0.017-0.061c-0.007-0.019-0.013-0.037-0.021-0.052c-0.007-0.014-0.016-0.028-0.024-0.041
					c-0.009-0.013-0.018-0.026-0.027-0.037c-0.01-0.012-0.019-0.023-0.029-0.034c-0.01-0.011-0.021-0.021-0.032-0.03l-0.045-0.041
					c-0.008-0.006-0.016-0.011-0.024-0.015c-0.008-0.004-0.016-0.008-0.024-0.012c-0.009-0.003-0.017-0.006-0.026-0.009
					c-0.009-0.003-0.018-0.006-0.027-0.008c-0.009-0.004-0.019-0.007-0.028-0.01c-0.01-0.003-0.019-0.005-0.029-0.007
					c-0.01-0.002-0.02-0.004-0.031-0.005c-0.01-0.002-0.021-0.004-0.031-0.005c-0.014-0.001-0.028-0.001-0.041,0
					c-0.014,0.002-0.029,0.004-0.043,0.008c-0.014,0.003-0.029,0.008-0.044,0.012c-0.014,0.005-0.028,0.011-0.043,0.016
					c-0.008,0.003-0.015,0.006-0.023,0.009c-0.007,0.003-0.015,0.006-0.021,0.009c-0.008,0.003-0.015,0.006-0.022,0.009
					c-0.007,0.003-0.015,0.006-0.022,0.009L165.094,125.881 M147.839,134.408l0.104-1.712l-2.01,0.799
					c-0.004,0.002-0.009,0.003-0.012,0.005c-0.004,0.002-0.008,0.003-0.012,0.005c0,0-0.008,0.003-0.012,0.005
					c-0.004,0.002-0.009,0.003-0.013,0.005c-0.018,0.007-0.037,0.015-0.055,0.023c-0.018,0.008-0.036,0.017-0.054,0.027
					c-0.018,0.01-0.035,0.021-0.053,0.034c-0.018,0.012-0.035,0.026-0.053,0.042c-0.011,0.01-0.022,0.019-0.033,0.029
					c-0.01,0.009-0.021,0.018-0.032,0.028c-0.01,0.01-0.021,0.019-0.031,0.029c-0.01,0.01-0.021,0.02-0.031,0.03
					c-0.009,0.008-0.017,0.017-0.025,0.026c-0.009,0.009-0.017,0.019-0.025,0.029c-0.009,0.01-0.017,0.02-0.025,0.031
					c-0.008,0.01-0.016,0.022-0.024,0.034l-0.047,0.084c-0.012,0.021-0.023,0.042-0.035,0.063c-0.011,0.021-0.021,0.042-0.031,0.064
					c-0.01,0.021-0.02,0.042-0.029,0.063c-0.009,0.021-0.018,0.042-0.025,0.062c-0.008,0.022-0.015,0.045-0.021,0.069
					c-0.007,0.024-0.013,0.048-0.019,0.072c-0.006,0.025-0.01,0.049-0.015,0.074c-0.004,0.025-0.008,0.049-0.011,0.073l-0.012,0.085
					l-0.069,0.904L147.839,134.408 M155.879,134.51l0.012-1.658l-2.71,1.083l-0.046,1.675L155.879,134.51 M157.244,132.311
					l0.003,1.65l2.727-1.093l-0.039-1.633L157.244,132.311 M161.174,127.438l0.051,1.633l2.648-1.055l-0.08-1.618L161.174,127.438
					 M151.882,132.796l0.058-1.688l-2.662,1.058l-0.088,1.704L151.882,132.796 M157.232,129.005l0.006,1.656l2.664-1.062
					l-0.036-1.641L157.232,129.005 M155.9,131.194l0.012-1.665l-2.646,1.051l-0.043,1.681L155.9,131.194"/>
			</g>
			<g>
				<path fill="#FFFFFF" d="M159.031,104.498c0.19-0.072,0.37-0.078,0.535-0.028c0.164,0.05,0.312,0.156,0.435,0.31
					c0.124,0.154,0.224,0.354,0.293,0.593c0.068,0.239,0.106,0.516,0.106,0.822l-0.012,4.992c-0.001,0.307-0.04,0.614-0.11,0.906
					c-0.07,0.292-0.171,0.57-0.296,0.819c-0.125,0.249-0.273,0.468-0.437,0.644c-0.165,0.175-0.345,0.307-0.535,0.381l-13.186,5.1
					c-0.194,0.075-0.378,0.084-0.547,0.035c-0.168-0.048-0.319-0.154-0.447-0.307c-0.127-0.154-0.23-0.356-0.301-0.597
					c-0.071-0.241-0.111-0.521-0.111-0.831l0-5.046c-0.001-0.309,0.039-0.619,0.11-0.915c0.071-0.295,0.174-0.576,0.301-0.828
					c0.127-0.251,0.279-0.473,0.447-0.651c0.168-0.178,0.353-0.311,0.548-0.384L159.031,104.498z"/>
			</g>
			<g>
				<path fill="#FFFFFF" d="M171.895,120.332l2.903,23.301l-0.048,9.846c0,0.012-0.004,0.323-0.067,0.807
					c-0.062,0.483-0.184,1.139-0.419,1.841c-0.234,0.702-0.582,1.452-1.099,2.121c-0.516,0.67-1.201,1.261-2.111,1.647
					l-29.419,12.484c-0.951,0.404-1.667,0.4-2.208,0.167c-0.541-0.233-0.905-0.697-1.15-1.212c-0.245-0.516-0.371-1.084-0.435-1.526
					c-0.065-0.442-0.068-0.759-0.068-0.771l0.003-10.208l3.133-26.25c0.009-0.453,0.075-0.905,0.185-1.336
					c0.11-0.431,0.266-0.841,0.456-1.208c0.19-0.367,0.414-0.691,0.662-0.952c0.248-0.26,0.52-0.457,0.804-0.568l7.338-2.883
					l0.002-2.778l-7.341,2.869c-0.291,0.114-0.569,0.128-0.821,0.057c-0.253-0.072-0.481-0.229-0.673-0.458
					c-0.192-0.23-0.347-0.532-0.455-0.892c-0.107-0.36-0.167-0.78-0.167-1.244l-0.01-14.05c0-0.465,0.059-0.931,0.166-1.376
					c0.107-0.444,0.262-0.867,0.454-1.245c0.192-0.378,0.42-0.711,0.673-0.978c0.254-0.267,0.532-0.466,0.824-0.576l18.785-7.059
					c0.285-0.106,0.554-0.115,0.8-0.038c0.246,0.076,0.466,0.237,0.652,0.469c0.185,0.231,0.334,0.533,0.437,0.892
					c0.103,0.358,0.159,0.773,0.158,1.231l-0.042,13.836c-0.001,0.457-0.06,0.915-0.165,1.352c-0.105,0.437-0.257,0.852-0.443,1.224
					c-0.186,0.372-0.408,0.701-0.654,0.965c-0.246,0.264-0.516,0.462-0.799,0.573l-7.219,2.822l-0.004,2.771l15.372-6.04
					c0.273-0.107,0.533-0.121,0.77-0.055c0.237,0.067,0.451,0.213,0.632,0.429c0.181,0.215,0.329,0.497,0.433,0.835
					C171.826,119.503,171.887,119.896,171.895,120.332z M142.301,132.37l-2.975,24.929l33.994-14.03l-2.772-22.178
					c0-0.179-0.018-0.336-0.051-0.468c-0.034-0.133-0.083-0.242-0.143-0.323c-0.061-0.082-0.133-0.137-0.213-0.162
					c-0.081-0.025-0.169-0.021-0.262,0.016l-15.366,6.062l-1.385,0.546l-1.384,0.546l-1.39,0.548l-7.335,2.894
					c-0.097,0.038-0.19,0.106-0.274,0.195c-0.084,0.089-0.159,0.201-0.223,0.327c-0.063,0.126-0.115,0.267-0.15,0.414
					c-0.035,0.147-0.055,0.302-0.055,0.457L142.301,132.37 M173.417,154.039l0.041-8.664l-34.284,14.205l0.009,8.864
					c0.001,0.068,0.008,0.272,0.055,0.524c0.047,0.252,0.134,0.552,0.294,0.813c0.16,0.26,0.393,0.482,0.733,0.576
					c0.339,0.094,0.785,0.061,1.37-0.187l29.43-12.441c0.579-0.245,1.015-0.59,1.345-0.974c0.329-0.383,0.551-0.803,0.7-1.195
					c0.149-0.393,0.227-0.759,0.266-1.033C173.414,154.251,173.417,154.067,173.417,154.039 M143.016,123.48l18.729-7.29
					c0.094-0.037,0.184-0.102,0.265-0.19c0.082-0.088,0.156-0.197,0.218-0.321c0.062-0.124,0.113-0.262,0.148-0.408
					c0.035-0.146,0.054-0.299,0.055-0.452l0.039-13.849c0-0.152-0.019-0.29-0.053-0.41c-0.034-0.119-0.084-0.22-0.146-0.297
					c-0.062-0.077-0.135-0.131-0.217-0.156c-0.082-0.026-0.172-0.023-0.266,0.013l-18.779,7.087
					c-0.098,0.037-0.191,0.104-0.275,0.192c-0.084,0.089-0.16,0.2-0.224,0.326c-0.063,0.126-0.115,0.267-0.15,0.414
					c-0.035,0.148-0.055,0.303-0.055,0.457l0.007,14.037c0,0.155,0.02,0.295,0.055,0.415c0.036,0.12,0.087,0.221,0.151,0.297
					c0.063,0.076,0.139,0.129,0.223,0.152C142.826,123.523,142.919,123.518,143.016,123.48 M153.134,121.766l-1.385,0.541
					l-0.003,2.776l1.385-0.544L153.134,121.766"/>
			</g>
		</g>
		<g>
			<g enable-background="new    ">
				<g>
					<path fill="#FFFFFF" d="M98.082,157.234c0.099,0.042,0.194,0.113,0.28,0.206c0.086,0.092,0.163,0.205,0.228,0.331
						c0.065,0.127,0.116,0.266,0.152,0.412c0.035,0.145,0.054,0.296,0.053,0.445c-0.002,0.15-0.024,0.284-0.062,0.398
						s-0.093,0.209-0.16,0.278c-0.067,0.07-0.146,0.116-0.233,0.134c-0.087,0.018-0.182,0.007-0.282-0.036l-6.763-2.921
						c-0.097-0.042-0.189-0.112-0.272-0.202c-0.084-0.09-0.159-0.201-0.222-0.326c-0.062-0.124-0.113-0.262-0.148-0.405
						c-0.035-0.143-0.054-0.292-0.053-0.44c0.001-0.147,0.021-0.278,0.058-0.39c0.037-0.112,0.089-0.205,0.153-0.274
						c0.064-0.07,0.141-0.115,0.225-0.134c0.085-0.019,0.177-0.009,0.274,0.032L98.082,157.234z"/>
				</g>
				<g>
					<path fill="#FFFFFF" d="M98.699,152.026c0.346,0.143,0.667,0.367,0.952,0.654c0.285,0.287,0.535,0.637,0.741,1.035
						c0.206,0.397,0.367,0.842,0.475,1.318c0.108,0.475,0.163,0.981,0.157,1.5l-0.088,6.964c-0.007,0.516-0.073,0.977-0.192,1.368
						c-0.118,0.391-0.288,0.711-0.501,0.948c-0.212,0.236-0.466,0.389-0.754,0.444c-0.287,0.055-0.606,0.012-0.951-0.141
						l-8.019-3.585c-0.331-0.148-0.645-0.386-0.93-0.693c-0.285-0.306-0.541-0.679-0.754-1.096
						c-0.214-0.417-0.386-0.878-0.505-1.361c-0.118-0.482-0.182-0.986-0.179-1.489l0.037-6.779c0.003-0.506,0.072-0.945,0.196-1.31
						c0.123-0.366,0.301-0.659,0.52-0.871c0.219-0.213,0.479-0.345,0.769-0.389c0.289-0.045,0.607-0.002,0.941,0.137L98.699,152.026
						z M99.475,162.856l0.082-6.943c0.003-0.217-0.015-0.417-0.052-0.598c-0.037-0.181-0.093-0.344-0.168-0.488
						c-0.075-0.144-0.168-0.267-0.279-0.37c-0.111-0.103-0.239-0.185-0.384-0.246l-8.075-3.386c-0.14-0.058-0.273-0.086-0.395-0.082
						c-0.122,0.005-0.231,0.041-0.324,0.112c-0.093,0.071-0.168,0.175-0.221,0.315c-0.053,0.14-0.083,0.315-0.084,0.528
						l-0.042,6.799c-0.001,0.211,0.026,0.421,0.076,0.621c0.05,0.2,0.124,0.391,0.214,0.562c0.091,0.172,0.199,0.325,0.319,0.45
						c0.12,0.126,0.253,0.223,0.391,0.285l8.03,3.549c0.144,0.063,0.272,0.08,0.384,0.056c0.112-0.024,0.206-0.09,0.284-0.191
						c0.077-0.1,0.137-0.236,0.178-0.4C99.45,163.264,99.472,163.071,99.475,162.856"/>
				</g>
				<g>
					<path fill="#FFFFFF" d="M100.62,137.82c0.531,0.201,1.02,0.531,1.456,0.964c0.437,0.434,0.818,0.972,1.132,1.587
						c0.314,0.616,0.56,1.31,0.724,2.055c0.164,0.745,0.247,1.542,0.235,2.364l-0.395,27.484c-0.003,0.15-0.025,0.283-0.064,0.395
						c-0.04,0.112-0.095,0.204-0.163,0.271c-0.068,0.067-0.148,0.109-0.237,0.124c-0.089,0.014-0.186,0-0.288-0.047
						c-0.101-0.047-0.197-0.121-0.284-0.215c-0.087-0.094-0.165-0.21-0.23-0.337c-0.065-0.128-0.118-0.269-0.153-0.415
						c-0.035-0.146-0.054-0.297-0.052-0.446l0.37-27.4c0.007-0.515-0.037-1.001-0.129-1.447c-0.091-0.447-0.23-0.855-0.41-1.214
						c-0.18-0.359-0.402-0.669-0.66-0.921c-0.259-0.252-0.553-0.445-0.88-0.571l-5.94-2.284c-0.017-0.007-0.034-0.014-0.05-0.023
						c-0.016-0.008-0.032-0.018-0.048-0.028c-0.016-0.01-0.031-0.021-0.046-0.032c-0.015-0.011-0.03-0.023-0.044-0.035
						c-0.623,0.656-1.297,1.203-2.012,1.631c-0.712,0.427-1.466,0.737-2.253,0.92c-0.784,0.183-1.599,0.241-2.44,0.165
						c-0.836-0.075-1.697-0.284-2.575-0.633c-0.869-0.346-1.714-0.815-2.529-1.392c-0.811-0.574-1.592-1.255-2.336-2.027
						c-0.742-0.769-1.447-1.63-2.108-2.566c-0.659-0.934-1.276-1.943-1.841-3.013l-5.176-1.991
						c-0.271-0.104-0.547-0.136-0.807-0.095c-0.26,0.041-0.506,0.154-0.717,0.341c-0.211,0.186-0.388,0.445-0.511,0.777
						c-0.123,0.331-0.193,0.736-0.19,1.214l0.138,25.492c0.001,0.139-0.016,0.263-0.047,0.369c-0.031,0.106-0.076,0.193-0.132,0.258
						c-0.056,0.065-0.122,0.107-0.197,0.124c-0.074,0.016-0.156,0.007-0.242-0.033c-0.086-0.039-0.168-0.105-0.243-0.19
						c-0.075-0.085-0.142-0.188-0.199-0.304c-0.056-0.116-0.103-0.245-0.134-0.379c-0.032-0.134-0.05-0.274-0.051-0.413
						l-0.155-25.42c-0.005-0.722,0.087-1.368,0.256-1.921c0.17-0.553,0.419-1.012,0.731-1.357c0.312-0.347,0.687-0.579,1.108-0.678
						c0.422-0.099,0.889-0.065,1.386,0.123l3.973,1.508c-0.427-1.021-0.812-2.083-1.148-3.175c-0.336-1.091-0.625-2.214-0.86-3.356
						c-0.236-1.144-0.42-2.308-0.545-3.486c-0.125-1.178-0.193-2.369-0.197-3.563c-0.009-2.809,0.331-5.377,0.958-7.619
						c0.631-2.256,1.553-4.187,2.703-5.704c1.159-1.529,2.55-2.638,4.108-3.233c1.573-0.6,3.316-0.676,5.16-0.127
						c1.862,0.554,3.647,1.69,5.28,3.275c1.644,1.596,3.128,3.643,4.375,5.999c1.252,2.366,2.26,5.037,2.948,7.868
						c0.688,2.831,1.053,5.812,1.019,8.79c-0.015,1.266-0.1,2.479-0.252,3.632c-0.151,1.151-0.367,2.241-0.641,3.264
						c-0.274,1.021-0.606,1.975-0.99,2.854c-0.383,0.877-0.817,1.68-1.297,2.403L100.62,137.82z M85.194,137.588
						c1.627,0.639,3.192,0.735,4.63,0.356c1.45-0.382,2.77-1.245,3.892-2.52c1.13-1.284,2.057-2.983,2.71-5.022
						c0.656-2.05,1.034-4.439,1.062-7.085c0.028-2.655-0.299-5.312-0.914-7.837c-0.614-2.524-1.514-4.909-2.63-7.022
						c-1.112-2.107-2.436-3.938-3.901-5.37c-1.457-1.423-3.05-2.446-4.711-2.949c-1.647-0.499-3.207-0.439-4.616,0.09
						c-1.398,0.525-2.648,1.512-3.691,2.876c-1.035,1.354-1.868,3.082-2.437,5.101c-0.567,2.009-0.877,4.311-0.87,6.83
						c0.007,2.511,0.328,5.012,0.902,7.389c0.574,2.378,1.403,4.639,2.429,6.666c1.029,2.034,2.258,3.838,3.629,5.291
						C82.055,135.844,83.58,136.954,85.194,137.588"/>
				</g>
			</g>
		</g>
		<g>
			<path fill="#FFFFFF" d="M116.301,57.677c0.19-0.075,0.417-0.13,0.664-0.163c0.248-0.033,0.517-0.046,0.79-0.038
				c0.273,0.008,0.551,0.036,0.818,0.084c0.266,0.048,0.522,0.116,0.75,0.203l39.728,15.166c0.245,0.093,0.44,0.199,0.585,0.31
				c0.144,0.111,0.237,0.227,0.275,0.342c0.039,0.115,0.023,0.229-0.048,0.334c-0.072,0.105-0.2,0.203-0.387,0.285l-32.654,14.365
				c-0.203,0.089-0.446,0.153-0.713,0.194c-0.266,0.04-0.557,0.056-0.853,0.049c-0.296-0.008-0.597-0.04-0.887-0.094
				c-0.29-0.055-0.567-0.133-0.816-0.234L83.341,72.114c-0.23-0.093-0.408-0.2-0.532-0.311c-0.124-0.111-0.195-0.228-0.211-0.343
				c-0.016-0.115,0.022-0.228,0.116-0.333c0.094-0.105,0.243-0.202,0.448-0.283L116.301,57.677z M118.088,58.255
				c-0.022-0.009-0.043-0.017-0.064-0.024c-0.02-0.008-0.039-0.014-0.057-0.018c-0.019-0.004-0.037-0.006-0.055-0.006
				c-0.018,0-0.036,0.004-0.055,0.012L84.663,71.453c-0.02,0.008-0.035,0.018-0.044,0.028c-0.01,0.01-0.013,0.022-0.012,0.033
				c0.002,0.012,0.009,0.023,0.021,0.035c0.013,0.011,0.03,0.021,0.053,0.031l18.966,7.7l6.389-2.663l-6.063-3.977
				c-0.063-0.041-0.105-0.084-0.129-0.125c-0.024-0.042-0.029-0.084-0.018-0.124c0.012-0.04,0.04-0.079,0.084-0.115
				c0.044-0.036,0.103-0.07,0.175-0.1c0.078-0.032,0.166-0.057,0.26-0.076c0.095-0.018,0.194-0.029,0.298-0.033
				c0.104-0.004,0.209,0,0.316,0.011c0.106,0.011,0.211,0.031,0.313,0.057l13.113,3.479l-2.059-1.086
				c-0.08-0.043-0.141-0.089-0.183-0.136c-0.041-0.047-0.063-0.095-0.065-0.142c-0.002-0.047,0.016-0.093,0.054-0.134
				c0.038-0.042,0.096-0.081,0.174-0.113l6.542-2.728c0.076-0.032,0.165-0.056,0.263-0.072c0.097-0.016,0.203-0.026,0.313-0.027
				c0.11-0.002,0.224,0.005,0.336,0.018c0.113,0.014,0.225,0.035,0.33,0.064l9.338,2.596l-16.759-8.776
				c-0.077-0.041-0.133-0.083-0.168-0.126c-0.035-0.043-0.05-0.086-0.046-0.128c0.004-0.042,0.027-0.083,0.068-0.121
				c0.041-0.038,0.101-0.073,0.177-0.104c0.077-0.031,0.164-0.056,0.259-0.073c0.094-0.017,0.196-0.028,0.301-0.031
				c0.105-0.003,0.213,0.002,0.322,0.014c0.108,0.013,0.216,0.034,0.321,0.063l16.106,4.537l5.934-2.492L118.088,58.255
				 M157.835,73.461l-16.343-6.253l-6.448,2.718c-0.075,0.032-0.164,0.055-0.262,0.072c-0.098,0.016-0.205,0.025-0.316,0.026
				c-0.111,0.001-0.225-0.006-0.339-0.02c-0.114-0.014-0.226-0.037-0.332-0.067l-12.101-3.419l16.799,8.772
				c0.081,0.042,0.141,0.086,0.182,0.132c0.041,0.045,0.062,0.092,0.064,0.137c0.002,0.045-0.016,0.089-0.053,0.13
				c-0.037,0.041-0.094,0.078-0.17,0.111c-0.077,0.033-0.166,0.059-0.263,0.077c-0.097,0.018-0.203,0.029-0.312,0.032
				c-0.109,0.003-0.222-0.003-0.335-0.016c-0.112-0.013-0.224-0.035-0.332-0.064l-13.397-3.73l-5.475,2.29l4.828,2.543
				c0.08,0.042,0.141,0.087,0.184,0.134c0.042,0.046,0.065,0.093,0.068,0.139c0.004,0.046-0.012,0.091-0.047,0.134
				c-0.035,0.042-0.089,0.081-0.162,0.116c-0.083,0.035-0.176,0.062-0.277,0.08c-0.1,0.019-0.208,0.029-0.319,0.032
				c-0.111,0.002-0.224-0.003-0.336-0.016c-0.112-0.013-0.222-0.034-0.328-0.061l-14.214-3.781l4.349,2.833
				c0.064,0.042,0.11,0.086,0.139,0.13c0.029,0.045,0.041,0.089,0.035,0.132c-0.006,0.044-0.028,0.085-0.068,0.124
				c-0.04,0.038-0.096,0.074-0.168,0.104l-6.883,2.88l19.673,7.986c0.025,0.01,0.053,0.019,0.083,0.024
				c0.029,0.006,0.059,0.009,0.089,0.009c0.029,0.001,0.058,0,0.085-0.004c0.026-0.004,0.051-0.01,0.071-0.019l32.674-14.319
				c0.019-0.008,0.031-0.018,0.038-0.029c0.007-0.01,0.009-0.021,0.005-0.033c-0.004-0.012-0.013-0.023-0.028-0.035
				C157.88,73.481,157.86,73.47,157.835,73.461"/>
		</g>
	</g>
	<g>
		<g>
			<path fill="#FFFFFF" d="M19.415,307.026c0.063,1.143,0.317,2.151,0.762,3.024c0.444,0.874,1.024,1.62,1.739,2.239
				c0.714,0.619,1.548,1.088,2.501,1.405c0.953,0.318,1.984,0.477,3.096,0.477c0.794,0,1.644-0.071,2.549-0.215
				c0.905-0.142,1.746-0.404,2.524-0.786c0.778-0.381,1.421-0.912,1.93-1.596c0.507-0.683,0.762-1.548,0.762-2.596
				c0-1.365-0.414-2.397-1.239-3.096c-0.826-0.698-1.866-1.239-3.12-1.62c-1.255-0.381-2.604-0.69-4.049-0.929
				c-1.445-0.238-2.795-0.596-4.049-1.072c-1.255-0.477-2.295-1.151-3.12-2.025c-0.826-0.873-1.239-2.151-1.239-3.835
				c0-1.206,0.27-2.215,0.81-3.025c0.54-0.81,1.231-1.453,2.072-1.93c0.841-0.476,1.786-0.817,2.834-1.024
				c1.048-0.206,2.096-0.31,3.144-0.31c1.27,0,2.46,0.143,3.573,0.429c1.111,0.286,2.072,0.747,2.882,1.381
				c0.81,0.636,1.445,1.445,1.906,2.43c0.46,0.984,0.69,2.175,0.69,3.573h-1.81c0-1.111-0.183-2.064-0.548-2.858
				c-0.365-0.793-0.874-1.436-1.524-1.929c-0.651-0.492-1.421-0.857-2.31-1.096c-0.889-0.238-1.842-0.357-2.858-0.357
				c-0.826,0-1.66,0.08-2.501,0.238c-0.842,0.159-1.596,0.429-2.263,0.81c-0.667,0.381-1.215,0.873-1.644,1.477
				c-0.429,0.603-0.643,1.334-0.643,2.191c0,0.985,0.238,1.779,0.714,2.382c0.477,0.604,1.103,1.088,1.882,1.453
				c0.778,0.366,1.651,0.66,2.62,0.881c0.968,0.223,1.945,0.445,2.93,0.667c1.207,0.223,2.341,0.485,3.406,0.786
				c1.064,0.302,1.984,0.714,2.763,1.239c0.778,0.524,1.389,1.199,1.834,2.024c0.444,0.826,0.667,1.874,0.667,3.144
				c0,1.334-0.302,2.43-0.905,3.287c-0.603,0.857-1.366,1.548-2.287,2.072c-0.921,0.523-1.946,0.889-3.072,1.096
				c-1.128,0.206-2.232,0.31-3.311,0.31c-1.398,0-2.691-0.184-3.882-0.548c-1.191-0.365-2.232-0.921-3.121-1.668
				c-0.889-0.745-1.588-1.659-2.096-2.739c-0.508-1.079-0.779-2.334-0.81-3.763H19.415z"/>
			<path fill="#FFFFFF" d="M43.28,281.159v14.768h0.095c0.317-0.921,0.77-1.739,1.357-2.453c0.587-0.715,1.27-1.326,2.049-1.834
				c0.778-0.508,1.627-0.889,2.548-1.143c0.921-0.254,1.858-0.381,2.81-0.381c1.429,0,2.644,0.175,3.645,0.524
				c1,0.35,1.817,0.81,2.453,1.381c0.635,0.572,1.135,1.215,1.5,1.929c0.365,0.715,0.627,1.438,0.786,2.167
				c0.159,0.731,0.254,1.438,0.286,2.12c0.031,0.683,0.048,1.279,0.048,1.786v15.148h-1.81V299.69c0-0.603-0.048-1.365-0.143-2.287
				c-0.095-0.921-0.374-1.802-0.833-2.644c-0.461-0.841-1.16-1.564-2.096-2.168c-0.937-0.603-2.232-0.905-3.882-0.905
				c-1.398,0-2.637,0.255-3.716,0.762c-1.08,0.508-2.001,1.215-2.763,2.12c-0.762,0.905-1.342,1.985-1.739,3.239
				c-0.397,1.255-0.595,2.628-0.595,4.121v13.243H41.47v-34.013H43.28z"/>
			<path fill="#FFFFFF" d="M65.05,302.93c0-1.747,0.246-3.39,0.738-4.931c0.492-1.54,1.215-2.897,2.168-4.073
				c0.953-1.175,2.127-2.103,3.525-2.787c1.397-0.683,3.001-1.024,4.811-1.024c1.81,0,3.414,0.341,4.811,1.024
				c1.397,0.684,2.572,1.612,3.525,2.787c0.953,1.175,1.675,2.533,2.167,4.073c0.492,1.541,0.738,3.184,0.738,4.931
				c0,1.747-0.247,3.398-0.738,4.954c-0.493,1.557-1.215,2.914-2.167,4.073c-0.953,1.159-2.128,2.08-3.525,2.763
				c-1.398,0.683-3.001,1.024-4.811,1.024c-1.81,0-3.414-0.342-4.811-1.024c-1.398-0.683-2.573-1.603-3.525-2.763
				c-0.953-1.159-1.675-2.517-2.168-4.073C65.296,306.328,65.05,304.676,65.05,302.93z M66.86,302.93
				c0,1.461,0.207,2.866,0.62,4.216c0.412,1.35,1.016,2.548,1.81,3.597c0.794,1.048,1.778,1.881,2.954,2.501
				c1.174,0.619,2.525,0.929,4.049,0.929c1.524,0,2.874-0.31,4.049-0.929c1.175-0.62,2.159-1.453,2.954-2.501
				c0.793-1.049,1.397-2.247,1.81-3.597c0.413-1.35,0.62-2.755,0.62-4.216c0-1.46-0.207-2.866-0.62-4.216
				c-0.413-1.35-1.017-2.549-1.81-3.597c-0.794-1.048-1.779-1.882-2.954-2.501c-1.175-0.62-2.525-0.929-4.049-0.929
				c-1.524,0-2.875,0.31-4.049,0.929c-1.175,0.619-2.16,1.453-2.954,2.501c-0.794,1.048-1.398,2.247-1.81,3.597
				C67.067,300.064,66.86,301.469,66.86,302.93z"/>
			<path fill="#FFFFFF" d="M93.965,296.308h0.143c0.19-0.603,0.508-1.27,0.953-2.001c0.444-0.73,1.032-1.405,1.763-2.024
				c0.73-0.62,1.611-1.135,2.644-1.548c1.031-0.413,2.215-0.619,3.549-0.619c1.873,0,3.501,0.35,4.883,1.048
				c1.381,0.699,2.525,1.636,3.43,2.811c0.905,1.175,1.58,2.541,2.025,4.097c0.444,1.557,0.667,3.192,0.667,4.907
				c0,1.874-0.224,3.589-0.669,5.145c-0.446,1.556-1.122,2.898-2.03,4.025c-0.908,1.127-2.054,2.009-3.438,2.643
				c-1.385,0.635-3.016,0.953-4.894,0.953c-2.038,0-3.853-0.445-5.444-1.334c-1.591-0.889-2.753-2.334-3.486-4.335h-0.094
				l-0.001,13.862h-1.763v-33.251h1.763V296.308z M102.993,314.172c1.591,0,2.968-0.302,4.131-0.905
				c1.162-0.603,2.117-1.413,2.865-2.43c0.748-1.016,1.306-2.198,1.672-3.549c0.366-1.349,0.549-2.787,0.549-4.311
				c0-1.397-0.175-2.771-0.525-4.121c-0.351-1.35-0.892-2.556-1.624-3.62c-0.732-1.064-1.679-1.921-2.842-2.573
				c-1.163-0.65-2.571-0.977-4.227-0.977c-1.624,0-3.009,0.318-4.156,0.953c-1.146,0.636-2.078,1.477-2.794,2.525
				c-0.717,1.048-1.234,2.247-1.553,3.597c-0.318,1.35-0.477,2.755-0.477,4.216c0,1.461,0.143,2.867,0.429,4.215
				c0.287,1.351,0.772,2.542,1.457,3.573c0.685,1.032,1.607,1.857,2.77,2.478C99.832,313.862,101.273,314.172,102.993,314.172z"/>
			<path fill="#FFFFFF" d="M132.599,295.379c-0.35-0.683-0.817-1.246-1.405-1.691c-0.588-0.444-1.262-0.77-2.024-0.977
				c-0.762-0.206-1.572-0.31-2.43-0.31c-0.667,0-1.342,0.071-2.024,0.214c-0.683,0.143-1.31,0.381-1.882,0.714
				c-0.571,0.333-1.032,0.771-1.381,1.31c-0.35,0.541-0.524,1.208-0.524,2.001c0,0.667,0.167,1.231,0.5,1.691
				c0.334,0.461,0.754,0.85,1.263,1.167c0.507,0.318,1.063,0.58,1.667,0.786c0.603,0.207,1.159,0.374,1.667,0.5l4.002,0.905
				c0.857,0.128,1.707,0.357,2.549,0.691c0.841,0.333,1.588,0.771,2.239,1.31c0.65,0.54,1.183,1.207,1.596,2.001
				c0.412,0.794,0.619,1.731,0.619,2.81c0,1.334-0.302,2.47-0.905,3.406c-0.604,0.936-1.374,1.699-2.311,2.286
				c-0.937,0.588-1.993,1.008-3.168,1.263c-1.175,0.254-2.334,0.381-3.477,0.381c-2.89,0-5.233-0.683-7.026-2.048
				c-1.794-1.365-2.819-3.557-3.073-6.574h3.002c0.127,2.032,0.865,3.565,2.215,4.597c1.35,1.032,3.025,1.549,5.026,1.549
				c0.731,0,1.485-0.079,2.263-0.238c0.777-0.159,1.5-0.429,2.167-0.81c0.667-0.381,1.215-0.864,1.644-1.452
				c0.429-0.588,0.643-1.31,0.643-2.168c0-0.73-0.151-1.341-0.453-1.834c-0.302-0.492-0.707-0.905-1.214-1.238
				c-0.509-0.333-1.089-0.611-1.739-0.833c-0.651-0.222-1.31-0.413-1.977-0.572l-3.859-0.857c-0.984-0.254-1.89-0.548-2.715-0.881
				c-0.826-0.334-1.548-0.746-2.167-1.239c-0.619-0.492-1.104-1.096-1.453-1.81c-0.35-0.714-0.524-1.596-0.524-2.644
				c0-1.238,0.277-2.302,0.833-3.191c0.555-0.889,1.278-1.604,2.168-2.144c0.889-0.539,1.882-0.936,2.977-1.191
				c1.096-0.253,2.184-0.381,3.263-0.381c1.239,0,2.39,0.159,3.454,0.476c1.063,0.318,2.001,0.81,2.811,1.477
				c0.81,0.667,1.453,1.493,1.93,2.477c0.477,0.985,0.745,2.144,0.81,3.478h-3.001C133.139,296.864,132.949,296.062,132.599,295.379
				z"/>
			<path fill="#FFFFFF" d="M143.58,307.05c0.302,1.16,0.786,2.199,1.453,3.12c0.667,0.922,1.508,1.684,2.524,2.287
				c1.016,0.603,2.239,0.905,3.668,0.905c2.191,0,3.906-0.572,5.146-1.716c1.238-1.143,2.096-2.667,2.572-4.572h3.001
				c-0.636,2.795-1.803,4.954-3.502,6.479c-1.699,1.524-4.104,2.286-7.217,2.286c-1.938,0-3.613-0.342-5.025-1.024
				c-1.414-0.683-2.565-1.619-3.454-2.811c-0.89-1.19-1.548-2.572-1.977-4.145c-0.429-1.571-0.643-3.23-0.643-4.978
				c0-1.62,0.215-3.207,0.643-4.764c0.429-1.556,1.087-2.945,1.977-4.168c0.889-1.222,2.04-2.207,3.454-2.953
				c1.412-0.746,3.088-1.12,5.025-1.12c1.969,0,3.652,0.397,5.05,1.191c1.397,0.794,2.532,1.834,3.406,3.12
				c0.873,1.286,1.5,2.763,1.882,4.43c0.381,1.667,0.539,3.358,0.476,5.074h-18.912C143.126,304.772,143.277,305.891,143.58,307.05z
				 M158.442,297.88c-0.365-1.048-0.881-1.977-1.548-2.787c-0.667-0.81-1.477-1.46-2.43-1.953c-0.952-0.492-2.032-0.738-3.239-0.738
				c-1.238,0-2.334,0.246-3.287,0.738c-0.952,0.493-1.763,1.143-2.429,1.953c-0.667,0.81-1.199,1.747-1.597,2.811
				c-0.397,1.064-0.659,2.152-0.786,3.263h15.911C159.005,300.023,158.807,298.928,158.442,297.88z"/>
			<path fill="#FFFFFF" d="M166.708,294.402c0.508-1.048,1.198-1.905,2.072-2.572c0.873-0.667,1.897-1.159,3.072-1.477
				c1.175-0.317,2.478-0.476,3.906-0.476c1.079,0,2.159,0.103,3.239,0.309c1.079,0.207,2.049,0.596,2.906,1.167
				c0.857,0.572,1.556,1.374,2.096,2.406c0.54,1.032,0.81,2.374,0.81,4.025v13.052c0,1.207,0.588,1.811,1.763,1.811
				c0.35,0,0.667-0.063,0.953-0.19v2.524c-0.35,0.064-0.659,0.111-0.929,0.143c-0.271,0.032-0.612,0.048-1.024,0.048
				c-0.763,0-1.374-0.103-1.834-0.31c-0.461-0.206-0.818-0.5-1.072-0.881c-0.254-0.382-0.421-0.834-0.5-1.358
				c-0.079-0.523-0.119-1.102-0.119-1.738h-0.095c-0.541,0.794-1.089,1.501-1.644,2.12c-0.557,0.619-1.176,1.136-1.858,1.548
				c-0.684,0.413-1.461,0.73-2.334,0.953c-0.874,0.222-1.914,0.333-3.12,0.333c-1.144,0-2.216-0.136-3.216-0.404
				c-1-0.27-1.874-0.698-2.62-1.287c-0.746-0.587-1.334-1.333-1.763-2.238s-0.643-1.978-0.643-3.216
				c0-1.715,0.381-3.056,1.143-4.025c0.763-0.969,1.77-1.707,3.025-2.215c1.254-0.508,2.668-0.865,4.24-1.072
				c1.571-0.206,3.167-0.405,4.787-0.596c0.635-0.063,1.191-0.143,1.667-0.238c0.477-0.095,0.873-0.262,1.191-0.501
				c0.317-0.238,0.563-0.564,0.738-0.977c0.174-0.412,0.262-0.953,0.262-1.62c0-1.016-0.166-1.85-0.5-2.501
				c-0.333-0.65-0.794-1.167-1.382-1.548c-0.588-0.381-1.27-0.643-2.048-0.786c-0.778-0.143-1.612-0.214-2.501-0.214
				c-1.905,0-3.462,0.452-4.669,1.357s-1.842,2.358-1.905,4.359h-3.001C165.897,296.689,166.199,295.451,166.708,294.402z
				 M181.713,301.739c-0.19,0.35-0.557,0.603-1.096,0.762c-0.541,0.159-1.017,0.27-1.43,0.333c-1.271,0.222-2.58,0.421-3.93,0.595
				c-1.351,0.175-2.581,0.437-3.692,0.786c-1.111,0.35-2.024,0.85-2.739,1.501c-0.714,0.651-1.071,1.58-1.071,2.787
				c0,0.762,0.15,1.438,0.452,2.024c0.302,0.588,0.707,1.096,1.215,1.524c0.508,0.429,1.096,0.755,1.763,0.977
				c0.667,0.223,1.35,0.334,2.049,0.334c1.143,0,2.238-0.175,3.287-0.524c1.048-0.349,1.96-0.857,2.738-1.524
				c0.778-0.667,1.397-1.477,1.858-2.43c0.46-0.952,0.69-2.032,0.69-3.239v-3.906H181.713z"/>
			<path fill="#FFFFFF" d="M193.575,290.591v5.764h0.095c0.763-2,1.945-3.541,3.55-4.621c1.603-1.08,3.517-1.572,5.74-1.477v3.001
				c-1.366-0.064-2.605,0.119-3.716,0.548c-1.112,0.429-2.072,1.041-2.882,1.834c-0.811,0.794-1.438,1.739-1.882,2.834
				c-0.445,1.096-0.667,2.294-0.667,3.597v13.1h-3.001v-24.581H193.575z"/>
			<path fill="#FFFFFF" d="M219.965,295.379c-0.35-0.683-0.818-1.246-1.405-1.691c-0.588-0.444-1.263-0.77-2.025-0.977
				c-0.763-0.206-1.572-0.31-2.43-0.31c-0.667,0-1.342,0.071-2.025,0.214c-0.684,0.143-1.311,0.381-1.882,0.714
				c-0.571,0.333-1.032,0.771-1.382,1.31c-0.35,0.541-0.523,1.208-0.523,2.001c0,0.667,0.166,1.231,0.5,1.691
				c0.333,0.461,0.754,0.85,1.263,1.167c0.507,0.318,1.064,0.58,1.667,0.786c0.603,0.207,1.159,0.374,1.667,0.5l4.002,0.905
				c0.857,0.128,1.707,0.357,2.549,0.691c0.841,0.333,1.587,0.771,2.238,1.31c0.65,0.54,1.183,1.207,1.596,2.001
				c0.413,0.794,0.62,1.731,0.62,2.81c0,1.334-0.303,2.47-0.905,3.406c-0.604,0.936-1.374,1.699-2.311,2.286
				c-0.938,0.588-1.993,1.008-3.168,1.263c-1.176,0.254-2.334,0.381-3.478,0.381c-2.891,0-5.232-0.683-7.026-2.048
				c-1.795-1.365-2.819-3.557-3.073-6.574h3.002c0.126,2.032,0.864,3.565,2.215,4.597c1.35,1.032,3.025,1.549,5.025,1.549
				c0.73,0,1.484-0.079,2.263-0.238c0.778-0.159,1.501-0.429,2.168-0.81c0.667-0.381,1.215-0.864,1.644-1.452
				c0.429-0.588,0.643-1.31,0.643-2.168c0-0.73-0.15-1.341-0.452-1.834c-0.302-0.492-0.707-0.905-1.215-1.238
				c-0.509-0.333-1.088-0.611-1.738-0.833c-0.651-0.222-1.311-0.413-1.978-0.572l-3.858-0.857c-0.984-0.254-1.89-0.548-2.716-0.881
				c-0.826-0.334-1.548-0.746-2.167-1.239c-0.619-0.492-1.104-1.096-1.453-1.81c-0.35-0.714-0.523-1.596-0.523-2.644
				c0-1.238,0.277-2.302,0.833-3.191c0.556-0.889,1.278-1.604,2.168-2.144c0.889-0.539,1.882-0.936,2.977-1.191
				c1.096-0.253,2.184-0.381,3.264-0.381c1.238,0,2.39,0.159,3.454,0.476c1.063,0.318,2,0.81,2.811,1.477
				c0.81,0.667,1.452,1.493,1.929,2.477c0.477,0.985,0.746,2.144,0.811,3.478h-3.002
				C220.505,296.864,220.314,296.062,219.965,295.379z"/>
		</g>
		<g>
			<path fill="#FFFFFF" d="M230.848,291.141h-1.716v4.548h-0.384v-4.548h-1.729v-0.396h3.828V291.141z M234.328,294.897l1.824-4.152
				h0.707v4.944h-0.383v-4.548h-0.037l-2.004,4.548h-0.215l-2.005-4.548h-0.036v4.548h-0.384v-4.944h0.708L234.328,294.897z"/>
		</g>
	</g>
</g>
</svg>
