<?xml version="1.0" encoding="utf-8" ?>
<!-- Generator: Adobe Illustrator 17.0.2, SVG Export Plug-In . SVG Version: 6.00 Build 0)  -->
<!DOCTYPE svg PUBLIC "-//W3C//DTD SVG 1.1//EN" "http://www.w3.org/Graphics/SVG/1.1/DTD/svg11.dtd">
<svg version="1.1" id="Layer_1" xmlns="http://www.w3.org/2000/svg" xmlns:xlink="http://www.w3.org/1999/xlink" x="0px" y="0px" width="20px" height="23.496px" viewBox="0 0 20 23.496" enable-background="new 0 0 20 23.496" xml:space="preserve">
    <g>
        <g>
            <g>
                <path fill="#ffffff" d="M9.954,2c3.705,0,6.72,3.015,6.72,6.72s-3.015,6.72-6.72,6.72s-6.72-3.015-6.72-6.72S6.248,2,9.954,2
				 M9.954,0c-4.816,0-8.72,3.904-8.72,8.72s3.904,8.72,8.72,8.72c4.816,0,8.72-3.904,8.72-8.72S14.77,0,9.954,0L9.954,0z" />
            </g>
        </g>
        <path fill="none" stroke="#ffffff" stroke-width="2" stroke-linecap="round" stroke-linejoin="round" stroke-miterlimit="10" d="
		M3.096,14.163c0,0-2.096-0.052-2.096,3.091v5.242" />
        <path fill="none" stroke="#ffffff" stroke-width="2" stroke-linecap="round" stroke-linejoin="round" stroke-miterlimit="10" d="
		M16.904,14.163c0,0,2.096-0.052,2.096,3.091v5.242" />
    </g>
</svg>
