<?xml version="1.0" encoding="utf-8" ?>
<!-- Generator: Adobe Illustrator 17.0.2, SVG Export Plug-In . SVG Version: 6.00 Build 0)  -->
<!DOCTYPE svg PUBLIC "-//W3C//DTD SVG 1.1//EN" "http://www.w3.org/Graphics/SVG/1.1/DTD/svg11.dtd">
<svg version="1.1" id="Layer_1" xmlns="http://www.w3.org/2000/svg" xmlns:xlink="http://www.w3.org/1999/xlink" x="0px" y="0px" width="30px" height="31px" viewBox="0 0 30 31" enable-background="new 0 0 30 31" xml:space="preserve">
    <g>
        <path fill="none" stroke="#ffffff" stroke-width="2" stroke-linecap="round" stroke-linejoin="round" stroke-miterlimit="10" d="
		M29,29.046C29,29.573,28.573,30,28.046,30H14.954C14.427,30,14,29.573,14,29.046V11.954C14,11.427,14.427,11,14.954,11h13.091
		C28.573,11,29,11.427,29,11.954V29.046z" />
        <path fill="none" stroke="#ffffff" stroke-width="2" stroke-linecap="round" stroke-linejoin="round" stroke-miterlimit="10" d="
		M14,25H9.078C8.551,25,8,24.531,8,24.004V6.913C8,6.386,8.551,6,9.078,6H22.17C22.697,6,23,6.386,23,6.913V11" />
        <path fill="none" stroke="#ffffff" stroke-width="2" stroke-linecap="round" stroke-linejoin="round" stroke-miterlimit="10" d="
		M8,20H2.078C1.551,20,1,19.531,1,19.004V1.913C1,1.386,1.551,1,2.078,1H15.17C15.697,1,16,1.386,16,1.913V6" />
    </g>
</svg>
