<?xml version="1.0" encoding="utf-8"?>
<!-- Generator: Adobe Illustrator 17.0.0, SVG Export Plug-In . SVG Version: 6.00 Build 0)  -->
<!DOCTYPE svg PUBLIC "-//W3C//DTD SVG 1.1//EN" "http://www.w3.org/Graphics/SVG/1.1/DTD/svg11.dtd">
<svg version="1.1" id="Layer_1" xmlns="http://www.w3.org/2000/svg" xmlns:xlink="http://www.w3.org/1999/xlink" x="0px" y="0px"
	 width="193px" height="21px" viewBox="0 0 193 21" enable-background="new 0 0 193 21" xml:space="preserve">
<g>
	<g>
		<path fill="#F58025" d="M11.821,4.12l-0.33-0.037c0.003-0.03,0.298-3.053-1.483-3.279C9.468,0.736,9.033,0.849,8.717,1.137
			c-0.623,0.569-0.719,1.725-0.69,2.6L7.693,3.745c-0.03-0.941,0.084-2.198,0.8-2.854c0.391-0.358,0.915-0.499,1.556-0.417
			C12.154,0.738,11.835,3.978,11.821,4.12"/>
	</g>
	<g>
		<path fill="#F58025" d="M7.439,5.21L7.106,5.198c0.001-0.037,0.11-3.787-1.551-4.016C4.913,1.099,4.427,1.217,4.073,1.555
			c-0.575,0.54-0.804,1.656-0.678,3.317L3.062,4.892c-0.134-1.79,0.121-2.959,0.782-3.577C4.27,0.91,4.861,0.756,5.6,0.857
			C7.556,1.122,7.445,5.043,7.439,5.21"/>
	</g>
	<g>
		<g>
			<path fill="#919195" d="M20.703,17.322l1.92-2.301c1.327,1.096,2.719,1.795,4.406,1.795c1.328,0,2.129-0.529,2.129-1.393v-0.044
				c0-0.82-0.506-1.242-2.973-1.876c-2.972-0.758-4.891-1.582-4.891-4.511V8.951c0-2.677,2.151-4.448,5.166-4.448
				c2.15,0,3.985,0.674,5.481,1.876l-1.686,2.445c-1.308-0.905-2.593-1.454-3.837-1.454c-1.244,0-1.898,0.566-1.898,1.283v0.042
				c0,0.971,0.632,1.287,3.184,1.939c2.992,0.783,4.68,1.857,4.68,4.431v0.041c0,2.932-2.234,4.576-5.419,4.576
				C24.729,19.682,22.474,18.901,20.703,17.322"/>
		</g>
		<g>
			<polygon fill="#919195" points="33.52,4.712 36.767,4.712 36.767,10.553 42.755,10.553 42.755,4.712 46.002,4.712 46.002,19.468 
				42.755,19.468 42.755,13.546 36.767,13.546 36.767,19.468 33.52,19.468 			"/>
		</g>
		<g>
			<path fill="#919195" d="M47.201,12.134v-0.042c0-4.196,3.31-7.631,7.865-7.631c4.553,0,7.821,3.394,7.821,7.589v0.042
				c0,4.195-3.311,7.63-7.866,7.63C50.469,19.721,47.201,16.33,47.201,12.134 M59.492,12.134v-0.042c0-2.53-1.855-4.638-4.471-4.638
				c-2.614,0-4.425,2.066-4.425,4.596v0.042c0,2.529,1.854,4.638,4.47,4.638C57.679,16.73,59.492,14.663,59.492,12.134"/>
		</g>
		<g>
			<path fill="#919195" d="M64.087,4.712h6.03c3.519,0,5.649,2.088,5.649,5.103v0.043c0,3.415-2.655,5.186-5.965,5.186h-2.467v4.426
				h-3.247V4.712z M69.905,12.155c1.624,0,2.573-0.97,2.573-2.237V9.877c0-1.453-1.011-2.235-2.635-2.235h-2.51v4.513H69.905z"/>
		</g>
		<g>
			<polygon fill="#FDB913" points="84.009,13.652 78.337,4.712 82.133,4.712 85.651,10.636 89.236,4.712 92.926,4.712 
				87.255,13.588 87.255,19.468 84.009,19.468 			"/>
		</g>
		<g>
			<path fill="#FDB913" d="M91.344,12.134v-0.042c0-4.196,3.311-7.631,7.865-7.631c4.553,0,7.821,3.394,7.821,7.589v0.042
				c0,4.195-3.311,7.63-7.865,7.63C94.611,19.721,91.344,16.33,91.344,12.134 M103.635,12.134v-0.042c0-2.53-1.856-4.638-4.47-4.638
				c-2.613,0-4.426,2.066-4.426,4.596v0.042c0,2.529,1.855,4.638,4.47,4.638C101.823,16.73,103.635,14.663,103.635,12.134"/>
		</g>
		<g>
			<path fill="#FDB913" d="M108.313,13.144V4.712h3.245v8.351c0,2.403,1.203,3.646,3.185,3.646c1.981,0,3.183-1.203,3.183-3.542
				V4.712h3.249v8.328c0,4.471-2.511,6.665-6.475,6.665C110.736,19.704,108.313,17.489,108.313,13.144"/>
		</g>
		<g>
			<path fill="#FDB913" d="M122.796,4.712h6.745c1.875,0,3.33,0.529,4.301,1.498c0.821,0.823,1.264,1.981,1.264,3.373v0.043
				c0,2.383-1.288,3.877-3.164,4.576l3.608,5.268h-3.797l-3.163-4.721h-0.04h-2.508v4.721h-3.246V4.712z M129.33,11.88
				c1.583,0,2.487-0.842,2.487-2.088V9.751c0-1.392-0.968-2.108-2.551-2.108h-3.224v4.237H129.33z"/>
		</g>
		<g>
			<polygon fill="#F05133" points="177.858,13.652 172.185,4.712 175.981,4.712 179.501,10.636 183.088,4.712 186.777,4.712 
				181.105,13.588 181.105,19.468 177.858,19.468 			"/>
		</g>
		<g>
			<path fill="#F05133" d="M168.511,4.686h-3.06l-6.289,14.783h3.308l1.346-3.309h6.242l1.35,3.309h3.394L168.511,4.686z
				 M164.977,13.293l1.961-4.785l1.961,4.785H164.977z"/>
		</g>
		<g>
			<polygon fill="#F05133" points="158.424,4.712 155.366,14.707 152.071,4.712 149.258,4.712 145.964,14.707 142.907,4.712 
				139.428,4.712 144.432,19.468 147.328,19.468 150.626,9.919 153.917,19.468 156.815,19.468 161.817,4.712 			"/>
		</g>
		<g>
			<path fill="#F05133" d="M187.967,7.091c0.156,0.096,0.383,0.175,0.621,0.175c0.355,0,0.562-0.187,0.562-0.458
				c0-0.251-0.143-0.395-0.506-0.534c-0.439-0.156-0.709-0.383-0.709-0.761c0-0.418,0.346-0.73,0.869-0.73
				c0.275,0,0.474,0.064,0.594,0.132l-0.096,0.283c-0.087-0.048-0.267-0.128-0.51-0.128c-0.366,0-0.506,0.219-0.506,0.402
				c0,0.251,0.164,0.375,0.534,0.518c0.455,0.176,0.686,0.395,0.686,0.79c0,0.414-0.307,0.773-0.941,0.773
				c-0.259,0-0.541-0.076-0.685-0.172L187.967,7.091z"/>
			<path fill="#F05133" d="M192.325,6.334c-0.021-0.374-0.045-0.825-0.04-1.16h-0.011c-0.092,0.315-0.203,0.65-0.339,1.02
				l-0.474,1.304h-0.264l-0.435-1.279c-0.128-0.379-0.235-0.726-0.311-1.045h-0.008c-0.007,0.335-0.028,0.786-0.052,1.188
				l-0.072,1.152h-0.331l0.188-2.687h0.443l0.458,1.299c0.111,0.331,0.203,0.626,0.271,0.905h0.011
				c0.068-0.271,0.164-0.566,0.283-0.905l0.479-1.299h0.442l0.168,2.687h-0.339L192.325,6.334z"/>
		</g>
		<g>
			<polygon fill="#F58025" points="14.912,19.417 9.607,20.548 9.607,4.743 11.656,4.186 14.912,4.005 			"/>
		</g>
		<g>
			<path fill="#C41230" d="M14.912,3.916l-4.28-0.701c0,0-0.543,0.454-1.025,0.351C9.125,3.463,9.058,3.012,9.058,3.012l-3.32-0.702
				L4.018,2.876H0.335l4.601,5.219l9.976-1.535V3.916z"/>
		</g>
		<g>
			<polygon fill="#F58025" points="9.607,20.363 9.607,4.648 14.913,3.821 14.913,19.233 			"/>
		</g>
		<g>
			<path fill="#FDB913" d="M9.607,4.743L6.03,4.184c0,0-0.319,0.405-0.884,0.282c-0.562-0.12-0.722-0.461-0.722-0.461L0.335,2.876
				L0.268,16.799l9.339,3.749V4.743z"/>
		</g>
	</g>
</g>
</svg>
